SplineFontDB: 3.0
FontName: N-Articulations
FullName: 
FamilyName: N
Weight: 
Copyright: 
UComments: "2011-5-24: Created." 
Version: 0
ItalicAngle: 0
UnderlinePosition: -100
UnderlineWidth: 50
Ascent: 800
Descent: 200
sfntRevision: 0x00000000
LayerCount: 3
Layer: 0 0 "Back"  1
Layer: 1 0 "Zeichenebene"  0
Layer: 2 0 "Struktur"  1
XUID: [1021 201 23757 16427]
FSType: 0
OS2Version: 0
OS2_WeightWidthSlopeOnly: 0
OS2_UseTypoMetrics: 1
CreationTime: 1306259327
ModificationTime: 1409117785
OS2TypoAscent: 0
OS2TypoAOffset: 1
OS2TypoDescent: 0
OS2TypoDOffset: 1
OS2TypoLinegap: 90
OS2WinAscent: 0
OS2WinAOffset: 1
OS2WinDescent: 0
OS2WinDOffset: 1
HheadAscent: 0
HheadAOffset: 1
HheadDescent: 0
HheadDOffset: 1
OS2Vendor: 'PfEd'
MarkAttachClasses: 1
DEI: 91125
LangName: 1033 
Encoding: UnicodeBmp
UnicodeInterp: none
NameList: Adobe Glyph List
DisplaySize: -72
AntiAlias: 1
FitToEm: 1
WinInfo: 0 8 7
BeginPrivate: 0
EndPrivate
BeginChars: 65536 260

StartChar: zero
Encoding: 48 48 0
Width: 839
VWidth: 0
Flags: MW
LayerCount: 3
Back
SplineSet
206 218 m 7
 125 218 124 97 124 0 c 7
 124 -73 137 -217 209 -217 c 7
 272 -217 282 -116 282 0 c 7
 282 141 261 218 206 218 c 7
203 247 m 7
 337 247 396 130 396 7 c 7
 396 -122 355 -247 203 -247 c 7
 103 -247 10 -164 10 1 c 7
 10 132 63 247 203 247 c 7
EndSplineSet
Fore
SplineSet
419 -195 m 3
 717 -195 802 -72 832 -72 c 3
 836.014 -72 839 -73.333 839 -80 c 3
 839 -109 668 -242 419 -242 c 3
 170 -242 0 -109 0 -80 c 3
 0 -73.4805 2 -72 9 -72 c 3
 38 -72 125 -195 419 -195 c 3
836 0 m 0
 836 -23 817 -42 794 -42 c 0
 771 -42 753 -23 753 0 c 0
 753 23 771 42 794 42 c 0
 817 42 836 23 836 0 c 0
686 0 m 0
 686 -23 667 -42 644 -42 c 0
 621 -42 603 -23 603 0 c 0
 603 23 621 42 644 42 c 0
 667 42 686 23 686 0 c 0
536 0 m 0
 536 -23 517 -42 494 -42 c 0
 471 -42 453 -23 453 0 c 0
 453 23 471 42 494 42 c 0
 517 42 536 23 536 0 c 0
386 0 m 0
 386 -23 367 -42 344 -42 c 0
 321 -42 303 -23 303 0 c 0
 303 23 321 42 344 42 c 0
 367 42 386 23 386 0 c 0
236 0 m 0
 236 -23 217 -42 194 -42 c 0
 171 -42 153 -23 153 0 c 0
 153 23 171 42 194 42 c 0
 217 42 236 23 236 0 c 0
86 0 m 0
 86 -23 67 -42 44 -42 c 0
 21 -42 3 -23 3 0 c 0
 3 23 21 42 44 42 c 0
 67 42 86 23 86 0 c 0
EndSplineSet
EndChar

StartChar: one
Encoding: 49 49 1
Width: 1000
VWidth: 0
Flags: HM
LayerCount: 3
Back
SplineSet
196.998 485 m 6
 211.998 485 222 479.667 222 457 c 6
 222 69 l 6
 222 39 225.5 36 260.5 32.5 c 4
 278.521 30.6982 282 26 282 14 c 7
 282 -2 274 -2 249 -2 c 7
 218 -2 197.005 -1 170 -1 c 7
 140 -1 116 -2 86 -2 c 7
 53 -2 50 -1 50 14 c 7
 50 24 52 29 68 31 c 4
 115 36 117 38 117 105 c 6
 117 280 l 6
 117 298 116 316 107 316 c 7
 101 316 97 312 40 242 c 4
 32 232 29.2549 230 23 230 c 7
 11.6514 230 10 232.934 10 238 c 4
 10 241 11 244 13 248 c 4
 43 315 83 389 105 443 c 4
 121 483 135 485 152 485 c 6
 196.998 485 l 6
EndSplineSet
EndChar

StartChar: two
Encoding: 50 50 2
Width: 1000
VWidth: 0
Flags: HM
LayerCount: 3
Back
SplineSet
212 249 m 7xb3
 320 249 398 184 398 103 c 7
 398 -18 204 -32 146 -68 c 4
 127 -79 111 -94 111 -109 c 7
 111 -114 115 -116 122 -116 c 4x79
 131 -116 144 -113 158 -113 c 4
 160 -113 163 -113 166 -113 c 4
 228 -121 237 -148 283 -148 c 7
 332 -148 349 -126 360 -104 c 4
 369 -88 368 -71 379 -71 c 7
 390 -71 390 -74 390 -96 c 6
 390 -98 l 6
 390 -150 337 -248 268 -248 c 7xb880
 186 -248 187 -178 112 -178 c 7
 66 -178 45 -202 35 -228 c 4x7480
 28 -246 25 -248 16 -248 c 6
 12 -248 10 -247 10 -221 c 4xb8
 10 -139 94 -52 169 -9 c 4
 245 35 280 53 280 114 c 7
 280 172 258 220 179 220 c 7
 149 220 104 210 104 178 c 7
 104 143 163 151 163 89 c 7
 163 58 140 26 99 26 c 7
 38 26 22 66 22 103 c 7
 22 184 93 249 212 249 c 7xb3
EndSplineSet
EndChar

StartChar: three
Encoding: 51 51 3
Width: 1000
VWidth: 1024
Flags: H
LayerCount: 3
Back
SplineSet
184 246 m 7xf6
 282 246 364 181 364 119 c 7xf6
 364 14 263 25 263 6 c 7
 263 -10 372 -18 372 -113 c 7
 372 -195 277 -251 188 -251 c 7
 99 -251 10 -211 10 -111 c 7
 10 -74 47 -49 84 -49 c 7
 118 -49 150 -75 150 -111 c 7
 150 -165 101 -163 101 -186 c 7
 101 -198 119 -219 167 -219 c 7
 245 -219 258 -158 258 -106 c 7xf9
 258 -20 186 -20 146 -17 c 4
 120 -14 116 -16 116 4 c 7
 116 14 119 16 131 17 c 4
 244 23 252 76 252 124 c 7
 252 180 232 218 182 218 c 7
 138 218 105 207 105 176 c 7
 105 152 152 161 152 101 c 7
 152 74 129 50 86 50 c 7
 51 50 19 77 19 120 c 7
 19 201 111 246 184 246 c 7xf6
EndSplineSet
EndChar

StartChar: four
Encoding: 52 52 4
Width: 1000
VWidth: 0
Flags: H
LayerCount: 3
Back
SplineSet
215 74 m 2xa0
 215 83 215 91 215 97 c 0xa0
 215 124 212 126 182 126 c 0
 177 126 172 126 166 126 c 3
 141 126 70 125 21 125 c 3
 11 125 10 136 10 141 c 3
 10 143 l 0
 10 152 11 159 30 189 c 0
 78 264 118 320 137 417 c 0
 153 493 156 490 173 492 c 0
 194 493 242 493 272 493 c 2
 276 493 l 2
 295 493 313 491.5 313 477.5 c 3
 313 450.458 278 405 189 317 c 0
 113 242 74 201 74 182 c 3
 74 170 78 168 112 168 c 0
 121 168 132 168 146 168 c 3
 155 168 164 168 171 168 c 0
 198 168 213 170 214 182 c 0
 215 192 215 242 216 259 c 0xc0
 217 277 215 300 229 309 c 0
 301 354 306 362 318 362 c 3
 328 362 331 356 331 337 c 0
 331 313 327 269 327 188 c 3
 327 172 333 170 347 170 c 3
 360 170 376 170 389 170 c 3
 416 170 419 164 419 149 c 3
 419 146 419 144 419 141 c 0
 419 129 416 125 379 125 c 3
 372 125 366 125 361 125 c 0
 334 125 327 122 327 80 c 3
 327 77 327 74 327 72 c 0
 327 35.5 329 36 374 33 c 0
 390 32 391 26 391 19 c 0
 391 0.103516 385.195 0 358 0 c 3
 327 0 286 1 268 1 c 3
 238 1 218 0 188 0 c 3
 155 0 152 1 152 16 c 3
 152 26 154 32 170 33 c 0
 210 36 215 28 215 67 c 2
 215 74 l 2xa0
EndSplineSet
EndChar

StartChar: five
Encoding: 53 53 5
Width: 1000
VWidth: 0
Flags: H
LayerCount: 3
Back
SplineSet
68 251 m 7xd3
 98 251 123 238 224 238 c 7xe3
 267 238 302 251 320 251 c 7xd3
 326 251 329 249 329 244 c 7
 329 237 319 221 302 196 c 4
 276 160 239 144 194 144 c 7xe3
 170 144 136 162 92 162 c 7
 72 162 69 152 68 127 c 4xd3
 66 91 64 71 64 59 c 4
 64 45 67 45 72 45 c 4
 73 45 l 7
 96 45 114 76 199 76 c 7
 289 76 360 20 360 -88 c 7
 360 -160 293 -246 160 -246 c 7
 86 -246 10 -208 10 -126 c 7
 10 -86 32 -51 80 -51 c 7
 132 -51 144 -83 144 -118 c 7
 144 -173 94 -148 94 -188 c 7xd9
 94 -214 136 -216 159 -216 c 7
 233 -216 239 -132 239 -78 c 7
 239 -8 212 28 150 28 c 7
 91 28 71 11 59 -12 c 4
 52 -26 44 -25 33 -25 c 7
 27 -25 22 -19 22 -3 c 7xd5
 22 19 31 84 31 197 c 4
 31 207 31 218 31 229 c 4
 31 249 45 251 68 251 c 7xd3
EndSplineSet
EndChar

StartChar: colon
Encoding: 58 58 6
Width: 1000
VWidth: 0
Flags: H
LayerCount: 3
Back
SplineSet
241 255 m 7xe8
 348 255 421 201 421 114 c 7
 421 92 411 44 363 28 c 4
 352 25 340 25 326 25 c 7
 273 25 246 64 246 110 c 7
 246 147 282 177 301 184 c 4
 309 188 313 191 313 196 c 7xf0
 313 215 291 226 251 226 c 7
 201 226 164 197 152 174 c 4
 135 139 133 52 133 -16 c 7
 133 -106 133 -221 237 -221 c 7
 328 -221 385 -128 390 -46 c 4
 391 -37 399 -32 409 -32 c 7
 431 -32 431 -47 431 -61 c 7
 431 -101 416 -142 390 -179 c 4
 354 -230 322 -257 224 -257 c 7
 96 -257 0 -164 0 -16 c 7
 0 148 99 255 241 255 c 7xe8
EndSplineSet
EndChar

StartChar: semicolon
Encoding: 59 59 7
Width: 1000
VWidth: 0
Flags: H
LayerCount: 3
Back
SplineSet
254 256 m 4xe8
 354 252 421 199 421 115 c 4
 421 93 411 45 363 29 c 4
 352 26 340 26 326 26 c 4
 273 26 246 65 246 111 c 4
 246 148 282 178 301 185 c 4
 309 189 313 192 313 197 c 4xf0
 313 216 291 227 251 227 c 7
 230 227 224 215 224 193 c 7
 224 136 223 33 223 -32 c 7
 223 -110 226 -148 226 -188 c 4
 226 -209 233 -219 245 -219 c 4
 332 -219 385 -121 390 -45 c 4
 391 -36 399 -31 409 -31 c 4
 431 -31 431 -46 431 -60 c 4
 431 -100 416 -141 390 -178 c 4
 358 -223 329 -248 255 -255 c 4
 240 -256 224 -261 224 -280 c 4
 224 -302 227 -337 227 -337 c 7
 227 -362 219 -362 205 -362 c 7
 188 -362 185 -350 185 -328 c 7
 185 -311 186 -297 186 -281 c 7
 186 -255 168 -251 146 -243 c 4
 59 -213 0 -131 0 -15 c 4
 0 103 51 192 133 232 c 4
 157 244 187 248 187 273 c 7
 187 293 185 320 185 340 c 7
 185 362 197 364 204 364 c 7
 220 364 225 362 225 333 c 7
 225 314 224 305 224 283 c 7
 224 258 237 256 254 256 c 4xe8
176 193 m 31
 164 193 158 186 152 175 c 4
 135 140 133 53 133 -15 c 4
 133 -65 138 -133 155 -174 c 4
 159 -184 169 -196 174 -196 c 7
 182 -196 185 -195 185 -166 c 7
 185 -113 183 -13 183 81 c 7
 183 115 184 148 184 179 c 15
 184 185 182 193 176 193 c 31
EndSplineSet
EndChar

StartChar: M
Encoding: 77 77 9
Width: 312
VWidth: 0
Flags: HW
HStem: -27 54<0 312>
LayerCount: 3
Back
SplineSet
665 -57 m 7xcf
 691 -57 711 -81 711 -118 c 7
 711 -150 688 -173 650 -173 c 7
 626 -173 601 -146 601 -114 c 7
 601 -80 631 -57 665 -57 c 7xcf
653 194 m 7x9f
 678 194 707 171 707 142 c 7
 707 102 688 78 654 78 c 7
 621 78 596 106 596 138 c 31
 596 169 626 194 653 194 c 7x9f
300 280 m 7
 456 280 567 169 567 -19 c 7
 567 -322 234 -555 -16 -555 c 7
 -30 -555 -30 -555 -39 -544 c 4
 -51 -529 -45 -525 -28 -522 c 4
 236 -482 434 -273 434 11 c 7
 434 122 362 243 269 243 c 7
 189 243 114 160 114 109 c 7
 114 105 114 102 121 102 c 7
 140 102 149 107 168 107 c 7
 228 107 270 62 270 -3 c 7
 270 -60 221 -104 164 -104 c 7xaf
 106 -104 42 -66 42 29 c 7
 42 163 142 280 300 280 c 7
EndSplineSet
Fore
SplineSet
312 -151 m 2
 312 -163 311 -165 298 -165 c 2
 15 -165 l 2
 2 -165 0 -163 0 -149 c 2
 0 -127 l 2
 0 -113 0 -111 15 -111 c 2
 298 -111 l 2
 311 -111 312 -113 312 -124 c 2
 312 -151 l 2
198 0 m 0
 198 -23 179 -42 156 -42 c 0
 133 -42 115 -23 115 0 c 0
 115 23 133 42 156 42 c 0
 179 42 198 23 198 0 c 0
EndSplineSet
EndChar

StartChar: O
Encoding: 79 79 10
Width: 492
VWidth: 0
Flags: W
HStem: 106 20G<16 30.5>
LayerCount: 3
Back
SplineSet
595 -126 m 4xc302
 595 -95 621 -70 652 -70 c 4
 683 -70 709 -95 709 -126 c 4
 709 -158 683 -183 652 -183 c 4
 621 -183 595 -158 595 -126 c 4xc302
595 127 m 4
 595 158 621 183 652 183 c 4
 683 183 709 158 709 127 c 4
 709 95 683 70 652 70 c 4x9302
 621 70 595 95 595 127 c 4
300 280 m 7xa782
 456 280 567 169 567 -19 c 7
 567 -322 234 -555 -16 -555 c 7
 -30 -555 -30 -555 -39 -544 c 4
 -51 -529 -45 -525 -28 -522 c 4
 236 -482 434 -273 434 11 c 7
 434 122 365 236 268 236 c 7x8b2a
 204 236 146 190 123 144 c 4
 108 112 117 101 153 106 c 4
 158 107 162 107 168 107 c 7
 228 107 270 67.0078 270 0 c 7
 270 -57 221 -104 164 -104 c 7
 106 -104 42 -66 42 29 c 7
 42 163 142 280 300 280 c 7xa782
478 504 m 7x8766
 478 444 423 450 423 429 c 7
 423 414 450 407 450 361 c 7x8712
 450 290 388 266 327 266 c 7
 273 266 223 291 223 347 c 7
 223 408 289 419 289 439 c 7
 289 457 268 462 268 494 c 7
 268 552 321 582 380 582 c 7
 432 582 478 553 478 504 c 7x8766
381 557 m 7
 353 557 318 546 318 521 c 7
 318 505 359 460 391 460 c 7
 411 460 447 478 447 505 c 7x8326
 447 533 419 557 381 557 c 7
325 404 m 7
 293 404 257 379 257 345 c 7
 257 317 277 293 331 293 c 7
 365 293 397 302 397 336 c 7x8b52
 397 358 352 404 325 404 c 7
EndSplineSet
Fore
SplineSet
24 126 m 3
 37 126 63 120 86 114 c 0
 177 92 365 46 478 18 c 0
 493 14 515 11 515 0 c 3
 515 -10 500 -13 488 -16 c 0
 458 -22 354 -49 258 -73 c 0
 180 -93 120 -106 82 -117 c 0
 62 -123 43 -127 30 -127 c 3
 21 -127 6 -121.5 6 -113 c 3
 6 -97.9917 28 -93 49 -88 c 0
 143 -67 230 -47 286 -35 c 0
 329 -26 385 -11 385 0 c 3
 385 11.0449 368 15 352 18 c 0
 234 43 165 60 41 90 c 0
 22 94 6 96.9252 6 112 c 3
 6 120.5 8 126 24 126 c 3
EndSplineSet
EndChar

StartChar: uni0080
Encoding: 128 128 11
Width: 144
VWidth: 0
Flags: HMW
HStem: 197 20G<10.5 19.5 125 134>
VStem: 3 138<133.458 210.811>
LayerCount: 3
Back
SplineSet
55 9 m 6
 28 110 l 6
 11 172 0 198 0 209 c 4
 0 216 5 217 10 217 c 7
 23 217 46 211 69 211 c 28
 93 211 115 217 129 217 c 7
 133 217 138 216 138 210 c 4
 138 200 128 175 112 115 c 6
 83 9 l 6
 79 -6 74 -14 69 -14 c 4
 64 -14 59 -6 55 9 c 6
EndSplineSet
Fore
SplineSet
7 219 m 0
 19.2744 215.939 47 207 72 207 c 0
 97 207 123.804 215.71 137 219 c 0
 142.308 220.322 145.869 220.555 144 214 c 2
 79 -14 l 2
 77 -21 75 -25 72 -25 c 0
 70 -25 67 -21 65 -13 c 2
 1 211 l 2
 -1.59128 218.774 0.194716 220.697 7 219 c 0
EndSplineSet
EndChar

StartChar: uni0081
Encoding: 129 129 12
Width: 144
VWidth: 0
Flags: HMW
HStem: -217 20G<124.526 134.526 10.526 19.526>
VStem: 3.52596 138<-211 -133>
LayerCount: 3
Back
SplineSet
85 -135 m 7
 72 -135 61 -131 50 -131 c 4
 42 -131 37 -136 37 -158 c 4
 37 -279 36 -362 36 -469 c 4
 36 -611 37 -772 37 -834 c 4
 37 -870 36 -871 21 -871 c 4
 4 -871 0 -870 0 -826 c 4
 0 -747 3 -586 3 -432 c 4
 3 -277 0 -105 0 -44 c 4
 0 1 20 45 55 80 c 4
 91 116 141 141 215 141 c 7
 273 141 311 97 311 50 c 7
 311 -48 214 -135 85 -135 c 7
EndSplineSet
Fore
SplineSet
137.526 -219 m 0
 125.526 -216 97.5264 -207 72.5264 -207 c 0
 47.5264 -207 20.5264 -216 7.52637 -219 c 0
 2.52637 -220 -1.47363 -221 0.526367 -214 c 2
 65.5264 14 l 2
 67.5264 21 69.5264 25 72.5264 25 c 0
 74.5264 25 77.5264 21 79.5264 13 c 2
 143.526 -211 l 2
 146.526 -219 144.526 -221 137.526 -219 c 0
EndSplineSet
EndChar

StartChar: uni0082
Encoding: 130 130 13
Width: 110
VWidth: 0
Flags: HMW
LayerCount: 3
Fore
SplineSet
55 239 m 3
 79 239 110 225 110 171 c 3
 110 148 96 85 68 -5 c 0
 61 -26 58 -34 55 -34 c 3
 52 -34 49 -27 41 -4 c 0
 11 85 0 146 0 171 c 3
 0 224 33 239 55 239 c 3
EndSplineSet
EndChar

StartChar: uni0083
Encoding: 131 131 14
Width: 110
VWidth: 0
Flags: HMW
LayerCount: 3
Back
SplineSet
71 -91 m 4
 103 -91 285 13 285 60 c 4
 285 91 265 98 242 98 c 4
 208 98 35 -8 35 -52 c 4
 35 -73 50 -91 71 -91 c 4
0 -50 m 4
 0 -49 0 -48 0 -47 c 4
 0 40 78 135 211 135 c 4
 268 135 323 124 323 53 c 4
 323 -34 256 -127 123 -127 c 4
 106 -127 89 -126 73 -123 c 4
 65 -122 59 -121 55 -121 c 4
 39 -121 37.6474 -129.011 37 -148 c 4
 34 -236 36 -357 36 -469 c 4
 36 -611 37 -772 37 -834 c 4
 37 -870 30 -871 21 -871 c 4
 4 -871 0 -870 0 -826 c 4
 0 -747 2 -586 2 -432 c 4
 2 -285 0 -107 0 -54 c 4
 0 -53 0 -51 0 -50 c 4
EndSplineSet
Fore
SplineSet
-55 -239 m 3
 -79 -239 -110 -225 -110 -171 c 3
 -110 -148 -96 -85 -68 5 c 0
 -61 26 -58 34 -55 34 c 3
 -52 34 -49 27 -41 4 c 0
 -11 -85 0 -146 0 -171 c 3
 0 -224 -33 -239 -55 -239 c 3
EndSplineSet
EndChar

StartChar: uni008B
Encoding: 139 139 15
Width: 232
VWidth: 0
Flags: HW
HStem: 196 20G<109 124>
VStem: 100 32<-14.9985 215.997>
LayerCount: 3
Back
SplineSet
-16 264 m 5
 16 264 l 5
 16 -22 l 5
 -16 -22 l 5
 -16 264 l 5
116 216 m 0
 132 216 132 212 132 200 c 2
 132 -3 l 2
 132 -15 130 -15 116 -15 c 0
 102 -15 100 -13 100 -1 c 2
 100 204 l 2
 100 214 102 216 116 216 c 0
EndSplineSet
Fore
SplineSet
-5 264 m 6
 7 264 l 6
 15 264 16 263 16 255 c 6
 16 -8 l 6
 16 -20 15 -22 5 -22 c 6
 -5 -22 l 6
 -15 -22 -16 -21 -16 -9 c 6
 -16 253 l 6
 -16 263 -15 264 -5 264 c 6
EndSplineSet
EndChar

StartChar: uni008C
Encoding: 140 140 16
Width: 232
VWidth: 0
Flags: W
HStem: -131 31<-52.386 52.9073> 100 31<-52.9073 52.386>
VStem: -131 31<-52.9073 52.386> 100 31<-52.386 52.9073>
LayerCount: 3
Back
SplineSet
-85 0 m 4
 -85 -45 -49 -85 0 -85 c 4
 45 -85 85 -49 85 0 c 4
 85 45 49 85 0 85 c 4
 -45 85 -85 49 -85 0 c 4
-118 0 m 4
 -118 67 -63 118 0 118 c 4
 67 118 118 63 118 0 c 4
 118 -67 63 -118 0 -118 c 4
 -67 -118 -118 -63 -118 0 c 4
EndSplineSet
Fore
SplineSet
-100 0 m 0
 -100 -53 -58 -100 0 -100 c 0
 53 -100 100 -58 100 0 c 0
 100 53 58 100 0 100 c 0
 -53 100 -100 58 -100 0 c 0
-131 0 m 0
 -131 74 -70 131 0 131 c 0
 74 131 131 70 131 0 c 0
 131 -74 70 -131 0 -131 c 0
 -74 -131 -131 -70 -131 0 c 0
EndSplineSet
EndChar

StartChar: uni008D
Encoding: 141 141 17
Width: 262
VWidth: 0
Flags: W
HStem: -131 31<78.614 183.907> 244 20G<121 142>
VStem: 0 31<-52.9073 51.9086> 115 32<-21.9939 92.3262 127.317 263.997> 231 31<-52.386 53.4852>
CounterMasks: 1 38
LayerCount: 3
Back
SplineSet
126 264 m 6
 138 264 l 6
 146 264 147 263 147 255 c 6
 147 -8 l 6
 147 -20 146 -22 136 -22 c 6
 126 -22 l 6
 116 -22 115 -21 115 -9 c 6
 115 253 l 6
 115 263 116 264 126 264 c 6
31 0 m 4
 31 -53 73 -100 131 -100 c 4
 184 -100 231 -58 231 0 c 4
 231 53 189 100 131 100 c 4
 78 100 31 58 31 0 c 4
0 0 m 4
 0 74 61 131 131 131 c 4
 205 131 262 70 262 0 c 4
 262 -74 201 -131 131 -131 c 4
 57 -131 0 -70 0 0 c 4
333 0 m 0
 333 -45 369 -85 418 -85 c 0
 463 -85 503 -49 503 0 c 0
 503 31 486 59 459 74 c 0
 455 76 451 78 447 78 c 0
 439 78 434 71 434 56 c 2
 434 -3 l 2
 434 -15 432 -15 418 -15 c 0
 404 -15 402 -13 402 -1 c 2
 402 55 l 2
 402 71 396 77 388 77 c 0
 383 77 376 75 369 70 c 0
 348 56 333 30 333 0 c 0
418 216 m 0
 434 216 434 212 434 200 c 2
 434 143 l 2
 434 123 440 117 458 111 c 0
 504 94 536 50 536 0 c 0
 536 -67 481 -118 418 -118 c 0
 351 -118 300 -63 300 0 c 0
 300 51 332 92 374 109 c 0
 396 118 402 122 402 144 c 2
 402 204 l 2
 402 214 404 216 418 216 c 0
EndSplineSet
Fore
SplineSet
31 0 m 0
 31 -53 73 -100 131 -100 c 0
 184 -100 231 -58 231 0 c 0
 231 41 206 79 167 93 c 0
 152 99 147 95 147 80 c 2
 147 -8 l 2
 147 -20 146 -22 136 -22 c 2
 126 -22 l 2
 116 -22 115 -21 115 -9 c 2
 115 81 l 2
 115 96 112 100 97 94 c 0
 59 80 31 45 31 0 c 0
126 264 m 2
 138 264 l 2
 146 264 147 263 147 255 c 2
 147 148 l 2
 147 132 149 130 160 128 c 0
 220 114 262 60 262 0 c 0
 262 -74 201 -131 131 -131 c 0
 57 -131 0 -70 0 0 c 0
 0 62 42 112 97 126 c 0
 113 131 115 132 115 149 c 2
 115 253 l 2
 115 263 116 264 126 264 c 2
EndSplineSet
EndChar

StartChar: uni008E
Encoding: 142 142 18
Width: 262
VWidth: 0
Flags: W
HStem: 2 20G<121 141> 100 31<78.0927 183.386>
VStem: 0 31<-53.4852 52.386> 115 32<-263.997 -127.317 -92.3262 21.9939> 231 31<-51.9086 52.9073>
CounterMasks: 1 38
LayerCount: 3
Back
SplineSet
203 0 m 0
 203 45 167 85 118 85 c 0
 73 85 33 49 33 0 c 0
 33 -31 50 -59 77 -74 c 0
 81 -76 85 -78 89 -78 c 0
 97 -78 102 -71 102 -56 c 2
 102 3 l 2
 102 15 104 15 118 15 c 0
 132 15 134 13 134 1 c 2
 134 -55 l 2
 134 -71 140 -77 148 -77 c 0
 153 -77 160 -75 167 -70 c 0
 188 -56 203 -30 203 0 c 0
118 -216 m 0
 102 -216 102 -212 102 -200 c 2
 102 -143 l 2
 102 -123 96 -117 78 -111 c 0
 32 -94 0 -50 0 0 c 0
 0 67 55 118 118 118 c 0
 185 118 236 63 236 0 c 0
 236 -51 204 -92 162 -109 c 0
 140 -118 134 -122 134 -144 c 2
 134 -204 l 2
 134 -214 132 -216 118 -216 c 0
EndSplineSet
Fore
SplineSet
231 0 m 0
 231 53 189 100 131 100 c 0
 78 100 31 58 31 0 c 0
 31 -41 56 -79 95 -93 c 0
 110 -99 115 -95 115 -80 c 2
 115 8 l 2
 115 20 116 22 126 22 c 2
 136 22 l 2
 146 22 147 21 147 9 c 2
 147 -81 l 2
 147 -96 150 -100 165 -94 c 0
 203 -80 231 -45 231 0 c 0
136 -264 m 2
 124 -264 l 2
 116 -264 115 -263 115 -255 c 2
 115 -148 l 2
 115 -132 113 -130 102 -128 c 0
 42 -114 0 -60 0 0 c 0
 0 74 61 131 131 131 c 0
 205 131 262 70 262 0 c 0
 262 -62 220 -112 165 -126 c 0
 149 -131 147 -132 147 -149 c 2
 147 -253 l 2
 147 -263 146 -264 136 -264 c 2
EndSplineSet
EndChar

StartChar: uni008F
Encoding: 143 143 19
Width: 262
VWidth: 0
Flags: HW
HStem: -131 31<78.614 183.907> 228 32<11.0032 114.998 147.056 250.994> 350 20G<121 142>
VStem: 0 31<-52.9073 51.9086> 115 32<-21.9939 92.3262 127.317 227.963 260.119 369.997> 231 31<-52.386 53.4852>
CounterMasks: 1 1c
LayerCount: 3
Back
SplineSet
0 244 m 2
 0 256 l 2
 0 264 1 265 9 265 c 2
 248 265 l 2
 260 265 262 264 262 254 c 2
 262 244 l 2
 262 234 261 233 249 233 c 2
 11 233 l 2
 1 233 0 234 0 244 c 2
31 0 m 0
 31 -53 73 -100 131 -100 c 0
 184 -100 231 -58 231 0 c 0
 231 41 206 79 167 93 c 0
 152 99 147 95 147 80 c 2
 147 -8 l 2
 147 -20 146 -22 136 -22 c 2
 126 -22 l 2
 116 -22 115 -21 115 -9 c 2
 115 81 l 2
 115 96 112 100 97 94 c 0
 59 80 31 45 31 0 c 0
126 386 m 2
 138 386 l 2
 146 386 147 385 147 377 c 2
 147 148 l 1
 147 132 149 130 160 128 c 0
 220 114 262 60 262 0 c 0
 262 -74 201 -131 131 -131 c 0
 57 -131 0 -70 0 0 c 0
 0 62 42 112 97 126 c 0
 113 131 115 132 115 149 c 2
 115 375 l 2
 115 385 116 386 126 386 c 2
464 0 m 0
 464 -45 500 -85 549 -85 c 0
 594 -85 634 -49 634 0 c 0
 634 31 617 59 590 74 c 0
 586 76 582 78 578 78 c 0
 570 78 565 71 565 56 c 2
 565 -3 l 2
 565 -15 563 -15 549 -15 c 0
 535 -15 533 -13 533 -1 c 2
 533 55 l 2
 533 71 527 77 519 77 c 0
 514 77 507 75 500 70 c 0
 479 56 464 30 464 0 c 0
549 322 m 0
 563 322 565 319 565 307 c 2
 565 246 l 2
 565 233 573 223 587 223 c 2
 651 223 l 2
 663 223 664 218 664 207 c 0
 664 195 662 191 649 191 c 2
 587 191 l 2
 572 191 565 185 565 171 c 2
 565 143 l 2
 565 123 571 117 589 111 c 0
 635 94 667 50 667 0 c 0
 667 -67 612 -118 549 -118 c 0
 482 -118 431 -63 431 0 c 0
 431 51 463 92 505 109 c 0
 527 118 533 122 533 144 c 2
 533 168 l 2
 533 183 527 191 506 191 c 2
 446 191 l 2
 435 191 434 195 434 207 c 0
 434 221 437 223 449 223 c 2
 509 223 l 2
 529 223 533 230 533 246 c 2
 533 310 l 2
 533 321 537 322 549 322 c 0
EndSplineSet
Fore
SplineSet
126 386 m 6
 138 386 l 6
 146 386 147 385 147 377 c 6
 147 284 l 6
 147 267 151 265 164 265 c 6
 248 265 l 6
 260 265 262 264 262 254 c 6
 262 244 l 6
 262 234 261 233 249 233 c 6
 165 233 l 6
 148 233 147 230 147 217 c 6
 147 148 l 2
 147 132 149 130 160 128 c 0
 220 114 262 60 262 0 c 0
 262 -74 201 -131 131 -131 c 0
 57 -131 0 -70 0 0 c 0
 0 62 42 112 97 126 c 0
 113 131 115 132 115 149 c 2
 115 217 l 6
 115 231 113 233 96 233 c 6
 11 233 l 6
 1 233 0 234 0 244 c 6
 0 256 l 6
 0 264 1 265 9 265 c 6
 94 265 l 6
 112 265 115 268 115 281 c 6
 115 375 l 6
 115 385 116 386 126 386 c 6
31 0 m 0
 31 -53 73 -100 131 -100 c 0
 184 -100 231 -58 231 0 c 0
 231 41 206 79 167 93 c 0
 152 99 147 95 147 80 c 2
 147 -8 l 2
 147 -20 146 -22 136 -22 c 2
 126 -22 l 2
 116 -22 115 -21 115 -9 c 2
 115 81 l 2
 115 96 112 100 97 94 c 0
 59 80 31 45 31 0 c 0
EndSplineSet
EndChar

StartChar: uni0090
Encoding: 144 144 20
Width: 262
VWidth: 0
Flags: HMW
HStem: 100 31<78 183> -260 32<147 251 11 115> -370 20G<120 141>
VStem: 231 31<-52 53> 115 32<-92 22 -228 -127 -370 -260> 0 31<-53 52>
LayerCount: 3
Back
SplineSet
203 0 m 0
 203 45 167 85 118 85 c 0
 73 85 33 49 33 0 c 0
 33 -31 50 -59 77 -74 c 0
 81 -76 85 -78 89 -78 c 0
 97 -78 102 -71 102 -56 c 2
 102 3 l 2
 102 15 104 15 118 15 c 0
 132 15 134 13 134 1 c 2
 134 -55 l 2
 134 -71 140 -77 148 -77 c 0
 153 -77 160 -75 167 -70 c 0
 188 -56 203 -30 203 0 c 0
118 -322 m 0
 104 -322 102 -319 102 -307 c 2
 102 -246 l 2
 102 -233 94 -223 80 -223 c 2
 16 -223 l 2
 4 -223 3 -218 3 -207 c 0
 3 -195 5 -191 18 -191 c 2
 80 -191 l 2
 95 -191 102 -185 102 -171 c 2
 102 -143 l 2
 102 -123 96 -117 78 -111 c 0
 32 -94 0 -50 0 0 c 0
 0 67 55 118 118 118 c 0
 185 118 236 63 236 0 c 0
 236 -51 204 -92 162 -109 c 0
 140 -118 134 -122 134 -144 c 2
 134 -168 l 2
 134 -183 140 -191 161 -191 c 2
 221 -191 l 2
 232 -191 233 -195 233 -207 c 0
 233 -221 230 -223 218 -223 c 2
 158 -223 l 2
 138 -223 134 -230 134 -246 c 2
 134 -310 l 2
 134 -321 130 -322 118 -322 c 0
EndSplineSet
Fore
SplineSet
136 -386 m 2
 124 -386 l 2
 116 -386 115 -385 115 -377 c 2
 115 -284 l 2
 115 -267 111 -265 98 -265 c 2
 14 -265 l 2
 2 -265 0 -264 0 -254 c 2
 0 -244 l 2
 0 -234 1 -233 13 -233 c 2
 97 -233 l 2
 114 -233 115 -230 115 -217 c 2
 115 -148 l 2
 115 -132 113 -130 102 -128 c 0
 42 -114 0 -60 0 0 c 0
 0 74 61 131 131 131 c 0
 205 131 262 70 262 0 c 0
 262 -62 220 -112 165 -126 c 0
 149 -131 147 -132 147 -149 c 2
 147 -217 l 2
 147 -231 149 -233 166 -233 c 2
 251 -233 l 2
 261 -233 262 -234 262 -244 c 2
 262 -256 l 2
 262 -264 261 -265 253 -265 c 2
 168 -265 l 2
 150 -265 147 -268 147 -281 c 2
 147 -375 l 2
 147 -385 146 -386 136 -386 c 2
231 0 m 0
 231 53 189 100 131 100 c 0
 78 100 31 58 31 0 c 0
 31 -41 56 -79 95 -93 c 0
 110 -99 115 -95 115 -80 c 2
 115 8 l 2
 115 20 116 22 126 22 c 2
 136 22 l 2
 146 22 147 21 147 9 c 2
 147 -81 l 2
 147 -96 150 -100 165 -94 c 0
 203 -80 231 -45 231 0 c 0
EndSplineSet
EndChar

StartChar: cent
Encoding: 162 162 21
Width: 1000
VWidth: 0
Flags: H
LayerCount: 3
Back
SplineSet
24 129 m 7x80
 48 129 61 128 85 128 c 7
 257 128 235 132 289 132 c 7
 314 132 330 132 333 128 c 4
 337 125 337 108 337 78 c 7
 337 66 335 57 335 45 c 7
 335 17 354 19 384 13 c 5
 384 13 385 8 385 6 c 7
 385 4 384 -1 384 -1 c 13
 -47 -1 l 21
 -47 -1 -48 4 -48 6 c 7
 -48 8 -47 13 -47 13 c 5x40
 -30 15 2 11 2 32 c 7
 2 60 0 68 0 96 c 7
 0 123 5 129 24 129 c 7x80
EndSplineSet
EndChar

StartChar: currency
Encoding: 164 164 22
Width: 1000
VWidth: 0
Flags: HM
LayerCount: 3
Back
SplineSet
68 203 m 7
 104 203 136 183 136 137 c 7
 136 116 125 106 125 99 c 7
 125 89 129 87 140 87 c 7
 158 87 213 117 236 157 c 4
 248 178 252 203 271 203 c 7
 278 203 281 197 281 190 c 4
 281 185 279 178 278 173 c 4
 228 -19 211 -113 187 -226 c 4
 180 -258 176 -265 144 -265 c 7
 133 -265 122 -264 122 -249 c 7
 122 -229 147 -172 178 -71 c 4
 191 -30 210 36 218 67 c 4
 219 72 220 76 220 79 c 4
 220 85 217 88 213 88 c 4
 208 88 200 83 194 79 c 4
 174 65 142 44 88 44 c 7
 41 44 0 77 0 127 c 7
 0 168 23.8184 203 68 203 c 7
EndSplineSet
EndChar

StartChar: yen
Encoding: 165 165 23
Width: 1000
VWidth: 0
Flags: HM
LayerCount: 3
Back
SplineSet
188 -220 m 4
 181 -252 178 -256 146 -256 c 7
 135 -256 125 -255 125 -240 c 7
 125 -220 147 -172 178 -71 c 4
 191 -30 210 36 218 67 c 4
 219 72 220 76 220 79 c 4
 220 85 217 88 213 88 c 4
 208 88 200 83 194 79 c 4
 174 65 142 44 88 44 c 7
 41 44 0 77 0 127 c 7
 0 168 24 203 68 203 c 7
 104 203 136 183 136 137 c 7
 136 116 125 106 125 99 c 7
 125 89 129 87 140 87 c 7
 158 87 213 117 236 157 c 4
 248 178 273 282 281 313 c 4
 282 318 283 322 283 325 c 4
 283 331 280 334 276 334 c 4
 271 334 263 329 257 325 c 4
 237 311 205 290 151 290 c 7
 104 290 63 323 63 373 c 7
 63 414 87 449 131 449 c 7
 167 449 199 429 199 383 c 7
 199 362 188 352 188 345 c 7
 188 335 192 333 203 333 c 7
 221 333 276 363 299 403 c 4
 311 424 315 449 334 449 c 7
 341 449 344 443 344 436 c 4
 344 431 342 424 341 419 c 4
 258 101 235 3 188 -220 c 4
EndSplineSet
EndChar

StartChar: brokenbar
Encoding: 166 166 24
Width: 1000
VWidth: 0
Flags: HM
LayerCount: 3
Back
SplineSet
188 -466 m 4
 181 -498 178 -502 146 -502 c 7
 135 -502 125 -501 125 -486 c 7
 125 -466 147 -418 178 -317 c 4
 191 -276 210 -210 218 -179 c 4
 219 -174 220 -170 220 -167 c 4
 220 -161 217 -158 213 -158 c 4
 208 -158 200 -163 194 -167 c 4
 174 -181 142 -202 88 -202 c 7
 41 -202 0 -169 0 -119 c 7
 0 -78 24 -43 68 -43 c 7
 104 -43 136 -63 136 -109 c 7
 136 -130 125 -140 125 -147 c 7
 125 -157 129 -159 140 -159 c 7
 158 -159 213 -129 236 -89 c 4
 248 -68 273 36 281 67 c 4
 282 72 283 76 283 79 c 4
 283 85 280 88 276 88 c 4
 271 88 263 83 257 79 c 4
 237 65 205 44 151 44 c 7
 104 44 63 77 63 127 c 7
 63 168 87 203 131 203 c 7
 167 203 199 183 199 137 c 7
 199 116 188 106 188 99 c 7
 188 89 192 87 203 87 c 7
 221 87 276 117 299 157 c 4
 311 178 336 282 344 313 c 4
 345 318 346 322 346 325 c 4
 346 331 343 334 339 334 c 4
 334 334 326 329 320 325 c 4
 300 311 268 290 214 290 c 7
 167 290 126 323 126 373 c 7
 126 414 150 449 194 449 c 7
 230 449 262 429 262 383 c 7
 262 362 251 352 251 345 c 7
 251 335 255 333 266 333 c 7
 284 333 339 363 362 403 c 4
 374 424 378 449 397 449 c 7
 404 449 407 443 407 436 c 4
 407 431 405 424 404 419 c 4
 304 36 264 -108 188 -466 c 4
EndSplineSet
EndChar

StartChar: section
Encoding: 167 167 25
Width: 1000
VWidth: 0
Flags: HM
LayerCount: 3
Back
SplineSet
188 -712 m 4
 181 -744 178 -748 146 -748 c 7
 135 -748 125 -747 125 -732 c 7
 125 -712 147 -664 178 -563 c 4
 191 -522 210 -456 218 -425 c 4
 219 -420 220 -416 220 -413 c 4
 220 -407 217 -404 213 -404 c 4
 208 -404 200 -409 194 -413 c 4
 174 -427 142 -448 88 -448 c 7
 41 -448 0 -415 0 -365 c 7
 0 -324 24 -289 68 -289 c 7
 104 -289 136 -309 136 -355 c 7
 136 -376 125 -386 125 -393 c 7
 125 -403 129 -405 140 -405 c 7
 158 -405 213 -375 236 -335 c 4
 248 -314 273 -210 281 -179 c 4
 282 -174 283 -170 283 -167 c 4
 283 -161 280 -158 276 -158 c 4
 271 -158 263 -163 257 -167 c 4
 237 -181 205 -202 151 -202 c 7
 104 -202 63 -169 63 -119 c 7
 63 -78 87 -43 131 -43 c 7
 167 -43 199 -63 199 -109 c 7
 199 -130 188 -140 188 -147 c 7
 188 -157 192 -159 203 -159 c 7
 221 -159 276 -129 299 -89 c 4
 311 -68 336 36 344 67 c 4
 345 72 346 76 346 79 c 4
 346 85 343 88 339 88 c 4
 334 88 326 83 320 79 c 4
 300 65 268 44 214 44 c 7
 167 44 126 77 126 127 c 7
 126 168 150 203 194 203 c 7
 230 203 262 183 262 137 c 7
 262 116 251 106 251 99 c 7
 251 89 255 87 266 87 c 7
 284 87 339 117 362 157 c 4
 374 178 399 282 407 313 c 4
 408 318 409 322 409 325 c 4
 409 331 406 334 402 334 c 4
 397 334 389 329 383 325 c 4
 363 311 331 290 277 290 c 7
 230 290 189 323 189 373 c 7
 189 414 213 449 257 449 c 7
 293 449 325 429 325 383 c 7
 325 362 314 352 314 345 c 7
 314 335 318 333 329 333 c 7
 347 333 402 363 425 403 c 4
 437 424 441 449 460 449 c 7
 467 449 470 443 470 436 c 4
 470 431 468 424 467 419 c 4
 359 7 300 -184 188 -712 c 4
EndSplineSet
EndChar

StartChar: Egrave
Encoding: 200 200 26
Width: 634
VWidth: 0
Flags: HMW
HStem: -36 110<165.243 253.757> 211 103<-2.0653 422.474>
VStem: -36.5 34<-51.9968 210.247> 154.5 110<-25.257 63.257> 422.5 34<-52 210.736>
LayerCount: 3
Back
SplineSet
259 19 m 4
 259 51 284 76 316 76 c 4
 349 76 374 51 374 19 c 4
 374 -13 349 -38 316 -38 c 4
 284 -38 259 -13 259 19 c 4
616 -52 m 7
 600 -52 599 -52 599 -40 c 6
 599 188 l 6
 599 209 590 211 575 211 c 14
 62 211 l 6
 41 211 34 206 34 180 c 6
 34 -39 l 6
 34 -51 33 -52 16 -52 c 7
 1 -52 0 -51 0 -39 c 6
 0 300 l 6
 0 315 2 319 19 319 c 14
 617 319 l 6
 628 319 633 314 633 298 c 6
 633 -40 l 22
 633 -52 631 -52 616 -52 c 7
EndSplineSet
Fore
SplineSet
248 19 m 0
 248 57 278 88 316 88 c 0
 354 88 386 57 386 19 c 0
 386 -19 354 -50 316 -50 c 0
 278 -50 248 -19 248 19 c 0
28 -51 m 5
 0 -51 l 5
 0 360 l 5
 634 360 l 5
 634 -51 l 5
 606 -51 l 5
 606 199 l 6
 606 208 595 215 590 215 c 6
 40 215 l 6
 36 215 28 208 28 202 c 6
 28 -51 l 5
EndSplineSet
EndChar

StartChar: Eacute
Encoding: 201 201 27
Width: 634
VWidth: 0
Flags: HMW
HStem: -74 110<380.243 468.757> -314 103<211.526 636.065>
VStem: 636.5 34<-210.247 51.9968> 369.5 110<-63.257 25.257> 177.5 34<-210.736 52>
LayerCount: 3
Back
SplineSet
367 -19 m 0
 367 -47 345 -69 317 -69 c 0
 289 -69 267 -47 267 -19 c 0
 267 9 289 31 317 31 c 0
 345 31 367 9 367 -19 c 0
17 52 m 7
 31 52 35 51 35 38 c 4
 35 -24 34 -44 34 -96 c 30
 34 -197 l 6
 34 -229 45 -231 60 -231 c 14
 560 -231 l 6
 598 -231 599 -224 599 -193 c 6
 599 -84 l 22
 599 -14 598 17 598 37 c 7
 598 50 599 52 617 52 c 7
 633 52 633 49 633 35 c 7
 633 -32 631 -74 631 -141 c 7
 631 -245 633 -238 633 -293 c 7
 633 -318 626 -319 608 -319 c 14
 23 -319 l 6
 3 -319 0 -304 0 -289 c 31
 0 -232 2 -245 2 -143 c 7
 2 -76 0 -31 0 40 c 31
 0 49 5 52 17 52 c 7
EndSplineSet
Fore
SplineSet
386 -19 m 0
 386 -57 356 -88 318 -88 c 0
 280 -88 248 -57 248 -19 c 0
 248 19 280 50 318 50 c 0
 356 50 386 19 386 -19 c 0
606 51 m 1
 634 51 l 1
 634 -360 l 1
 0 -360 l 1
 0 51 l 1
 28 51 l 1
 28 -199 l 2
 28 -208 39 -215 44 -215 c 2
 594 -215 l 2
 598 -215 606 -208 606 -202 c 2
 606 51 l 1
EndSplineSet
EndChar

StartChar: agrave
Encoding: 224 224 28
Width: 45
VWidth: 0
Flags: HMW
LayerCount: 3
Fore
SplineSet
0 185 m 1
 45 185 l 1
 45 -145 l 1
 0 -145 l 1
 0 185 l 1
EndSplineSet
EndChar

StartChar: eth
Encoding: 240 240 29
Width: 532
VWidth: 0
Flags: HMW
HStem: -15 29<-90.5915 -1.1388 31.649 158.572 187.984 316.279 347.586 439.978> 246 20G<167 180.5>
VStem: 158 30<-265.961 -173.331 -142.051 -15.1273 14.4375 142.531 173.256 265.501>
LayerCount: 3
Fore
SplineSet
281 113 m 0
 281 79 281 51 281 44 c 0
 281 25 290 14 308 14 c 2
 374 14 l 2
 399 14 411 26 403 48 c 0
 389 88 358 123 315 138 c 0
 293 146 281 137 281 113 c 0
379 -16 m 0
 343 -16 311 -16 302 -16 c 0
 288 -16 280 -27 280 -41 c 2
 280 -108 l 2
 280 -134 291 -144 315 -137 c 0
 356 -122 389 -89 404 -48 c 0
 410 -29 401 -17 379 -16 c 0
433 -60 m 0
 414 -112 371 -153 318 -169 c 0
 318 -169 l 0
 291 -176 281 -188 281 -213 c 2
 281 -242 l 2
 281 -261 279 -266 267 -266 c 0
 255 -266 249 -263 249 -240 c 2
 249 -203 l 2
 249 -183 235 -175 213 -169 c 0
 157 -152 113 -108 97 -51 c 0
 91 -31 81 -17 58 -17 c 2
 37 -17 l 2
 1 -17 0 -14 0 -2 c 2
 0 0 l 2
 0 12 8 16 31 16 c 2
 61 16 l 2
 81 16 90 29 95 49 c 0
 110 113 154 155 212 170 c 0
 239 177 249 189 249 214 c 0
 249 222 249 228 249 230 c 0
 249 266 255 266 263 266 c 2
 266 266 l 2
 279 266 282 262 282 244 c 0
 282 240 282 228 282 211 c 0
 282 187 291 177 317 170 c 0
 378 153 421 108 436 49 c 0
 442 29 451 15 472 15 c 2
 508 15 l 2
 527 15 532 12 532 0 c 0
 532 -14 529 -18 506 -18 c 0
 498 -18 486 -18 472 -17 c 0
 447 -17 441 -35 433 -60 c 0
EndSplineSet
EndChar

StartChar: ntilde
Encoding: 241 241 30
Width: 532
VWidth: 0
Flags: HMW
HStem: -15 29<-90.5915 -1.1388 31.649 158.572 187.984 316.279 347.586 439.978> 246 20G<167 180.5>
VStem: 158 30<-265.961 -173.331 -142.051 -15.1273 14.4375 142.531 173.256 265.501>
LayerCount: 3
Fore
SplineSet
433 -60 m 0
 414 -112 371 -153 318 -169 c 0
 318 -169 l 0
 291 -176 281 -188 281 -213 c 2
 281 -242 l 2
 281 -261 279 -266 267 -266 c 0
 255 -266 249 -263 249 -240 c 2
 249 -203 l 2
 249 -183 235 -175 213 -169 c 0
 157 -152 113 -108 97 -51 c 0
 91 -31 81 -17 58 -17 c 2
 37 -17 l 2
 1 -17 0 -14 0 -2 c 2
 0 0 l 2
 0 12 8 16 31 16 c 2
 61 16 l 2
 81 16 90 29 95 49 c 0
 110 113 154 155 212 170 c 0
 239 177 249 189 249 214 c 0
 249 222 249 228 249 230 c 0
 249 266 255 266 263 266 c 2
 266 266 l 2
 279 266 282 262 282 244 c 0
 282 240 282 228 282 211 c 0
 282 187 291 177 317 170 c 0
 378 153 421 108 436 49 c 0
 442 29 451 15 472 15 c 2
 508 15 l 2
 527 15 532 12 532 0 c 0
 532 -14 529 -18 506 -18 c 0
 498 -18 486 -18 472 -17 c 0
 447 -17 441 -35 433 -60 c 0
149 16 m 0
 185 16 216 15 223 15 c 0
 240 15 250 26 250 38 c 0
 250 44 250 74 250 109 c 0
 250 134 239 146 215 138 c 0
 172 123 139 89 126 44 c 0
 121 27 128 16 149 16 c 0
128 -46 m 0
 142 -89 176 -123 218 -138 c 0
 239 -145 249 -133 249 -109 c 0
 249 -77 250 -50 250 -42 c 0
 250 -25 238 -16 217 -16 c 0
 216 -16 188 -17 154 -17 c 0
 132 -17 121 -28 128 -46 c 0
EndSplineSet
EndChar

StartChar: edieresis
Encoding: 235 235 31
Width: 532
VWidth: 0
Flags: HW
HStem: -15 29<-90.5915 -1.1388 31.649 158.572 187.984 316.279 347.586 439.978> 246 20G<167 180.5>
VStem: 158 30<-265.961 -173.331 -142.051 -15.1273 14.4375 142.531 173.256 265.501>
LayerCount: 3
Fore
SplineSet
281 113 m 0
 281 79 281 51 281 44 c 0
 281 25 290 14 308 14 c 2
 374 14 l 2
 399 14 411 26 403 48 c 0
 389 88 358 123 315 138 c 0
 293 146 281 137 281 113 c 0
379 -16 m 0
 343 -16 311 -16 302 -16 c 0
 288 -16 280 -27 280 -41 c 2
 280 -108 l 2
 280 -134 291 -144 315 -137 c 0
 356 -122 389 -89 404 -48 c 0
 410 -29 401 -17 379 -16 c 0
433 -60 m 0
 414 -112 371 -153 318 -169 c 0
 318 -169 l 0
 291 -176 281 -188 281 -213 c 2
 281 -242 l 2
 281 -261 279 -266 267 -266 c 0
 255 -266 249 -263 249 -240 c 2
 249 -203 l 2
 249 -183 235 -175 213 -169 c 0
 157 -152 113 -108 97 -51 c 0
 91 -31 81 -17 58 -17 c 2
 37 -17 l 2
 1 -17 0 -14 0 -2 c 2
 0 0 l 2
 0 12 8 16 31 16 c 2
 61 16 l 2
 81 16 90 29 95 49 c 0
 110 113 154 155 212 170 c 0
 239 177 249 189 249 214 c 0
 249 222 249 228 249 230 c 0
 249 266 255 266 263 266 c 2
 266 266 l 2
 279 266 282 262 282 244 c 0
 282 240 282 228 282 211 c 0
 282 187 291 177 317 170 c 0
 378 153 421 108 436 49 c 0
 442 29 451 15 472 15 c 2
 508 15 l 2
 527 15 532 12 532 0 c 0
 532 -14 529 -18 506 -18 c 0
 498 -18 486 -18 472 -17 c 0
 447 -17 441 -35 433 -60 c 0
149 16 m 0
 185 16 216 15 223 15 c 0
 240 15 250 26 250 38 c 0
 250 44 250 74 250 109 c 0
 250 134 239 146 215 138 c 0
 172 123 139 89 126 44 c 0
 121 27 128 16 149 16 c 0
128 -46 m 0
 142 -89 176 -123 218 -138 c 0
 239 -145 249 -133 249 -109 c 0
 249 -77 250 -50 250 -42 c 0
 250 -25 238 -16 217 -16 c 0
 216 -16 188 -17 154 -17 c 0
 132 -17 121 -28 128 -46 c 0
EndSplineSet
EndChar

StartChar: igrave
Encoding: 236 236 32
Width: 532
VWidth: 0
Flags: W
HStem: -224 31<0.889893 87.6013 126.513 247.94 283.136 404.75 444.941 531.996> 193 31<0.889893 87.6013 126.513 247.94 283.136 404.75 444.941 531.996>
VStem: 249 32.0915<-474.735 -387.831 -348.934 -225.544 -190.568 -70.2343 -31.0268 31.0268 70.2343 190.568 225.544 348.934 387.831 474.735>
LayerCount: 3
Fore
SplineSet
128 163 m 1
 142 120 176 86 218 71 c 0
 239 64 249 76 249 100 c 0
 249 132 250 159 250 167 c 0
 250 184 238 193 217 193 c 0
 216 193 188 192 154 192 c 0
 132 192 121 181 128 163 c 1
149 225 m 0
 185 225 216 224 223 224 c 0
 240 224 250 235 250 247 c 0
 250 253 250 283 250 318 c 0
 250 343 239 355 215 347 c 0
 172 332 139.108 297.968 126 253 c 0
 121.041 235.988 128 225 149 225 c 0
433 149 m 1
 414 97 371 56 318 40 c 1
 292.482 33.3841 281.092 21.2256 281.092 -0.000427494 c 24
 281.092 -21.2266 292.482 -33.3842 318 -40 c 1
 371 -56 414 -97 433 -149 c 1
 441 -174 447 -192 472 -192 c 1
 486 -191 498 -191 506 -191 c 0
 529 -191 532 -195 532 -209 c 0
 532 -221 527 -224 508 -224 c 2
 472 -224 l 2
 451 -224 442 -238 436 -258 c 0
 421 -317 378 -362 317 -379 c 0
 291.063 -386.228 282 -396 282 -420 c 0
 282 -437 282 -449 282 -453 c 0
 282 -471 279 -475 266 -475 c 2
 263 -475 l 2
 255 -475 249 -475 249 -439 c 0
 249 -437 249 -431 249 -423 c 0
 249 -398 239 -386 212 -379 c 0
 154.009 -363.965 110 -322 95 -258 c 0
 90 -238 81 -225 61 -225 c 2
 31 -225 l 2
 8 -225 0 -221 0 -209 c 2
 0 -207 l 2
 0 -195 1 -192 37 -192 c 2
 58 -192 l 2
 81 -192 91 -178 97 -158 c 0
 113 -101 157 -57 213 -40 c 0
 235 -34 249 -26 249 -6 c 2
 249 6 l 2
 249 26 235 34 213 40 c 0
 157 57 113 101 97 158 c 0
 91 178 81 192 58 192 c 2
 37 192 l 2
 1 192 0 195 0 207 c 2
 0 209 l 2
 0 221 8 225 31 225 c 2
 61 225 l 2
 81 225 90 238 95 258 c 0
 110 322 154.009 363.965 212 379 c 0
 239 386 249 398 249 423 c 0
 249 431 249 437 249 439 c 0
 249 475 255 475 263 475 c 2
 266 475 l 2
 279 475 282 471 282 453 c 0
 282 449 282 437 282 420 c 0
 282 396 291.063 386.228 317 379 c 0
 378 362 421 317 436 258 c 0
 442 238 451 224 472 224 c 2
 508 224 l 2
 527 224 532 221 532 209 c 0
 532 195 529 191 506 191 c 0
 498 191 486 191 472 192 c 1
 447 192 441 174 433 149 c 1
379 193 m 1
 343 193 311 193 302 193 c 0
 288 193 280 182 280 168 c 2
 280 101 l 2
 280 75 291 65 315 72 c 1
 356 87 389 120 404 161 c 0
 410 180 401 192 379 193 c 1
281 322 m 0
 281 288 281 260 281 253 c 0
 281 234 290 223 308 223 c 2
 374 223 l 2
 399 223 411 235 403 257 c 0
 389 297 358 332 315 347 c 0
 293 355 281 346 281 322 c 0
128 -163 m 1
 121 -181 132 -192 154 -192 c 0
 188 -192 216 -193 217 -193 c 0
 238 -193 250 -184 250 -167 c 0
 250 -159 249 -132 249 -100 c 0
 249 -76 239 -64 218 -71 c 0
 176 -86 142 -120 128 -163 c 1
149 -225 m 0
 128 -225 121.041 -235.988 126 -253 c 0
 139.108 -297.968 172 -332 215 -347 c 0
 239 -355 250 -343 250 -318 c 0
 250 -283 250 -253 250 -247 c 0
 250 -235 240 -224 223 -224 c 0
 216 -224 185 -225 149 -225 c 0
379 -193 m 1
 401 -192 410 -180 404 -161 c 0
 389 -120 356 -87 315 -72 c 1
 291 -65 280 -75 280 -101 c 2
 280 -168 l 2
 280 -182 288 -193 302 -193 c 0
 311 -193 343 -193 379 -193 c 1
281 -322 m 0
 281 -346 293 -355 315 -347 c 0
 358 -332 389 -297 403 -257 c 0
 411 -235 399 -223 374 -223 c 2
 308 -223 l 2
 290 -223 281 -234 281 -253 c 0
 281 -260 281 -288 281 -322 c 0
EndSplineSet
EndChar

StartChar: lcommaaccent
Encoding: 316 316 33
Width: 0
VWidth: 0
Flags: H
LayerCount: 3
Back
SplineSet
254 -88 m 4xb0
 247 -88 236 -77 236 -68 c 4
 236 -62 240 -56 247 -46 c 6
 355 96 l 6
 369 113 379 122 390 122 c 4
 399 122 408 115 419 101 c 6
 464 41 l 6
 475 27 493 8 505 8 c 4xb0
 514 8 520 17 520 42 c 4
 520 91 519 115 519 175 c 4
 519 212 520 212 537 212 c 4
 552 212 554 210 554 167 c 4
 554 135 553 121 553 92 c 4
 553 81 555 68 563 68 c 4
 567 68 574 72 582 83 c 6
 594 99 l 6
 605 114 616 121 626 121 c 4
 636 121 645 115 654 102 c 6
 703 38 l 6
 717 20 728 11 739 11 c 4
 751 11 763 22 780 44 c 6
 805 77 l 6
 811 84 815 87 820 87 c 4
 827 87 837 75 837 67 c 4
 837 61 832 54 823 41 c 6
 722 -92 l 6
 707 -112 696 -121 685 -121 c 4
 673 -121 662 -110 647 -90 c 6
 607 -38 l 6
 592 -19 579 -6 569 -6 c 4x70
 558 -6 552 -19 552 -50 c 4
 553 -102 554 -147 554 -188 c 4
 554 -207 553 -212 538 -212 c 4
 520 -212 519 -209 519 -186 c 6
 519 -92 l 6
 519 -78 517 -67 510 -67 c 4
 506 -67 500 -72 492 -82 c 6
 482 -96 l 5
 469 -112 458 -119 448 -119 c 4
 436 -119 425 -109 412 -93 c 6
 361 -26 l 6
 349 -10 341 -3 333 -3 c 4
 324 -3 316 -14 304 -30 c 6
 271 -74 l 6
 263 -84 258 -88 254 -88 c 4xb0
EndSplineSet
EndChar

StartChar: Ohungarumlaut
Encoding: 336 336 34
Width: 1000
VWidth: 0
Flags: H
LayerCount: 3
Back
SplineSet
-2 0 m 7
 -2 108 80 185 98 185 c 7
 105 185 106 183 106 178 c 7
 106 162 32 115 32 0 c 1031
95 185 m 0
 108 184 110 181 109 179 c 0
 63 113 32 75 32 0 c 0
 32 -76 63 -114 109 -179 c 0
 112 -183 101 -185 95 -185 c 0
 89 -185 77 -185 75 -181 c 0
 29 -116 -2 -77 -2 0 c 0
 -2 76 29 115 75 181 c 0
 76 183 83 186 95 185 c 0
EndSplineSet
EndChar

StartChar: OE
Encoding: 338 338 35
Width: 1000
VWidth: 0
Flags: H
LayerCount: 3
Back
SplineSet
0 6 m 3
 0 125 91 264 117 264 c 3
 123 264 131 262 131 253 c 3
 131 238 45 170 45 -9 c 3
 45 -182 131 -218 131 -245 c 7
 131 -252 129 -264 116 -264 c 7
 104 -264 0 -152 0 6 c 3
EndSplineSet
EndChar

StartChar: Racute
Encoding: 340 340 36
Width: 1000
VWidth: 0
Flags: H
LayerCount: 3
Back
SplineSet
0 9 m 7
 0 210 149 391 183 391 c 7
 192 391 202 387 202 379 c 7
 202 349 58 292 58 0 c 7
 58 -273 196 -349 196 -376 c 7
 196 -386 185 -391 175 -391 c 7
 158 -391 0 -226 0 9 c 7
EndSplineSet
EndChar

StartChar: q
Encoding: 113 113 37
Width: 1000
VWidth: 0
Flags: HM
LayerCount: 3
Back
SplineSet
174 372 m 5
 352 -9 l 5
 245.896 -9 l 5
 139.833 218.616 l 5
 28.9971 -18.3359 l 5
 -2.00293 -4.33594 l 5
 174 372 l 5
174 372 m 1
 352 -9 l 1
 265 -50 l 1
 87 332 l 1
 174 372 l 1
205 358 m 1
 25 -27 l 1
 -6 -13 l 1
 174 372 l 1
 205 358 l 1
EndSplineSet
EndChar

StartChar: space
Encoding: 32 32 38
Width: 200
Flags: W
LayerCount: 3
Back
SplineSet
150 54 m 6xf4
 150 70 148 76 130 76 c 6
 42 76 l 6
 25 76 25 82 25 87 c 4
 25 92 26 97 36 116 c 4
 63 166 81 197 100 254 c 4
 115 298 114 300 136 300 c 6
 185 300 l 6
 197 300 202 295 202 287 c 4xf8
 202 271 189 249 134 195 c 4
 88 149 70 126 70 114 c 4
 70 109 70 104 87 104 c 6
 124 104 l 6
 140 104 148 107 149 115 c 4
 149 121 150 145 151 155 c 4
 152 166 154 176 162 181 c 4
 197 204 199 209 209 209 c 4
 215 209 220 209 220 197 c 4
 220 182 218 165 218 116 c 4
 218 106 222 105 230 105 c 6
 257 105 l 6
 273 105 275 100 275 91 c 6
 275 89 l 6
 275 82 273 76 250 76 c 6
 239 76 l 6
 223 76 218 74 218 49 c 6
 218 44 l 6
 218 22 221 26 248 24 c 4
 258 23 258 17 258 12 c 4
 258 0 254 0 238 0 c 4
 219 0 194 0 183 0 c 4
 165 0 152 0 134 0 c 4
 114 0 112 -1 112 13 c 4
 112 17 113 22 123 23 c 4
 148 25 150 20 150 44 c 6
 150 54 l 6xf4
EndSplineSet
EndChar

StartChar: u
Encoding: 117 117 39
Width: 1000
VWidth: 0
Flags: HM
LayerCount: 3
Back
SplineSet
30 -100 m 4
 230 -100 l 4
 230 100 l 4
 30 100 l 4
 30 -100 l 4
260 -130 m 4
 0 -130 l 4
 0 130 l 4
 260 130 l 4
 260 -130 l 4
EndSplineSet
EndChar

StartChar: v
Encoding: 118 118 40
Width: 1000
VWidth: 0
Flags: HM
LayerCount: 3
Back
SplineSet
214 427 m 31xc8
 214 411 222 404 231 391 c 4
 276 330 321 311 358 262 c 4
 360 259 363 257 366 257 c 4
 373 257 379 265 379 277 c 7
 379 347 304 448 232 448 c 7
 218 448 214 438 214 427 c 31xc8
414 283 m 7
 414 237 398 236 398 199 c 7
 398 169 424 149 424 68 c 7
 424 4 411 -31 404 -58 c 4
 401 -70 391 -80 381 -80 c 7
 372 -80 372 -68 372 -57 c 7
 372 -30 390 -21 390 61 c 7
 390 149 306 279 234 279 c 7
 212 279 212 273 212 227 c 6
 212 178 l 6xd4
 212 118 213 96 213 32 c 7
 213 -41 148 -98 68 -98 c 7
 17 -98 0 -55 0 -30 c 7xe0
 0 17 41 96 145 96 c 7
 153 96 157 94 164 94 c 7
 178 94 179 105 179 146 c 6
 179 348 l 6xd0
 179 451 177 531 177 612 c 7
 177 622 181 642 191 642 c 7
 217 642 211 611 214 596 c 4
 218 578 222 573 231 560 c 4
 297 465 414 439 414 283 c 7
EndSplineSet
EndChar

StartChar: w
Encoding: 119 119 41
Width: 1000
VWidth: 0
Flags: HM
LayerCount: 3
Back
SplineSet
64 57 m 7
 90 57 110 33 110 -4 c 7
 110 -36 87 -59 49 -59 c 7
 25 -59 0 -32 0 0 c 7
 0 34 30 57 64 57 c 7
34 -450 m 0xec
 34 -461 38 -471 52 -471 c 0
 124 -471 179 -379 179 -309 c 0
 179 -297 173 -289 166 -289 c 0
 163 -289 160 -291 158 -294 c 0
 121 -343 96 -353 51 -414 c 0
 42 -427 34 -434 34 -450 c 0xec
187 -118 m 0xe2
 187 -100 185 -65 170 -65 c 0
 166 -65 161 -68 154 -72 c 0
 140 -82 126 -88 116 -91 c 0
 102 -95 86 -98 68 -98 c 0
 60 -98 56 -96 49 -96 c 0
 35 -96 33 -117 33 -236 c 0
 33 -240 33 -243 33 -247 c 0
 33 -285 34 -302 54 -302 c 0
 126 -302 187 -206 187 -118 c 0xe2
207 -49 m 0
 215 -72 222 -97 222 -124 c 0xe2
 222 -193 198 -205 198 -235 c 0
 198 -272 213 -277 213 -323 c 0
 213 -450 117 -488 51 -583 c 0
 42 -596 38 -601 34 -619 c 0
 31 -634 37 -665 11 -665 c 0
 1 -665 -3 -645 -3 -635 c 0
 -3 -554 0 -474 0 -371 c 0xec
 0 -276 -1 -223 -1 -157 c 0
 -1 -123 -1 -84 0 -34 c 0xf0
 0 39 65 96 145 96 c 0
 196 96 213 53 213 28 c 0xe4
 213 18 211 6 208 -6 c 0
 204 -17 202 -22 202 -28 c 0xf0
 202 -34 204 -39 207 -49 c 0
EndSplineSet
EndChar

StartChar: uni0091
Encoding: 145 145 42
Width: 232
VWidth: 0
Flags: HMW
HStem: -131 31<78.614 183.907> 100 31<78.0927 183.386>
VStem: 0 31<-52.9073 52.386> 231 31<-52.386 52.9073>
LayerCount: 3
Back
SplineSet
118 -118 m 0
 50 -118 0 -63 0 0 c 0
 0 67 54 118 118 118 c 0
 185 118 236 63 236 0 c 0
 236 -67 181 -118 118 -118 c 0
175 16 m 2
 195 16 200 28 192 42 c 0
 178 67 151 85 118 85 c 0
 85 85 58 68 43 40 c 0
 35 25 38 16 60 16 c 2
 175 16 l 2
61 -16 m 2
 40 -16 36 -28 44 -42 c 0
 58 -67 84 -85 118 -85 c 0
 150 -85 178 -68 193 -40 c 0
 201 -25 198 -16 176 -16 c 2
 61 -16 l 2
EndSplineSet
Fore
SplineSet
0 0 m 0
 0 74 61 131 131 131 c 0
 205 131 262 70 262 0 c 0
 262 -74 201 -131 131 -131 c 0
 57 -131 0 -70 0 0 c 0
37 -33 m 0
 50 -71 86 -100 131 -100 c 0
 171 -100 208 -76 223 -39 c 0
 231 -21 227 -16 206 -16 c 2
 52 -16 l 2
 33 -16 32 -21 37 -33 c 0
49 16 m 2
 206 16 l 2
 227 16 231 19 224 37 c 0
 210 73 175 100 131 100 c 0
 90 100 53 75 38 37 c 0
 32 22 35 16 49 16 c 2
EndSplineSet
EndChar

StartChar: cedilla
Encoding: 184 184 43
Width: 0
VWidth: 0
Flags: HW
LayerCount: 3
Fore
SplineSet
-170 7 m 1
 170 107 l 1
 170 -7 l 1
 -170 -107 l 1
 -170 7 l 1
EndSplineSet
EndChar

StartChar: uni00B9
Encoding: 185 185 44
Width: 0
VWidth: 0
Flags: HW
CounterMasks: 1 38
LayerCount: 3
Fore
SplineSet
-170 105 m 1
 170 205 l 1
 170 91 l 1
 -170 -9 l 1
 -170 105 l 1
-170 -91 m 1
 170 9 l 1
 170 -105 l 1
 -170 -205 l 1
 -170 -91 l 1
EndSplineSet
EndChar

StartChar: Agrave
Encoding: 192 192 45
Width: 706
VWidth: 0
Flags: HMW
HStem: -50 138<303.092 402.908> 241 142<240.808 465.192>
VStem: 0 29<-51 47.1094> 284 138<-30.9079 68.9079> 677 29<-51 47.1094>
LayerCount: 3
Back
SplineSet
353 280 m 0
 184 280 57 185 31 -23 c 0
 29 -42 21 -52 14 -52 c 0
 7 -52 0 -43 0 -25 c 0
 0 -22 1 -19 1 -15 c 0
 22 177 150 368 353 368 c 3
 555 368 684 177 705 -15 c 0
 705 -19 706 -22 706 -25 c 0
 706 -43 699 -52 692 -52 c 0
 685 -52 677 -42 675 -23 c 0
 649 185 521 280 353 280 c 0
303 19 m 0
 303 47 325 69 353 69 c 0
 381 69 403 47 403 19 c 0
 403 -9 381 -31 353 -31 c 0
 325 -31 303 -9 303 19 c 0
EndSplineSet
Fore
SplineSet
677 -50 m 4
 677 90 603 242 353 242 c 4
 103 242 29 90 29 -50 c 4
 0 -50 l 4
 0 190 143 384 353 384 c 4
 563 384 706 190 706 -50 c 4
 677 -50 l 4
284 19 m 0
 284 57 315 88 353 88 c 0
 391 88 422 57 422 19 c 0
 422 -19 391 -50 353 -50 c 0
 315 -50 284 -19 284 19 c 0
EndSplineSet
EndChar

StartChar: Aacute
Encoding: 193 193 46
Width: 706
VWidth: 0
Flags: HMW
HStem: -88 138<303 403> -383 142<241 465>
VStem: 677 29<-47 51> 284 138<-69 31> 0 29<-47 51>
LayerCount: 3
Back
SplineSet
353 -280 m 0
 522 -280 649 -185 675 23 c 0
 677 42 685 52 692 52 c 0
 699 52 706 43 706 25 c 0
 706 22 705 19 705 15 c 0
 684 -177 556 -368 353 -368 c 3
 151 -368 22 -177 1 15 c 0
 1 19 0 22 0 25 c 0
 0 43 7 52 14 52 c 0
 21 52 29 42 31 23 c 0
 57 -185 185 -280 353 -280 c 0
403 -19 m 0
 403 -47 381 -69 353 -69 c 0
 325 -69 303 -47 303 -19 c 0
 303 9 325 31 353 31 c 0
 381 31 403 9 403 -19 c 0
EndSplineSet
Fore
SplineSet
29 50 m 4
 29 -90 103 -242 353 -242 c 4
 603 -242 677 -90 677 50 c 4
 706 50 l 4
 706 -190 563 -384 353 -384 c 4
 143 -384 0 -190 0 50 c 4
 29 50 l 4
422 -19 m 0
 422 -57 391 -88 353 -88 c 0
 315 -88 284 -57 284 -19 c 0
 284 19 315 50 353 50 c 0
 391 50 422 19 422 -19 c 0
EndSplineSet
EndChar

StartChar: Acircumflex
Encoding: 194 194 47
Width: 1059
VWidth: 0
Flags: HMW
HStem: -50 138<482.592 582.408> 241 142<420.308 644.692>
VStem: 179.5 29<-51 47.1094> 463.5 138<-30.9079 68.9079> 856.5 29<-51 47.1094>
LayerCount: 3
Back
SplineSet
530 346 m 4
 270 346 84 211 32 -34 c 4
 26 -63 22 -78 12 -78 c 4
 2 -78 0 -64 0 -38 c 4
 0 -33 1 -28 2 -22 c 4
 26 206 225 482 530 482 c 7
 832 482 1033 206 1058 -22 c 4
 1058 -28 1059 -33 1059 -38 c 4
 1059 -64 1058 -78 1047 -78 c 4
 1036 -78 1034 -63 1028 -34 c 4
 975 210 790 346 530 346 c 4
455 28 m 4
 455 70 488 103 530 103 c 4
 571 103 604 70 604 28 c 4
 604 -13 571 -46 530 -46 c 4
 488 -46 455 -13 455 28 c 4
EndSplineSet
Fore
SplineSet
1031 -50 m 0
 1017 109 880 329 530 329 c 0
 180 329 43 109 29 -50 c 0
 0 -50 l 0
 26 249 240 491 530 491 c 0
 820 491 1033 249 1059 -50 c 0
 1031 -50 l 0
453 26 m 0
 453 68 488 102 530 102 c 0
 572 102 605 68 605 26 c 0
 605 -16 572 -50 530 -50 c 0
 488 -50 453 -16 453 26 c 0
EndSplineSet
EndChar

StartChar: Atilde
Encoding: 195 195 48
Width: 1059
VWidth: 0
Flags: HMW
HStem: -88 138<477 576> -383 142<414 639>
VStem: 850 29<-47 51> 457 138<-69 31> 174 29<-47 51>
LayerCount: 3
Back
SplineSet
529 -370 m 4
 783 -370 974 -215 1027 34 c 4
 1033 63 1037 78 1047 78 c 4
 1057 78 1059 64 1059 38 c 4
 1059 33 1058 28 1057 22 c 4
 1033 -206 834 -482 529 -482 c 7
 227 -482 26 -206 1 22 c 4
 1 28 0 33 0 38 c 4
 0 64 1 78 12 78 c 4
 23 78 26 63 31 34 c 4
 85 -215 277 -370 529 -370 c 4
597 -28 m 4
 597 -66 567 -96 529 -96 c 4
 492 -96 462 -66 462 -28 c 4
 462 9 492 39 529 39 c 4
 567 39 597 9 597 -28 c 4
EndSplineSet
Fore
SplineSet
28 50 m 0
 42 -109 179 -329 529 -329 c 0
 879 -329 1016 -109 1030 50 c 0
 1059 50 l 0
 1033 -249 819 -491 529 -491 c 0
 239 -491 26 -249 0 50 c 0
 28 50 l 0
606 -26 m 0
 606 -68 571 -102 529 -102 c 0
 487 -102 454 -68 454 -26 c 0
 454 16 487 50 529 50 c 0
 571 50 606 16 606 -26 c 0
EndSplineSet
EndChar

StartChar: Adieresis
Encoding: 196 196 49
Width: 535
VWidth: 0
Flags: HMW
HStem: -50 138<303.092 402.908> 241 142<240.808 465.192>
VStem: 0 29<-51 47.1094> 284 138<-30.9079 68.9079> 677 29<-51 47.1094>
LayerCount: 3
Back
SplineSet
214 14 m 4
 214 43 236 66 265 66 c 4
 294 66 316 43 316 14 c 4
 316 -15 294 -36 265 -36 c 4
 236 -36 214 -15 214 14 c 4
265 194 m 4
 138 194 46 132 27 -17 c 4
 25 -31 18 -39 12 -39 c 4
 5 -39 0 -33 0 -19 c 4
 0 -17 1 -14 1 -11 c 4
 17 138 113 286 265 286 c 7
 417 286 513 138 529 -11 c 4
 529 -14 530 -17 530 -19 c 4
 530 -33 524 -39 517 -39 c 4
 510 -39 504 -31 502 -17 c 4
 483 132 391 194 265 194 c 4
EndSplineSet
Fore
SplineSet
507 -50 m 0
 507 62 447 179 267 179 c 0
 87 179 28 62 28 -50 c 4
 0 -50 l 0
 0 142 99 298 267 298 c 0
 435 298 535 142 535 -50 c 0
 507 -50 l 0
206 11 m 0
 206 44 234 72 267 72 c 0
 300 72 329 44 329 11 c 0
 329 -22 300 -50 267 -50 c 0
 234 -50 206 -22 206 11 c 0
EndSplineSet
EndChar

StartChar: Aring
Encoding: 197 197 50
Width: 535
VWidth: 0
Flags: HMW
HStem: -88 138<132 232> -383 142<70 294>
VStem: 506 29<-47 51> 113 138<-69 31> -171 29<-47 51>
LayerCount: 3
Back
SplineSet
265 -210 m 0
 392 -210 483 -139 503 17 c 0
 505 31 512 39 518 39 c 0
 525 39 530 33 530 19 c 0
 530 17 529 14 529 11 c 0
 513 -138 417 -286 265 -286 c 3
 113 -286 17 -138 1 11 c 0
 1 14 0 17 0 19 c 0
 0 33 6 39 13 39 c 0
 20 39 26 31 28 17 c 0
 48 -139 139 -210 265 -210 c 0
314 -14 m 0
 314 -42 293 -64 265 -64 c 0
 237 -64 216 -42 216 -14 c 0
 216 14 237 34 265 34 c 0
 293 34 314 14 314 -14 c 0
EndSplineSet
Fore
SplineSet
28 50 m 0
 28 -62 88 -179 268 -179 c 0
 448 -179 507 -62 507 50 c 0
 535 50 l 0
 535 -142 436 -298 268 -298 c 0
 100 -298 0 -142 0 50 c 0
 28 50 l 0
329 -11 m 0
 329 -44 301 -72 268 -72 c 0
 235 -72 206 -44 206 -11 c 0
 206 22 235 50 268 50 c 0
 301 50 329 22 329 -11 c 0
EndSplineSet
EndChar

StartChar: iacute
Encoding: 237 237 51
Width: 950
VWidth: 0
Flags: HW
HStem: -224 31<209.89 296.601 335.513 456.94 492.136 613.75 653.941 740.996> 193 31<209.89 296.601 335.513 456.94 492.136 613.75 653.941 740.996>
VStem: 458 32.0915<-474.735 -387.831 -348.934 -225.544 -190.568 -70.2343 -31.0268 31.0268 70.2343 190.568 225.544 348.934 387.831 474.735>
LayerCount: 3
Fore
SplineSet
638 138 m 1
 595 124 561 90 546 48 c 0
 539 27 551 17 575 17 c 0
 607 17 634 16 642 16 c 0
 659 16 668 28 668 49 c 0
 668 50 667 78 667 112 c 0
 667 134 656 145 638 138 c 1
700 117 m 0
 700 81 699 50 699 43 c 0
 699 26 710 16 722 16 c 0
 728 16 758 16 793 16 c 0
 818 16 830 27 822 51 c 0
 807 94 773 127 728 140 c 0
 711 145 700 138 700 117 c 0
624 -167 m 1
 572 -148 531 -105 515 -52 c 1
 508 -26 496 -15 475 -15 c 24
 454 -15 442 -26 435 -52 c 1
 419 -105 378 -148 326 -167 c 1
 301 -175 283 -181 283 -206 c 1
 284 -220 284 -232 284 -240 c 0
 284 -263 280 -266 266 -266 c 0
 254 -266 251 -261 251 -242 c 2
 251 -206 l 2
 251 -185 237 -176 217 -170 c 0
 158 -155 113 -112 96 -51 c 0
 89 -25 79 -16 55 -16 c 0
 38 -16 26 -16 22 -16 c 0
 4 -16 0 -13 0 0 c 2
 0 3 l 2
 0 11 0 17 36 17 c 0
 38 17 44 17 52 17 c 0
 77 17 89 27 96 54 c 0
 111 112 153 156 217 171 c 0
 237 176 250 185 250 205 c 2
 250 235 l 2
 250 258 254 266 266 266 c 2
 268 266 l 2
 280 266 283 265 283 229 c 2
 283 208 l 2
 283 185 297 175 317 169 c 0
 374 153 418 109 435 53 c 0
 441 31 449 17 469 17 c 2
 481 17 l 2
 501 17 509 31 515 53 c 0
 532 109 576 153 633 169 c 0
 653 175 667 185 667 208 c 2
 667 229 l 2
 667 265 670 266 682 266 c 2
 684 266 l 2
 696 266 700 258 700 235 c 2
 700 205 l 2
 700 185 713 176 733 171 c 0
 797 156 839 112 854 54 c 0
 861 27 873 17 898 17 c 0
 906 17 912 17 914 17 c 0
 950 17 950 11 950 3 c 2
 950 0 l 2
 950 -13 946 -16 928 -16 c 0
 924 -16 912 -16 895 -16 c 0
 871 -16 861 -25 854 -51 c 0
 837 -112 792 -155 733 -170 c 0
 713 -176 699 -185 699 -206 c 2
 699 -242 l 2
 699 -261 696 -266 684 -266 c 0
 670 -266 666 -263 666 -240 c 0
 666 -232 666 -220 667 -206 c 1
 667 -181 649 -175 624 -167 c 1
668 -113 m 1
 668 -77 668 -45 668 -36 c 0
 668 -22 657 -14 643 -14 c 2
 576 -14 l 2
 550 -14 540 -25 547 -49 c 1
 562 -90 595 -123 636 -138 c 0
 655 -144 667 -135 668 -113 c 1
797 -15 m 0
 763 -15 735 -15 728 -15 c 0
 709 -15 698 -24 698 -42 c 2
 698 -108 l 2
 698 -133 710 -145 732 -137 c 0
 772 -123 807 -92 822 -49 c 0
 830 -27 821 -15 797 -15 c 0
312 138 m 1
 294 145 283 134 283 112 c 0
 283 78 282 50 282 49 c 0
 282 28 291 16 308 16 c 0
 316 16 343 17 375 17 c 0
 399 17 411 27 404 48 c 0
 389 90 355 124 312 138 c 1
250 117 m 0
 250 138 239 145 222 140 c 0
 177 127 143 94 128 51 c 0
 120 27 132 16 157 16 c 0
 192 16 222 16 228 16 c 0
 240 16 251 26 251 43 c 0
 251 50 250 81 250 117 c 0
282 -113 m 1
 283 -135 295 -144 314 -138 c 0
 355 -123 388 -90 403 -49 c 1
 410 -25 400 -14 374 -14 c 2
 307 -14 l 2
 293 -14 282 -22 282 -36 c 0
 282 -45 282 -77 282 -113 c 1
153 -15 m 0
 129 -15 120 -27 128 -49 c 0
 143 -92 178 -123 218 -137 c 0
 240 -145 252 -133 252 -108 c 2
 252 -42 l 2
 252 -24 241 -15 222 -15 c 0
 215 -15 187 -15 153 -15 c 0
EndSplineSet
EndChar

StartChar: Ccircumflex
Encoding: 264 264 52
Width: 621
Flags: W
HStem: 160 94<206.739 413.89>
LayerCount: 3
Back
SplineSet
315 160 m 4
 445 160 534 95 597 -22 c 5
 630 -10 l 5
 568 159 445 254 315 254 c 4
 185 254 62 159 0 -10 c 5
 33 -22 l 5
 96 95 185 160 315 160 c 4
EndSplineSet
Fore
SplineSet
13 -16 m 0
 4 -16 -0 -10 -0 -2 c 0
 -0 1 0 3 1 6 c 0
 63 166 184 254 310 254 c 0
 437 254 558 166 619 6 c 0
 620 3 621 1 621 -2 c 0
 621 -10 616 -16 608 -16 c 0
 602 -16 596 -12 592 -4 c 0
 532 103 434 160 310 160 c 0
 187 160 89 103 29 -4 c 0
 24 -12 19 -16 13 -16 c 0
EndSplineSet
EndChar

StartChar: U
Encoding: 85 85 53
Width: 1000
VWidth: 0
Flags: HM
LayerCount: 3
Back
SplineSet
348 380 m 7
 445 380 520 310 520 206 c 7
 520 113 448 40 363 40 c 7
 336 40 323 46 305 46 c 7
 297 46 289 45 279 29 c 4
 269 15 267 9 267 0 c 7
 267 -10 269 -13 278 -27 c 4
 289 -43 295 -44 308 -44 c 7
 326 -44 327 -40 362 -40 c 7
 448 -40 520 -111 520 -205 c 7
 520 -313 441 -380 348 -380 c 7
 280 -380 206 -350 206 -268 c 7
 206 -230 232 -202 268 -202 c 7
 296 -202 322 -221 322 -256 c 7
 322 -310 268 -306 268 -328 c 7
 268 -352 307 -358 328 -358 c 7
 375 -358 422 -318 422 -213 c 7
 422 -137 408 -70 344 -70 c 7
 305 -70 274 -102 270 -148 c 4
 268 -159 269 -167 260 -167 c 7
 250 -167 254 -161 245 -128 c 4
 237 -98 208 -28 182 -28 c 7
 173 -28 169 -30 169 -65 c 6
 169 -350 l 6
 169 -370 167 -380 147 -380 c 7
 134 -380 130 -362 130 -350 c 5
 130 347 l 6
 130 368 131 380 150 380 c 7
 165 380 169 376 169 350 c 6
 169 68 l 6
 169 35 173 30 181 30 c 7
 211 30 239 94 247 136 c 4
 250 151 248 170 259 170 c 7
 265 170 265 162 267 152 c 4
 273 108 301 70 345 70 c 7
 407 70 422 134 422 203 c 7
 422 301 403 358 321 358 c 7
 301 358 269 349 269 329 c 7
 269 307 317 312 317 256 c 7
 317 225 292 208 262 208 c 7
 229 208 206 236 206 265 c 7
 206 341 272 380 348 380 c 7
0 -338 m 6
 0 330 l 6
 0 374 1 380 46 380 c 7
 97 380 93 371 93 329 c 6
 93 -332 l 6
 93 -385 95 -380 36 -380 c 7
 -1 -380 0 -375 0 -338 c 6
EndSplineSet
EndChar

StartChar: x
Encoding: 120 120 54
Width: 348
VWidth: 0
Flags: W
HStem: 348 20G<172.5 173.5>
LayerCount: 3
Back
SplineSet
0 0 m 1
 226 486 l 1
 258 471 l 1
 39 0 l 1
 0 0 l 1
58 394 m 1
 163 394 l 1
 348 0 l 5
 243 0 l 5
 58 394 l 1
EndSplineSet
Fore
SplineSet
348 0 m 1
 243 0 l 1
 152 194 l 2
 150 198 145 200 141 200 c 0
 137 200 131 198 129 194 c 2
 39 0 l 1
 0 0 l 1
 169 364 l 2
 170 367 172 368 173 368 c 0
 174 368 176 367 177 364 c 2
 348 0 l 1
EndSplineSet
EndChar

StartChar: y
Encoding: 121 121 55
Width: 348
VWidth: 0
Flags: HW
HStem: -368 20G<174 176>
LayerCount: 3
Back
SplineSet
267 23 m 2x5d70
 267 53 262 59 252 59 c 0
 240 59 221 51 210 47 c 0
 198 43 194 34 194 11 c 2
 194 -38 l 2
 194 -55 200 -58 208 -58 c 0
 212 -58 241 -49 251 -45 c 0
 264 -40 267 -29 267 -16 c 0
 267 -12 267 -8 267 0 c 2
 267 23 l 2x5d70
248 -113 m 3
 244 -113 232 -114 215 -121 c 1
 189 -130 190 -131 177 -131 c 3
 162 -131 161 -121 161 -100 c 0
 161 -98 161 -95 161 -92 c 2
 161 -89 l 2x8db0
 161 7 162 2 162 43 c 3
 162 141 155 192 155 232 c 2
 155 247 l 2
 155 267 156 279 173 279 c 3
 191 279 198 277 198 259 c 3
 198 181 197 190 197 146 c 3
 197 121 203 114 213 114 c 3
 223 114 228 116 249 124 c 0
 269 132 278 135 285 135 c 0
 294 135 301 130 301 106 c 3
 301 40 299 59 299 -41 c 3x9e70
 299 -150 307 -163 307 -264 c 3
 307 -276 297 -279 288 -279 c 2
 273 -279 l 2
 266 -279 262 -275 262 -247 c 3x9cb0
 262 -243 264 -182 264 -148 c 2
 264 -137 l 2
 264 -114 257 -113 250 -113 c 0
 249 -113 249 -113 248 -113 c 3
552 197 m 3
 583 197 646 81 646 6 c 3
 646 -75 583 -182 555 -182 c 3
 547 -182 538 -176 538 -170 c 3
 538 -158 612 -80 612 0 c 3
 612 118 538 155 538 186 c 3
 538 193 546 197 552 197 c 3
94 -187 m 3
 63 -187 0 -71 0 4 c 3
 0 85 63 192 91 192 c 3
 99 192 108 186 108 180 c 3
 108 168 34 90 34 10 c 3
 34 -108 108 -145 108 -176 c 3
 108 -183 100 -187 94 -187 c 3
472 101 m 3x2c30
 498 101 534 82 534 35 c 3
 534 -42 457 -93 400 -93 c 3
 372 -93 339 -75 339 -27 c 3
 339 45 410 101 472 101 c 3x2c30
EndSplineSet
Fore
SplineSet
0 0 m 1
 105 0 l 1
 196 -194 l 2
 198 -198 203 -200 207 -200 c 0
 211 -200 217 -198 219 -194 c 2
 309 0 l 1
 348 0 l 1
 179 -364 l 2
 178 -367 176 -368 175 -368 c 0
 174 -368 172 -367 171 -364 c 2
 0 0 l 1
EndSplineSet
EndChar

StartChar: at
Encoding: 64 64 56
Width: 1000
VWidth: 0
Flags: HM
LayerCount: 3
Back
SplineSet
0 0 m 7
 0 27 12 28 24 28 c 7
 48 28 89 27 141 27 c 7
 212 27 247 28 290 28 c 7
 301 28 312 27 312 0 c 7
 312 -27 303 -28 290 -28 c 7
 258 -28 210 -27 149 -27 c 7
 82 -27 34 -28 23 -28 c 7
 6 -28 0 -21 0 0 c 7
EndSplineSet
EndChar

StartChar: degree
Encoding: 176 176 57
Width: 300
VWidth: 0
Flags: HMW
LayerCount: 3
Fore
SplineSet
300 47 m 10
 300 17 l 18
 300 -4 295 -1 229 -16 c 2
 104 -44 l 2
 13 -64 0 -73 0 -48 c 10
 0 -15 l 18
 0 8 15 3 95 21 c 2
 226 50 l 2
 288 64 300 69 300 47 c 10
EndSplineSet
EndChar

StartChar: plusminus
Encoding: 177 177 58
Width: 300
VWidth: 0
Flags: HMW
LayerCount: 3
Back
SplineSet
58 -141 m 7x20
 118 -141 249 -240 249 -364 c 7
 249 -388 245 -421 226 -421 c 7
 210 -421 221 -403 116 -301 c 4
 73 -259 42 -212 42 -174 c 7
 42 -173 42 -172 42 -170 c 4
 42 -156 44 -141 58 -141 c 7x20
259 -491 m 7
 259 -463 278 -447 278 -372 c 7
 278 -231 204 -156 103 -70 c 4
 57 -30 43 3 40 68 c 4
 40 72 40 78 40 84 c 4
 40 97 38 112 26 112 c 15
 12 112 0 102 0 87 c 6xa0
 0 -485 l 17
 25 -485 l 1
 25 -392 30 -357 57 -357 c 3
 72 -357 98 -372 123 -392 c 0
 193 -451 255 -578 255 -689 c 3
 255 -762 236 -783 236 -828 c 3
 236 -839 239 -855 251 -855 c 3
 270 -855 295 -765 295 -697 c 7x50
 295 -567 259 -563 259 -491 c 7
EndSplineSet
Fore
SplineSet
300 -23 m 10
 300 -53 l 18
 300 -74 295 -71 229 -86 c 2
 104 -114 l 2
 13 -134 0 -143 0 -118 c 10
 0 -85 l 18
 0 -62 15 -67 95 -49 c 2
 226 -20 l 2
 288 -6 300 -1 300 -23 c 10
300 117 m 10
 300 87 l 18
 300 66 295 69 229 54 c 2
 104 26 l 2
 13 6 0 -3 0 22 c 10
 0 55 l 18
 0 78 15 73 95 91 c 2
 226 120 l 2
 288 134 300 139 300 117 c 10
EndSplineSet
EndChar

StartChar: uni00B5
Encoding: 181 181 59
Width: 1000
VWidth: 0
Flags: H
LayerCount: 3
Back
SplineSet
58 141 m 7x20
 118 141 249 240 249 364 c 7
 249 388 245 421 226 421 c 7
 210 421 221 403 116 301 c 4
 73 259 42 212 42 174 c 7
 42 173 42 172 42 170 c 4
 42 156 44 141 58 141 c 7x20
259 491 m 7
 259 463 278 447 278 372 c 7
 278 231 204 156 103 70 c 4
 57 30 43 -3 40 -68 c 4
 40 -72 40 -78 40 -84 c 4
 40 -97 38 -112 26 -112 c 15
 12 -112 0 -102 0 -87 c 6xa0
 0 485 l 21
 25 485 l 5
 25 392 30 357 57 357 c 7
 72 357 98 372 123 392 c 4
 193 451 255 578 255 689 c 7
 255 762 236 783 236 828 c 7
 236 839 239 855 251 855 c 7
 270 855 295 765 295 697 c 7x50
 295 567 259 563 259 491 c 7
EndSplineSet
EndChar

StartChar: paragraph
Encoding: 182 182 60
Width: 1000
VWidth: 0
Flags: H
LayerCount: 3
Back
SplineSet
268.232 -512.333 m 4xd0
 287.222 -560.656 298 -614.269 298 -676 c 4
 298 -738 275 -855 244 -855 c 4
 233 -855 231 -842 231 -832 c 4
 231 -815 254 -768 254 -671 c 4
 254 -534 172 -438 104 -397 c 4
 87 -387 71 -378 58 -378 c 4
 36 -378 28 -436 28 -485 c 5
 0 -485 l 5xa8
 0 -269.72 0 -35 0 85 c 4
 0 101 11.3818 112 26 112 c 4
 38 112 40 97 40 84 c 4
 40 78 40 72 40 68 c 4
 43 3 57 -30 103 -70 c 4
 204 -156 278 -231 278 -372 c 4
 278 -424.387 268.73 -447.988 263.14 -467 c 4
 257.182 -487.263 261.989 -496.447 268.232 -512.333 c 4xd0
227.333 -418.335 m 4
 246.333 -418.335 249 -388 249 -364 c 4x90
 249 -240 118 -141 58 -141 c 4
 42.5734 -141 42 -158.546 42 -174 c 4
 42 -212 75.0763 -260.86 116 -301.003 c 4
 148.902 -333.277 179.055 -365.945 204.951 -400.667 c 4
 209.782 -407.414 216.142 -418.335 227.333 -418.335 c 4
EndSplineSet
EndChar

StartChar: uni00B3
Encoding: 179 179 61
Width: 300
VWidth: 0
Flags: HMW
LayerCount: 3
Fore
SplineSet
300 -163 m 10
 300 -193 l 18
 300 -214 295 -211 229 -226 c 2
 104 -254 l 2
 13 -274 0 -283 0 -258 c 10
 0 -225 l 18
 0 -202 15 -207 95 -189 c 2
 226 -160 l 2
 288 -146 300 -141 300 -163 c 10
300 -23 m 10
 300 -53 l 18
 300 -74 295 -71 229 -86 c 2
 104 -114 l 2
 13 -134 0 -143 0 -118 c 10
 0 -85 l 18
 0 -62 15 -67 95 -49 c 2
 226 -20 l 2
 288 -6 300 -1 300 -23 c 10
300 257 m 10
 300 227 l 18
 300 206 295 209 229 194 c 2
 104 166 l 2
 13 146 0 137 0 162 c 10
 0 195 l 18
 0 218 15 213 95 231 c 2
 226 260 l 2
 288 274 300 279 300 257 c 10
300 117 m 10
 300 87 l 18
 300 66 295 69 229 54 c 2
 104 26 l 2
 13 6 0 -3 0 22 c 10
 0 55 l 18
 0 78 15 73 95 91 c 2
 226 120 l 2
 288 134 300 139 300 117 c 10
EndSplineSet
EndChar

StartChar: Gcommaaccent
Encoding: 290 290 62
Width: 973
VWidth: -10
Flags: HW
LayerCount: 3
Back
SplineSet
54.9414 -67 m 29
 213 140 l 29
 331.089 -15 l 29
 449 140 l 29
 563.411 -9 l 21
 643.169 95.5 l 5
 665.822 66 l 5
 509 -140 l 13
 390.366 14.5 l 29
 272 -140 l 29
 157.337 9.33789 l 21
 78.2139 -96 l 13
 54.9414 -67 l 29
EndSplineSet
Fore
SplineSet
906 13 m 0
 906 32 920 47 939 47 c 0
 958 47 973 32 973 13 c 0
 973 -6 958 -21 939 -21 c 0
 920 -21 906 -6 906 13 c 0
245 492 m 0
 367 492 465 430 465 338 c 0
 465 298 444 252 400 252 c 0
 372 252 348 272 348 300 c 0
 348 307 349 316 356 316 c 2
 364 316 l 2
 397 316 419 332 419 356 c 0
 419 414 356 449 289 460 c 0
 261 465 254 458 247 439 c 0
 242 425 238 414 234 398 c 0
 230 383 232 380 237 369 c 0
 254 334 298 272 316 238 c 0
 321 228 325 219 318 202 c 0
 305 169 295 138 284 110 c 0
 275 87 278 80 301 71 c 0
 329 60 351 45 367 32 c 0
 378 23 384 24 395 29 c 0
 414 39 427 46 444 61 c 0
 451 68 449 77 448 86 c 0
 447 96 445 108 445 121 c 0
 445 179 488 235 541 235 c 0
 568 235 586 215 586 190 c 0
 586 140 547 101 519 75 c 0
 511 68 506 62 511 48 c 0
 517 29 533 6 563 6 c 0
 584 6 609 22 631 48 c 0
 642 61 648 69 648 91 c 0
 648 139 669 191 702 221 c 0
 712 231 723 219 719 212 c 0
 699 176 690 149 690 110 c 0
 690 60 707 3 753 3 c 0
 791 3 807 43 807 111 c 0
 807 227 704 331 574 366 c 0
 570 367 569 371 569 375 c 0
 569 381 572 388 577 388 c 2
 578 388 l 1
 709 363 867 252 867 107 c 0
 867 23 818 -26 756 -26 c 0
 725 -26 692 -11 671 17 c 0
 658 35 653 36 639 22 c 0
 613 -4 584 -26 547 -26 c 0
 499 -26 483 6 471 26 c 0
 463 38 454 31 449 28 c 0
 428 16 404 0 376 -20 c 0
 366 -28 356 -28 348 -19 c 0
 329 4 308 24 286 36 c 0
 261 50 250 43 230 24 c 0
 216 11 198 -2 176 -12 c 0
 148 -25 100 -33 95 -18 c 0
 89 -2 119 32 152 51 c 0
 174 63 196 71 220 79 c 0
 240 86 260 129 268 161 c 0
 272 179 274 183 268 197 c 0
 253 235 211 284 189 326 c 0
 183 338 184 345 188 358 c 1
 195 377 207 408 217 436 c 0
 226 461 209 463 182 456 c 0
 105 436 41 381 41 309 c 0
 41 282 51 252 85 252 c 0
 122 252 134 280 124 317 c 0
 119 337 129 339 140 328 c 0
 152 316 159 292 159 271 c 0
 159 228 132 186 91 186 c 0
 29 186 0 244 0 298 c 0
 0 405 123 492 245 492 c 0
556 177 m 0
 556 192 550 207 529 207 c 0
 501 207 484 177 484 142 c 0
 484 125 485 116 489 108 c 0
 494 98 503 99 512 105 c 0
 532 119 556 151 556 177 c 0
EndSplineSet
EndChar

StartChar: ecaron
Encoding: 283 283 63
Width: 1000
VWidth: -10
Flags: HM
LayerCount: 3
Back
SplineSet
86 60 m 4x9f80
 108 60 135 51 148 42 c 5
 190 155 l 5
 199 154 208 154 216 154 c 6
 239 154 l 5
 256 155 l 5
 197 10 l 5
 216 19 232 33 252 41 c 4
 271 49 290 54 306 54 c 4xaf80
 334 54 357 41 368 11 c 5
 386 26 420 47 450 47 c 4
 476 47 498 30 498 -1 c 4
 498 -32 485 -55 454 -55 c 4
 434 -55 424 -48 424 -28 c 4
 424 -21 425 -12 425 -5 c 4
 425 2 425 11 419 11 c 4xcf80
 412 11 399 0 397 -3 c 4
 382 -22 372 -46 361 -69 c 6
 284 -238 l 5
 211 -238 l 5
 291 -64 l 5
 302 -34 309 -12 309 0 c 4
 309 16 294 24 283 24 c 4xaf80
 252 24 208 -11 194 -18 c 5
 203 -45 213 -78 213 -114 c 4
 213 -166 198 -200 172 -225 c 4
 161 -235 146 -241 127 -241 c 4
 90 -241 66 -208 66 -172 c 4
 66 -145 75 -119 82 -99 c 5
 90 -80 l 5
 81 -82 73 -84 65 -84 c 4
 27 -84 2 -57 0 -21 c 4
 0 -19 0 -17 0 -15 c 4
 0 37 37 60 86 60 c 4x9f80
21 -22 m 4
 21 -45 40 -64 65 -64 c 4
 79 -64 95 -57 107 -48 c 5
 131 4 l 5
 131 27 108 37 84 37 c 4x9f80
 49 37 21 12 21 -22 c 4
120 -184 m 5
 120 -194 129 -205 138 -207 c 5
 177 -205 190 -165 190 -123 c 4
 190 -95 184 -66 176 -46 c 5
 173 -53 167 -64 161 -76 c 6
 143 -117 l 5
 127 -157 l 5
 120 -184 l 5
EndSplineSet
EndChar

StartChar: Gcircumflex
Encoding: 284 284 64
Width: 1000
VWidth: -2
Flags: H
LayerCount: 3
Back
SplineSet
214.45 10.3486 m 6xac
 182.05 10.3486 178.45 -1.35156 171.25 -25.6514 c 6
 133.45 -164.252 l 6
 128.05 -186.752 126.25 -211.952 145.15 -211.952 c 7
 176.65 -211.952 235.15 -132.752 252.25 -72.4521 c 6
 263.05 -33.752 l 6
 272.05 1.34863 266.65 10.3486 234.25 10.3486 c 14
 214.45 10.3486 l 6xac
230.65 184.948 m 6
 198.25 68.8486 l 6
 192.85 48.1484 202.75 44.5479 213.55 44.5479 c 14
 244.15 44.5479 l 6xac
 271.15 44.5479 275.65 56.248 289.15 56.248 c 7x9c
 296.35 56.248 302.65 55.3486 309.85 55.3486 c 7
 326.95 55.3486 333.25 58.0479 341.35 58.0479 c 7
 359.35 58.0479 347.65 35.5479 360.25 35.5479 c 7
 370.15 35.5479 383.65 64.3486 423.25 64.3486 c 7
 467.35 64.3486 483.55 30.874 483.55 -4.95215 c 31
 483.55 -34.3066 471.85 -61.6514 434.05 -61.6514 c 7xcc
 412.45 -61.6514 398.05 -41.8516 398.05 -21.1514 c 7
 398.05 -7.65137 400.75 1.34863 404.35 8.54785 c 4
 419.65 37.3486 404.35 43.6484 380.95 20.248 c 4
 353.05 -9.45215 322.45 -76.0518 305.35 -137.252 c 6
 282.85 -218.252 l 6
 276.55 -240.752 272.95 -247.052 252.25 -247.052 c 6
 219.85 -247.052 l 6
 211.75 -247.052 204.55 -240.752 206.35 -231.752 c 4
 213.55 -203.852 196.45 -211.952 180.25 -225.452 c 4
 168.55 -235.352 151.45 -249.752 117.25 -249.752 c 7
 28.1504 -249.752 60.5498 -160.651 73.1504 -117.452 c 6
 100.15 -19.3516 l 6
 107.35 7.64844 95.6504 10.3486 77.6504 10.3486 c 14
 53.3496 10.3486 l 6
 35.3496 10.3486 25.4502 12.1484 25.4502 23.8486 c 7
 25.4502 38.248 33.5498 44.5479 63.25 44.5479 c 6
 75.8496 44.5479 l 6
 109.15 44.5479 118.15 47.248 123.55 66.1484 c 6
 137.05 114.748 l 6
 143.35 134.548 146.05 138.148 159.55 147.148 c 4
 185.65 163.349 193.75 174.148 211.75 196.648 c 4
 221.65 209.248 236.95 208.349 230.65 184.948 c 6
EndSplineSet
EndChar

StartChar: hcircumflex
Encoding: 293 293 65
Width: 983
VWidth: -10
Flags: HW
LayerCount: 3
Back
SplineSet
1100.98 15 m 5
 983.367 -140 l 5
 864.277 15 l 5
 746 -140 l 5
 626.91 15 l 5
 509 -140 l 5
 390 14 l 13
 272 -140 l 29
 158 9 l 21
 79 -96 l 13
 55 -67 l 29
 213 140 l 29
 331 -15 l 21
 449 140 l 13
 568 -15 l 21
 686 140 l 13
 805.367 -15 l 21
 923.367 140 l 13
 1041.95 -15.1816 l 21
 1159.95 139.818 l 13
 1274.03 -8.5 l 21
 1353.5 96.25 l 5
 1376.95 65.8184 l 5
 1219.95 -140.182 l 5
 1100.98 15 l 5
EndSplineSet
Fore
SplineSet
336 60 m 0
 393 31 413 32 445 51 c 1
 436 69 432 89 432 105 c 0
 432 177 488 235 541 235 c 0
 568 235 588 213 588 188 c 0
 588 138 548 97 502 63 c 1
 514 32 534 6 563 6 c 0
 593 6 628 38 649 74 c 0
 648 78 648 83 648 88 c 0
 648 143 687 202 746 232 c 0
 758 238 759 250 753 257 c 0
 710 310 644 349 567 368 c 1
 571 390 l 1
 712 363 867 252 867 107 c 0
 867 23 817 -26 756 -26 c 0
 717 -26 682 -4 663 30 c 0
 660 35 648 34 644 29 c 0
 618 -2 587 -26 547 -26 c 0
 504 -26 474 0 454 32 c 1
 440 23 427 15 415 7 c 0
 399 -3 373 -20 360 -30 c 1
 338 4 294 43 257 54 c 1
 235 23 167 -42 89 -21 c 1
 106 44 165 88 242 88 c 2
 242 88 l 1
 256 103 267 129 279 163 c 2
 283 176 l 1
 185 329 l 1
 221 443 l 2
 224 454 212 464 201 463 c 0
 113 447 45 393 45 316 c 0
 45 287 59 260 89 260 c 0
 117 260 131 282 127 318 c 0
 125 338 127 337 138 326 c 0
 181 283 160 186 91 186 c 0
 29 186 0 245 0 292 c 0
 0 407 123 492 245 492 c 0
 367 492 465 430 465 338 c 0
 465 298 444 252 400 252 c 0
 372 252 346 273 346 313 c 0
 346 320 347 321 354 321 c 2
 363 321 l 2
 395 321 408 340 408 369 c 0
 408 434 333 466 255 466 c 1
 229 384 l 1
 327 231 l 1
 320 206 l 2
 310 166 297 133 282 101 c 0
 277 91 285 80 290 79 c 0
 305 74 321 67 336 60 c 0
507 94 m 0
 531 115 547 139 547 167 c 0
 547 182 539 206 518 206 c 0
 498 206 486 183 486 144 c 0
 486 130 488 114 491 98 c 0
 492 93 502 90 507 94 c 0
910 16 m 0
 910 37 925 53 946 53 c 0
 967 53 983 37 983 16 c 0
 983 -5 967 -21 946 -21 c 0
 925 -21 910 -5 910 16 c 0
763 215 m 0
 722 190 708 141 708 93 c 0
 708 52 720 -4 758 -4 c 0
 794 -4 809 48 809 102 c 0
 809 141 800 177 784 210 c 0
 781 215 768 218 763 215 c 0
EndSplineSet
EndChar

StartChar: kgreenlandic
Encoding: 312 312 66
Width: 296
VWidth: 0
Flags: HW
HStem: 512 33<97.8831 197.724>
VStem: 30 33<376.907 476.724> 129 38<0.000549316 314.707> 233 33<376.72 477.117>
CounterMasks: 1 70
LayerCount: 3
Fore
SplineSet
30 427 m 0
 30 494 85 545 148 545 c 0
 215 545 266 490 266 427 c 0
 266 376 234 335 192 318 c 0
 171 309 167 306 167 285 c 2
 167 18 l 2
 167 1 165 0 151 0 c 2
 147 0 l 2
 131 0 129 0 129 18 c 2
 129 285 l 2
 129 304 127 309 107 316 c 0
 61 333 30 378 30 427 c 0
63 427 m 0
 63 382 99 342 148 342 c 0
 193 342 233 378 233 427 c 0
 233 472 197 512 148 512 c 0
 103 512 63 476 63 427 c 0
EndSplineSet
EndChar

StartChar: quotesingle
Encoding: 39 39 67
Width: 258
VWidth: 0
Flags: MW
LayerCount: 3
Fore
SplineSet
12 0 m 0
 12 23 31 42 54 42 c 0
 77 42 95 23 95 0 c 0
 95 -23 77 -42 54 -42 c 0
 31 -42 12 -23 12 0 c 0
129 120 m 3
 44 120 24 66 5 66 c 3
 2 66 0 67 0 72 c 3
 0 87 53 147 129 147 c 3
 205 147 258 87 258 72 c 3
 258 67 254 66 251 66 c 3
 236 66 214 120 129 120 c 3
163 0 m 0
 163 23 182 42 205 42 c 0
 228 42 246 23 246 0 c 0
 246 -23 228 -42 205 -42 c 0
 182 -42 163 -23 163 0 c 0
EndSplineSet
EndChar

StartChar: parenleft
Encoding: 40 40 68
Width: 370
VWidth: 0
Flags: MW
LayerCount: 3
Fore
SplineSet
286.996 0 m 0
 286.996 23 305.996 42 328.996 42 c 0
 351.996 42 369.996 23 369.996 0 c 0
 369.996 -23 351.996 -42 328.996 -42 c 0
 305.996 -42 286.996 -23 286.996 0 c 0
185 146 m 3
 70 146 23 69 7 69 c 3
 2 69 0 70 0 77 c 3
 0 95 77 177 185 177 c 3
 293 177 370 95 370 77 c 3
 370 70 368 69 363 69 c 3
 347 69 300 146 185 146 c 3
0 0 m 0
 0 23 19 42 42 42 c 0
 65 42 83 23 83 0 c 0
 83 -23 65 -42 42 -42 c 0
 19 -42 0 -23 0 0 c 0
146.346 0 m 0
 146.346 23 164.351 42 186.146 42 c 0
 207.942 42 225 23 225 0 c 0
 225 -23 207.942 -42 186.146 -42 c 0
 164.351 -42 146.346 -23 146.346 0 c 0
EndSplineSet
EndChar

StartChar: parenright
Encoding: 41 41 69
Width: 539
VWidth: 0
Flags: MW
LayerCount: 3
Fore
SplineSet
3 0 m 0
 3 23 22 42 45 42 c 0
 68 42 86 23 86 0 c 0
 86 -23 68 -42 45 -42 c 0
 22 -42 3 -23 3 0 c 0
153 0 m 0
 153 23 172 42 195 42 c 0
 218 42 236 23 236 0 c 0
 236 -23 218 -42 195 -42 c 0
 172 -42 153 -23 153 0 c 0
303 0 m 0
 303 23 322 42 345 42 c 0
 368 42 386 23 386 0 c 0
 386 -23 368 -42 345 -42 c 0
 322 -42 303 -23 303 0 c 0
453 0 m 0
 453 23 472 42 495 42 c 0
 518 42 536 23 536 0 c 0
 536 -23 518 -42 495 -42 c 0
 472 -42 453 -23 453 0 c 0
269 201 m 7
 439 201 539 94.5303 539 78 c 7
 539 72 536 70 530 70 c 7
 515 70 455 165 269 165 c 7
 83 165 24 70 9 70 c 7
 3 70 0 72 0 78 c 7
 0 94.5303 99 201 269 201 c 7
EndSplineSet
EndChar

StartChar: asterisk
Encoding: 42 42 70
Width: 688
VWidth: 0
Flags: MW
LayerCount: 3
Fore
SplineSet
3 0 m 0
 3 23 22 42 45 42 c 0
 68 42 86 23 86 0 c 0
 86 -23 68 -42 45 -42 c 0
 22 -42 3 -23 3 0 c 0
153 0 m 0
 153 23 172 42 195 42 c 0
 218 42 236 23 236 0 c 0
 236 -23 218 -42 195 -42 c 0
 172 -42 153 -23 153 0 c 0
303 0 m 0
 303 23 322 42 345 42 c 0
 368 42 386 23 386 0 c 0
 386 -23 368 -42 345 -42 c 0
 322 -42 303 -23 303 0 c 0
453 0 m 0
 453 23 472 42 495 42 c 0
 518 42 536 23 536 0 c 0
 536 -23 518 -42 495 -42 c 0
 472 -42 453 -23 453 0 c 0
603 0 m 0
 603 23 622 42 645 42 c 0
 668 42 686 23 686 0 c 0
 686 -23 668 -42 645 -42 c 0
 622 -42 603 -23 603 0 c 0
344 180 m 3
 100 180 33 73 9 73 c 3
 4 73 0 74 0 81 c 3
 0 106 140 222 344 222 c 3
 548 222 688 106 688 81 c 3
 688 74 683 73 678 73 c 3
 654 73 585 180 344 180 c 3
EndSplineSet
EndChar

StartChar: plus
Encoding: 43 43 71
Width: 839
VWidth: 0
Flags: MW
LayerCount: 3
Back
SplineSet
419 240 m 7
 104 240 64 96 37 96 c 7
 32 96 28 97 28 108 c 7
 28 146 187 298 419 298 c 7
 651 298 810 146 810 108 c 7
 810 97 806 96 801 96 c 7
 774 96 734 240 419 240 c 7
EndSplineSet
Fore
SplineSet
420 195 m 3
 122 195 37 72 7 72 c 3
 2.98633 72 0 73.333 0 80 c 3
 0 109 171 242 420 242 c 3
 669 242 839 109 839 80 c 3
 839 73.4805 837 72 830 72 c 3
 801 72 714 195 420 195 c 3
3 0 m 0
 3 23 22 42 45 42 c 0
 68 42 86 23 86 0 c 0
 86 -23 68 -42 45 -42 c 0
 22 -42 3 -23 3 0 c 0
153 0 m 0
 153 23 172 42 195 42 c 0
 218 42 236 23 236 0 c 0
 236 -23 218 -42 195 -42 c 0
 172 -42 153 -23 153 0 c 0
303 0 m 0
 303 23 322 42 345 42 c 0
 368 42 386 23 386 0 c 0
 386 -23 368 -42 345 -42 c 0
 322 -42 303 -23 303 0 c 0
453 0 m 0
 453 23 472 42 495 42 c 0
 518 42 536 23 536 0 c 0
 536 -23 518 -42 495 -42 c 0
 472 -42 453 -23 453 0 c 0
603 0 m 0
 603 23 622 42 645 42 c 0
 668 42 686 23 686 0 c 0
 686 -23 668 -42 645 -42 c 0
 622 -42 603 -23 603 0 c 0
753 0 m 0
 753 23 772 42 795 42 c 0
 818 42 836 23 836 0 c 0
 836 -23 818 -42 795 -42 c 0
 772 -42 753 -23 753 0 c 0
EndSplineSet
EndChar

StartChar: comma
Encoding: 44 44 72
Width: 258
VWidth: 0
Flags: MW
LayerCount: 3
Back
SplineSet
144 162 m 4
 128.667 162 116.667 157.667 108 149 c 4
 97.3333 141.667 92 119.667 92 83 c 4
 92 42.3333 109.667 22 145 22 c 4
 175 22 190 48 190 100 c 4
 190 120.667 187 136.167 181 146.5 c 4
 175 156.833 162.667 162 144 162 c 4
157 328 m 4
 183.667 328 205 321.667 221 309 c 4
 237 296.333 245 281.333 245 264 c 4
 245 232 232 216 206 216 c 4
 181.333 216 169 226.667 169 248 c 4
 169 256.667 172 264.667 178 272 c 4
 184 279.333 187 285 187 289 c 4
 187 299.667 177 305 157 305 c 4
 138.333 305 123.833 299.667 113.5 289 c 4
 103.167 278.333 97 267.333 95 256 c 4
 93 244.667 92 230.667 92 214 c 4
 92 192 97 181 107 181 c 4
 110 181 l 4
 110.667 181 116.333 182.667 127 186 c 4
 137.667 189.333 151.333 191 168 191 c 4
 228.667 191 259 158.667 259 94 c 4
 259 67.3333 247.833 44.3333 225.5 25 c 4
 203.167 5.66667 177.667 -4 149 -4 c 4
 105.667 -4 72.5 12 49.5 44 c 4
 26.5 76 15 114.333 15 159 c 4
 15 207 27.6667 247.167 53 279.5 c 4
 78.3333 311.833 113 328 157 328 c 4
EndSplineSet
Fore
SplineSet
246 0 m 0
 246 -23 227 -42 204 -42 c 0
 181 -42 163 -23 163 0 c 0
 163 23 181 42 204 42 c 0
 227 42 246 23 246 0 c 0
129 -120 m 3
 214 -120 234 -66 253 -66 c 3
 256 -66 258 -67 258 -72 c 3
 258 -87 205 -147 129 -147 c 3
 53 -147 0 -87 0 -72 c 3
 0 -67 4 -66 7 -66 c 3
 22 -66 44 -120 129 -120 c 3
95 0 m 0
 95 -23 76 -42 53 -42 c 0
 30 -42 12 -23 12 0 c 0
 12 23 30 42 53 42 c 0
 76 42 95 23 95 0 c 0
EndSplineSet
EndChar

StartChar: hyphen
Encoding: 45 45 73
Width: 370
VWidth: 0
Flags: MW
LayerCount: 3
Back
SplineSet
204 226 m 4
 203.333 226 202 225.667 200 225 c 4
 198 224.333 194.5 223.833 189.5 223.5 c 4
 184.5 223.167 178 223 170 223 c 4
 156.667 223 141.5 230.833 124.5 246.5 c 4
 107.5 262.167 93 270 81 270 c 4
 60.3333 270 47 258.667 41 236 c 4
 37.6667 226 33 221 27 221 c 4
 19 221 15 225.333 15 234 c 4
 15 235.333 15.1667 239.833 15.5 247.5 c 4
 15.8333 255.167 16 263 16 271 c 4
 16 312 l 4
 16 322.667 19.6667 328 27 328 c 4
 32.3333 328 36.3333 325 39 319 c 4
 41.6667 313 45.3333 310 50 310 c 4
 56 310 65.6667 313.333 79 320 c 4
 92.3333 326.667 106.333 330 121 330 c 4
 142.333 330 160.333 322.667 175 308 c 4
 189.667 293.333 201.667 286 211 286 c 4
 214.333 286 217.5 286.5 220.5 287.5 c 4
 223.5 288.5 225.833 289.5 227.5 290.5 c 4
 229.167 291.5 230.667 293.5 232 296.5 c 4
 233.333 299.5 234.333 301.667 235 303 c 4
 235.667 304.333 236.667 307 238 311 c 4
 239.333 315 240 317.333 240 318 c 4
 242.667 325.333 246.667 329 252 329 c 4
 258 329 261.667 327.833 263 325.5 c 4
 264.333 323.167 265 318.333 265 311 c 4
 265 245.667 246.667 189.333 210 142 c 4
 193.333 120.667 181.333 101.833 174 85.5 c 4
 166.667 69.1667 161 48.3333 157 23 c 4
 155 8.33333 151.667 0.333333 147 -1 c 4
 145 -1.66667 143 -2 141 -2 c 4
 138.333 -2 134 -1.5 128 -0.5 c 4
 122 0.5 115.667 1 109 1 c 4
 102.333 1 94.6667 0.5 86 -0.5 c 4
 77.3333 -1.5 72 -2 70 -2 c 4
 62.6667 -2 59 2 59 10 c 4
 59 27.3333 65.3333 46.1667 78 66.5 c 4
 90.6667 86.8333 104 103.833 118 117.5 c 4
 132 131.167 151 148.667 175 170 c 4
 181 175.333 188.5 183.833 197.5 195.5 c 4
 206.5 207.167 211 215.333 211 220 c 4
 211 224 208.667 226 204 226 c 4
EndSplineSet
Fore
SplineSet
83.0039 0 m 0
 83.0039 -23 64.0039 -42 41.0039 -42 c 0
 18.0039 -42 0.00390625 -23 0.00390625 0 c 0
 0.00390625 23 18.0039 42 41.0039 42 c 0
 64.0039 42 83.0039 23 83.0039 0 c 0
185 -146 m 3
 300 -146 347 -69 363 -69 c 3
 368 -69 370 -70 370 -77 c 3
 370 -95 293 -177 185 -177 c 3
 77 -177 0 -95 0 -77 c 3
 0 -70 2 -69 7 -69 c 3
 23 -69 70 -146 185 -146 c 3
370 0 m 0
 370 -23 351 -42 328 -42 c 0
 305 -42 287 -23 287 0 c 0
 287 23 305 42 328 42 c 0
 351 42 370 23 370 0 c 0
223.654 0 m 0
 223.654 -23 205.649 -42 183.854 -42 c 0
 162.058 -42 145 -23 145 0 c 0
 145 23 162.058 42 183.854 42 c 0
 205.649 42 223.654 23 223.654 0 c 0
EndSplineSet
EndChar

StartChar: period
Encoding: 46 46 74
Width: 539
VWidth: 0
Flags: MW
LayerCount: 3
Back
SplineSet
99 138 m 4
 86.3333 138 74.5 133.5 63.5 124.5 c 4
 52.5 115.5 47 104.667 47 92 c 4
 47 72 54.6667 55.8333 70 43.5 c 4
 85.3333 31.1667 106 25 132 25 c 4
 183.333 25 209 40 209 70 c 4
 209 84.6667 197.5 99.6667 174.5 115 c 4
 151.5 130.333 126.333 138 99 138 c 4
143 302 m 4
 125 302 108.167 298.5 92.5 291.5 c 4
 76.8333 284.5 69 273.333 69 258 c 4
 69 240.667 82.3333 225.667 109 213 c 4
 135.667 200.333 161.333 194 186 194 c 4
 196.667 194 205.667 198.667 213 208 c 4
 220.333 217.333 224 227.333 224 238 c 4
 224 256.667 216.5 272 201.5 284 c 4
 186.5 296 167 302 143 302 c 4
139 327 m 4
 217 327 256 296.667 256 236 c 4
 256 223.333 250.833 209.667 240.5 195 c 4
 230.167 180.333 225 172 225 170 c 4
 225 166 228.5 161.167 235.5 155.5 c 4
 242.5 149.833 249.5 142 256.5 132 c 4
 263.5 122 267 110.333 267 97 c 4
 267 67 255.333 42.3333 232 23 c 4
 208.667 3.66667 178 -6 140 -6 c 4
 105.333 -6 75.8333 1.5 51.5 16.5 c 4
 27.1667 31.5 15 53 15 81 c 4
 15 95 17.1667 106.833 21.5 116.5 c 4
 25.8333 126.167 30.3333 132.833 35 136.5 c 4
 48.5 147.5 l 4
 55 159 l 4
 46.5 172 l 4
 30 194 l 4
 22 234 l 4
 22 264.667 33.5 287.833 56.5 303.5 c 4
 79.5 319.167 107 327 139 327 c 4
EndSplineSet
Fore
SplineSet
536 0 m 0
 536 -23 517 -42 494 -42 c 0
 471 -42 453 -23 453 0 c 0
 453 23 471 42 494 42 c 0
 517 42 536 23 536 0 c 0
386 0 m 0
 386 -23 367 -42 344 -42 c 0
 321 -42 303 -23 303 0 c 0
 303 23 321 42 344 42 c 0
 367 42 386 23 386 0 c 0
236 0 m 0
 236 -23 217 -42 194 -42 c 0
 171 -42 153 -23 153 0 c 0
 153 23 171 42 194 42 c 0
 217 42 236 23 236 0 c 0
86 0 m 0
 86 -23 67 -42 44 -42 c 0
 21 -42 3 -23 3 0 c 0
 3 23 21 42 44 42 c 0
 67 42 86 23 86 0 c 0
270 -201 m 7
 100 -201 0 -94.5303 0 -78 c 7
 0 -72 3 -70 9 -70 c 7
 24 -70 84 -165 270 -165 c 7
 456 -165 515 -70 530 -70 c 7
 536 -70 539 -72 539 -78 c 7
 539 -94.5303 440 -201 270 -201 c 7
EndSplineSet
EndChar

StartChar: slash
Encoding: 47 47 75
Width: 688
VWidth: 0
Flags: MW
LayerCount: 3
Back
SplineSet
118 162 m 0
 136.667 162 152.167 168.333 164.5 181 c 0
 176.833 193.667 183 213.667 183 241 c 0
 183 255.667 179.167 269.667 171.5 283 c 0
 163.833 296.333 150 303 130 303 c 0
 111.333 303 99 297.833 93 287.5 c 0
 87 277.167 84 263 84 245 c 0
 84 224 l 0
 84 182.667 95.3333 162 118 162 c 0
118 -4 m 0
 91.3333 -4 69.6667 2.5 53 15.5 c 0
 36.3333 28.5 28 43 28 59 c 0
 28 71.6667 31.6667 82.3333 39 91 c 0
 46.3333 99.6667 55.6667 104 67 104 c 0
 91.6667 104 104 92.6667 104 70 c 0
 104 62.6667 101.833 55.8333 97.5 49.5 c 0
 93.1667 43.1667 91 38.6667 91 36 c 0
 91 25.3333 100.333 20 119 20 c 0
 161 20 182 50 182 110 c 0
 182 130.667 176 141 164 141 c 0
 163.333 141 157.667 139.667 147 137 c 0
 136.333 134.333 123 133 107 133 c 0
 45.6667 133 15 165.333 15 230 c 0
 15 256.667 26.1667 279.667 48.5 299 c 0
 70.8333 318.333 96.3333 328 125 328 c 0
 168.333 328 201.5 312 224.5 280 c 0
 247.5 248 259 209.667 259 165 c 0
 259 117 246.5 76.8333 221.5 44.5 c 0
 196.5 12.1667 162 -4 118 -4 c 0
EndSplineSet
Fore
SplineSet
685 0 m 0
 685 -23 666 -42 643 -42 c 0
 620 -42 602 -23 602 0 c 0
 602 23 620 42 643 42 c 0
 666 42 685 23 685 0 c 0
535 0 m 0
 535 -23 516 -42 493 -42 c 0
 470 -42 452 -23 452 0 c 0
 452 23 470 42 493 42 c 0
 516 42 535 23 535 0 c 0
385 0 m 0
 385 -23 366 -42 343 -42 c 0
 320 -42 302 -23 302 0 c 0
 302 23 320 42 343 42 c 0
 366 42 385 23 385 0 c 0
235 0 m 0
 235 -23 216 -42 193 -42 c 0
 170 -42 152 -23 152 0 c 0
 152 23 170 42 193 42 c 0
 216 42 235 23 235 0 c 0
85 0 m 0
 85 -23 66 -42 43 -42 c 0
 20 -42 2 -23 2 0 c 0
 2 23 20 42 43 42 c 0
 66 42 85 23 85 0 c 0
344 -180 m 3
 588 -180 655 -73 679 -73 c 3
 684 -73 688 -74 688 -81 c 3
 688 -106 548 -222 344 -222 c 3
 140 -222 0 -106 0 -81 c 3
 0 -74 5 -73 10 -73 c 3
 34 -73 103 -180 344 -180 c 3
EndSplineSet
EndChar

StartChar: uni001C
Encoding: 28 28 76
Width: 1000
Flags: H
LayerCount: 3
Back
SplineSet
145 270 m 4
 133 270 123.333 266.667 116 260 c 4
 108.667 253.333 103.667 242.833 101 228.5 c 4
 98.3333 214.167 96.6667 201.833 96 191.5 c 4
 95.3333 181.167 95 166 95 146 c 4
 95 64 112.333 23 147 23 c 4
 164.333 23 176 33.3333 182 54 c 4
 188 74.6667 191 105.333 191 146 c 4
 191 190 187.5 221.667 180.5 241 c 4
 173.5 260.333 161.667 270 145 270 c 4
143 296 m 4
 181.667 296 211.167 281.833 231.5 253.5 c 4
 251.833 225.167 262 190.333 262 149 c 4
 262 47 222.333 -4 143 -4 c 4
 110.333 -4 82.5 9.16667 59.5 35.5 c 4
 36.5 61.8333 25 99 25 147 c 4
 25 190.333 34.6667 226 54 254 c 4
 73.3333 282 103 296 143 296 c 4
EndSplineSet
EndChar

StartChar: uni001D
Encoding: 29 29 77
Width: 1000
Flags: H
LayerCount: 3
Back
SplineSet
148 297 m 2
 157 297 164 293 164 279 c 2
 164 46 l 2
 164 28 167 27 188 25 c 0
 199 24 200 20 200 13 c 0
 200 3 195 0 180 0 c 2
 81 0 l 6
 61 0 59 4 59 13 c 4
 59 18 60 23 70 24 c 4
 98 27 99 27 99 68 c 2
 99 166 l 2
 99 177 98 183 94 183 c 0
 88 183 87 184 56 147 c 0
 52 142 46 139 42 139 c 0
 35 139 35 143 35 146 c 0
 35 148 36 152 37 155 c 0
 55 196 78 238 92 271 c 0
 102 296 111 297 121 297 c 2
 148 297 l 2
EndSplineSet
EndChar

StartChar: uni001E
Encoding: 30 30 78
Width: 1000
Flags: H
LayerCount: 3
Back
SplineSet
149 300 m 4
 181 300 207.833 291.333 229.5 274 c 4
 251.167 256.667 262 235.667 262 211 c 4
 262 195.667 256.333 181.833 245 169.5 c 4
 233.667 157.167 221.667 148.333 209 143 c 4
 196.333 137.667 180.333 131.5 161 124.5 c 4
 141.667 117.5 129 112.667 123 110 c 4
 112.333 106 107 101 107 95 c 4
 107 86.333 117.667 78.333 139 71 c 4
 160.333 63.667 176 60 186 60 c 4
 210 60 226.333 67.667 235 83 c 4
 236.333 84.333 237.5 86.333 238.5 89 c 4
 239.5 91.667 240.333 93.667 241 95 c 4
 241.667 96.333 242.5 97.833 243.5 99.5 c 4
 244.5 101.167 245.5 102.333 246.5 103 c 4
 247.5 103.667 248.667 104 250 104 c 4
 255.333 104 258 99 258 89 c 4
 258 88 l 4
 258 68 250.333 47.667 235 27 c 4
 219.667 6.33301 202.333 -4 183 -4 c 4
 165.667 -4 149 3 133 17 c 4
 117 31 101.667 38 87 38 c 4
 78.333 38 70.167 35 62.5 29 c 4
 54.833 23 49.667 16 47 8 c 4
 44.333 0 39.667 -4 33 -4 c 4
 27.667 -4 25 1.33301 25 12 c 4
 25 35.333 34.833 59.167 54.5 83.5 c 4
 74.167 107.833 96.667 127.333 122 142 c 4
 141.333 153.333 154.5 161.5 161.5 166.5 c 4
 168.5 171.5 174.833 178.333 180.5 187 c 4
 186.167 195.667 189 206 189 218 c 4
 189 236.667 184.333 250.833 175 260.5 c 4
 165.667 270.167 150.333 275 129 275 c 4
 119 275 109.833 272.167 101.5 266.5 c 4
 93.167 260.833 89 255 89 249 c 4
 89 243 92 236.5 98 229.5 c 4
 104 222.5 107 214 107 204 c 4
 107 194.667 103.667 187 97 181 c 4
 90.333 175 81 172 69 172 c 4
 57.667 172 48.833 175.5 42.5 182.5 c 4
 36.167 189.5 33 199 33 211 c 4
 33 236.333 43.5 257.5 64.5 274.5 c 4
 85.5 291.5 113.667 300 149 300 c 4
EndSplineSet
EndChar

StartChar: uni001F
Encoding: 31 31 79
Width: 1000
Flags: H
LayerCount: 3
Back
SplineSet
131 296 m 4
 159.667 296 185.167 288 207.5 272 c 4
 229.833 256 241 238.667 241 220 c 4
 241 205.333 238.333 193.333 233 184 c 4
 227.667 174.667 221.667 168.667 215 166 c 4
 208.333 163.333 202.167 160.667 196.5 158 c 4
 190.833 155.333 188 152.333 188 149 c 4
 188 146.333 191 143.333 197 140 c 4
 216.5 129.5 l 4
 236 110 l 4
 245 76 l 4
 245 52 233.5 32 210.5 16 c 4
 187.5 0 162 -8 134 -8 c 4
 104 -8 78.3333 -0.833333 57 13.5 c 4
 35.6667 27.8333 25 49 25 77 c 4
 25 87.6667 28.6667 95.8333 36 101.5 c 4
 43.3333 107.167 51 110 59 110 c 4
 84.3333 110 97 99 97 77 c 4
 97 70.3333 95.1667 63.8333 91.5 57.5 c 4
 87.8333 51.1667 86 45.6667 86 41 c 4
 86 26.3333 100 19 128 19 c 4
 147.333 19 160.167 24.5 166.5 35.5 c 4
 172.833 46.5 176 61.6667 176 81 c 4
 176 91 174.667 99.3333 172 106 c 4
 169.333 112.667 164.833 117.667 158.5 121 c 4
 152.167 124.333 147 126.5 143 127.5 c 4
 139 128.5 132.333 129.5 123 130.5 c 4
 113.667 131.5 108 132 106 132 c 4
 98.6667 133.333 93.8333 135 91.5 137 c 4
 89.1667 139 88 142.333 88 147 c 4
 88 149.667 88.3333 151.667 89 153 c 4
 89.6667 154.333 91.1667 155.667 93.5 157 c 4
 95.8333 158.333 99.6667 159.333 105 160 c 4
 120.333 161.333 133 163.833 143 167.5 c 4
 153 171.167 160 176.167 164 182.5 c 4
 168 188.833 170.5 194.667 171.5 200 c 4
 172.5 205.333 173 212.667 173 222 c 4
 173 236.667 168.667 248.5 160 257.5 c 4
 151.333 266.5 141 271 129 271 c 4
 98.3333 271 83 262.667 83 246 c 4
 83 241.333 85.8333 236.5 91.5 231.5 c 4
 97.1667 226.5 100 220.333 100 213 c 4
 100 204.333 96.6667 197.167 90 191.5 c 4
 83.3333 185.833 73.6667 183 61 183 c 4
 51.6667 183 44.1667 186.333 38.5 193 c 4
 32.8333 199.667 30 208.667 30 220 c 4
 30 242.667 40.6667 261 62 275 c 4
 83.3333 289 106.333 296 131 296 c 4
EndSplineSet
EndChar

StartChar: exclam
Encoding: 33 33 80
Width: 96
VWidth: 0
Flags: HMW
LayerCount: 3
Back
SplineSet
0 0 m 4
 0 23 19 42 42 42 c 4
 65 42 83 23 83 0 c 4
 83 -23 65 -42 42 -42 c 4
 19 -42 0 -23 0 0 c 4
EndSplineSet
Fore
SplineSet
0 0 m 0
 0 26 22 48 48 48 c 0
 74 48 96 26 96 0 c 0
 96 -26 74 -48 48 -48 c 0
 22 -48 0 -26 0 0 c 0
EndSplineSet
EndChar

StartChar: quotedbl
Encoding: 34 34 81
Width: 233
VWidth: 0
Flags: HMW
LayerCount: 3
Back
SplineSet
142 147 m 4
 130.667 147 119.667 142.333 109 133 c 4
 99 123 94 104 94 76 c 4
 94 66.667 94.5 59 95.5 53 c 4
 96.5 47 101 40.5 109 33.5 c 4
 117 26.5 128.667 23 144 23 c 4
 170.667 23 184 45.333 184 90 c 4
 184 109.333 181.333 123.667 176 133 c 4
 170.667 142.333 159.333 147 142 147 c 4
154 297 m 4
 178.667 297 198 291.167 212 279.5 c 4
 226 267.833 233 252 233 232 c 4
 233 220.667 229.333 211.833 222 205.5 c 4
 214.667 199.167 205.667 196 195 196 c 4
 175 196 165 207 165 229 c 4
 165 233.667 166.833 238.667 170.5 244 c 4
 174.167 249.333 176 254 176 258 c 4
 176 268.667 167.667 274 151 274 c 4
 113 274 94 247.333 94 194 c 4
 94 185.333 95.333 178.833 98 174.5 c 4
 100.667 170.167 102.833 167.833 104.5 167.5 c 4
 106.167 167.167 109 167 113 167 c 4
 115 167 119.833 168.167 127.5 170.5 c 4
 135.167 172.833 147.333 174 164 174 c 4
 218.667 174 246 144.333 246 85 c 4
 246 61 236 40.333 216 23 c 4
 196 5.66699 173 -3 147 -3 c 4
 107 -3 76.667 11.333 56 40 c 4
 35.333 68.667 25 103.333 25 144 c 4
 25 187.333 36.5 223.667 59.5 253 c 4
 82.5 282.333 114 297 154 297 c 4
EndSplineSet
Fore
SplineSet
150.996 0 m 0
 150.996 23 169.996 42 192.996 42 c 0
 215.996 42 233.996 23 233.996 0 c 0
 233.996 -23 215.996 -42 192.996 -42 c 0
 169.996 -42 150.996 -23 150.996 0 c 0
0 0 m 0
 0 23 19 42 42 42 c 0
 65 42 83 23 83 0 c 0
 83 -23 65 -42 42 -42 c 0
 19 -42 0 -23 0 0 c 0
EndSplineSet
EndChar

StartChar: numbersign
Encoding: 35 35 82
Width: 370
VWidth: 0
Flags: HMW
LayerCount: 3
Back
SplineSet
186 201 m 4
 184.667 201 182.167 200.833 178.5 200.5 c 4
 174.833 200.167 172 200 170 200 c 4
 166 200 l 4
 153.333 200 139.5 207.167 124.5 221.5 c 4
 109.5 235.833 96.3333 243 85 243 c 4
 66.3333 243 54 232.667 48 212 c 4
 45.3333 202.667 41.3333 198 36 198 c 4
 28.6667 198 25 202.333 25 211 c 4
 25 211.667 25.1667 215.5 25.5 222.5 c 4
 25.8333 229.5 26 236.667 26 244 c 4
 26 281 l 4
 26 290.333 29.3333 295 36 295 c 4
 40.6667 295 45 292.833 49 288.5 c 4
 53 284.167 57 282 61 282 c 4
 66.3333 282 74.3333 284.5 85 289.5 c 4
 95.6667 294.5 107.667 297 121 297 c 4
 139.667 297 155.5 291.333 168.5 280 c 4
 181.5 268.667 193 263 203 263 c 4
 214.333 263 223 271 229 287 c 4
 231.667 293 235 296 239 296 c 4
 245 296 248.667 295 250 293 c 4
 251.333 291 252 286.667 252 280 c 4
 252 221.333 235.333 170.333 202 127 c 4
 186 107 174.833 89.5 168.5 74.5 c 4
 162.167 59.5 157.333 41 154 19 c 4
 152 5 145.667 -2 135 -2 c 4
 132.333 -2 129 -1.83333 125 -1.5 c 4
 121 -1.16667 116 -1 110 -1 c 4
 104 -1 97.5 -1.16667 90.5 -1.5 c 4
 83.5 -1.83333 79 -2 77 -2 c 4
 68.3333 -2 64 4 64 16 c 4
 64 44 99.3333 89.3333 170 152 c 4
 179 160 l 4
 185 166 190 171.833 194 177.5 c 4
 198 183.167 200 188 200 192 c 4
 200 198 195.333 201 186 201 c 4
EndSplineSet
Fore
SplineSet
146.346 0 m 0
 146.346 23 164.351 42 186.146 42 c 0
 207.942 42 225 23 225 0 c 0
 225 -23 207.942 -42 186.146 -42 c 0
 164.351 -42 146.346 -23 146.346 0 c 0
0 0 m 0
 0 23 19 42 42 42 c 0
 65 42 83 23 83 0 c 0
 83 -23 65 -42 42 -42 c 0
 19 -42 0 -23 0 0 c 0
286.996 0 m 0
 286.996 23 305.996 42 328.996 42 c 0
 351.996 42 369.996 23 369.996 0 c 0
 369.996 -23 351.996 -42 328.996 -42 c 0
 305.996 -42 286.996 -23 286.996 0 c 0
EndSplineSet
EndChar

StartChar: dollar
Encoding: 36 36 83
Width: 533
VWidth: 0
Flags: HMW
LayerCount: 3
Back
SplineSet
101 123 m 4
 89 123 78.5 119.333 69.5 112 c 4
 60.5 104.667 56 95 56 83 c 4
 56 65 62.5 50.6667 75.5 40 c 4
 88.5 29.3333 106.667 24 130 24 c 4
 177.333 24 201 37.3333 201 64 c 4
 201 77.3333 191.167 90.5 171.5 103.5 c 4
 151.833 116.5 128.333 123 101 123 c 4
141 272 m 4
 96.3333 272 74 259.333 74 234 c 4
 74 218 86 204.667 110 194 c 4
 134 183.333 157.333 178 180 178 c 4
 190 178 198 181.667 204 189 c 4
 210 196.333 213 205 213 215 c 4
 213 232.333 206.5 246.167 193.5 256.5 c 4
 180.5 266.833 163 272 141 272 c 4
137 296 m 4
 208.333 296 244 268.667 244 214 c 4
 244 202.667 239.833 191 231.5 179 c 4
 223.167 167 219 159 219 155 c 4
 219 149.667 224.667 141.167 236 129.5 c 4
 247.333 117.833 253 104 253 88 c 4
 253 60.6667 242.5 38.3333 221.5 21 c 4
 200.5 3.66667 172.667 -5 138 -5 c 4
 106.667 -5 80 1.66667 58 15 c 4
 36 28.3333 25 47.6667 25 73 c 4
 25 89.6667 27.8333 102.5 33.5 111.5 c 4
 39.1667 120.5 44.6667 127 50 131 c 4
 55.3333 135 58 139.333 58 144 c 4
 58 148 53.5 155.333 44.5 166 c 4
 35.5 176.667 31 192 31 212 c 4
 31 240 41.3333 261 62 275 c 4
 82.6667 289 107.667 296 137 296 c 4
EndSplineSet
Fore
SplineSet
450 0 m 0
 450 23 469 42 492 42 c 0
 515 42 533 23 533 0 c 0
 533 -23 515 -42 492 -42 c 0
 469 -42 450 -23 450 0 c 0
300 0 m 0
 300 23 319 42 342 42 c 0
 365 42 383 23 383 0 c 0
 383 -23 365 -42 342 -42 c 0
 319 -42 300 -23 300 0 c 0
150 0 m 0
 150 23 169 42 192 42 c 0
 215 42 233 23 233 0 c 0
 233 -23 215 -42 192 -42 c 0
 169 -42 150 -23 150 0 c 0
0 0 m 0
 0 23 19 42 42 42 c 0
 65 42 83 23 83 0 c 0
 83 -23 65 -42 42 -42 c 0
 19 -42 0 -23 0 0 c 0
EndSplineSet
EndChar

StartChar: percent
Encoding: 37 37 84
Width: 683
VWidth: 0
Flags: MW
LayerCount: 3
Back
SplineSet
119 149 m 4xf4
 158.333 149 178 172 178 218 c 4
 178 229.333 173.833 241.167 165.5 253.5 c 4
 157.167 265.833 145.333 272 130 272 c 4
 102 272 88 255.667 88 223 c 4
 88 204 l 4
 88 167.333 98.333 149 119 149 c 4xf4
119 -3 m 4
 93 -3 72.833 2.66699 58.5 14 c 4
 44.167 25.333 37 40.667 37 60 c 4
 37 71.333 40.333 80.5 47 87.5 c 4
 53.667 94.5 62.333 98 73 98 c 4
 95 98 106 86.333 106 63 c 4xec
 106 57.667 105 52.667 103 48 c 4
 101 43.333 100 39 100 35 c 4
 100 25 106.333 20 119 20 c 4
 157.667 20 177 46.667 177 100 c 4
 177 108 175.5 114.167 172.5 118.5 c 4
 169.5 122.833 166.833 125.167 164.5 125.5 c 4
 162.167 125.833 159 126 155 126 c 4
 152.333 126 147.5 125 140.5 123 c 4
 133.5 121 122.667 120 108 120 c 4
 52.667 120 25 149.667 25 209 c 4
 25 233 35 253.667 55 271 c 4
 75 288.333 98 297 124 297 c 4
 164 297 194.333 282.667 215 254 c 4
 235.667 225.333 246 190.667 246 150 c 4
 246 106.667 234.833 70.333 212.5 41 c 4
 190.167 11.667 159 -3 119 -3 c 4
EndSplineSet
Fore
SplineSet
600 0 m 0
 600 23 619 42 642 42 c 0
 665 42 683 23 683 0 c 0
 683 -23 665 -42 642 -42 c 0
 619 -42 600 -23 600 0 c 0
450 0 m 0
 450 23 469 42 492 42 c 0
 515 42 533 23 533 0 c 0
 533 -23 515 -42 492 -42 c 0
 469 -42 450 -23 450 0 c 0
300 0 m 0
 300 23 319 42 342 42 c 0
 365 42 383 23 383 0 c 0
 383 -23 365 -42 342 -42 c 0
 319 -42 300 -23 300 0 c 0
150 0 m 0
 150 23 169 42 192 42 c 0
 215 42 233 23 233 0 c 0
 233 -23 215 -42 192 -42 c 0
 169 -42 150 -23 150 0 c 0
0 0 m 0
 0 23 19 42 42 42 c 0
 65 42 83 23 83 0 c 0
 83 -23 65 -42 42 -42 c 0
 19 -42 0 -23 0 0 c 0
EndSplineSet
EndChar

StartChar: uni0013
Encoding: 19 19 85
Width: 1000
VWidth: 0
Flags: H
LayerCount: 3
Back
SplineSet
134 262 m 6
 142 262 147 257 147 244 c 6
 147 41 l 6
 147 25 151 24 169 22 c 4
 179 21 179 17 179 11 c 4
 179 2 177 0 167 0 c 6
 66 0 l 6
 57 0 55 2 55 10 c 4
 55 15 56 20 65 21 c 4
 89 24 90 24 90 60 c 6
 90 142 l 6
 90 158 88 162 84 162 c 4
 80 162 79 163 52 130 c 4
 48 125 44 122 40 122 c 4
 34 122 34 126 34 129 c 4
 34 131 35 134 36 137 c 4
 52 173 71 211 84 240 c 4
 93 262 103 262 112 262 c 6
 134 262 l 6
EndSplineSet
EndChar

StartChar: uni0016
Encoding: 22 22 86
Width: 1000
VWidth: 970
Flags: H
LayerCount: 3
Back
SplineSet
129 48 m 6xf4
 129 63 127 67 111 67 c 6
 33 67 l 6
 18 67 19 74 19 79 c 4
 19 84 19 87 28 103 c 4
 52 148 68 174 84 224 c 4
 98 263 97 265 116 265 c 6
 159 265 l 6
 170 265 172 261 172 254 c 4xf8
 172 239 160 221 112 173 c 4
 71 132 58 111 58 104 c 4
 58 99 58 92 73 92 c 6
 109 92 l 6
 124 92 127 95 128 102 c 4
 128 107 128 128 129 137 c 4
 130 147 133 155 140 160 c 4
 171 180 171 184 180 184 c 4
 185 184 190 185 190 174 c 4
 190 160 188 141 188 109 c 4
 188 100 191 93 203 93 c 6
 223 93 l 6
 238 93 239 89 239 81 c 6
 239 79 l 6
 239 73 237 67 217 67 c 6
 208 67 l 6
 193 67 188 66 188 44 c 6
 188 39 l 6
 188 20 191 23 215 21 c 4
 224 20 224 16 224 11 c 4
 224 0 222 0 207 0 c 4
 191 0 168 0 158 0 c 4
 142 0 130 0 114 0 c 4
 97 0 95 -1 95 12 c 4
 95 16 96 19 105 20 c 4
 127 22 129 18 129 39 c 6
 129 48 l 6xf4
EndSplineSet
EndChar

StartChar: uni0019
Encoding: 25 25 87
Width: 1000
VWidth: 993
Flags: H
LayerCount: 3
Back
SplineSet
155 185 m 4x98
 123 185 107 223 77 223 c 4x58
 57 223 52 211 47 197 c 4
 42 185 41 182 34 182 c 4
 28 182 25 186 25 192 c 4
 25 197 26 207 26 224 c 4
 26 239 25 250 25 257 c 4
 25 266 28 270 34 270 c 4
 46 270 46 258 57 258 c 4x38
 76 258 77 271 112 271 c 4x58
 155 271 157 242 185 242 c 4
 200 242 203 251 208 262 c 4
 212 268 214 272 221 272 c 4
 228 272 230 267 230 262 c 4
 230 214 219 160 185 117 c 4
 158 82 148 60 143 24 c 4
 140 11 140 -1 126 -1 c 4
 118 -1 116 0 101 0 c 4
 87 0 78 -2 71 -2 c 4
 64 -2 59 2 59 14 c 4
 59 49 110 99 156 141 c 4
 160 145 168 152 175 160 c 4
 189 177 175 185 155 185 c 4x98
EndSplineSet
EndChar

StartChar: Wcircumflex
Encoding: 372 372 88
Width: 1000
VWidth: 0
Flags: H
LayerCount: 3
Back
SplineSet
-162 -95 m 3
 -169 -95 -170 -82 -170 -67 c 3
 -170 -61 -170 -57 -170 -52 c 0
 -170 -35 -169 -19 -165 -13 c 0
 -164 -12 -158 -8 -147 -4 c 0
 -96 14 38 57 114 82 c 0
 139 90 151 95 160 95 c 3
 168 95 170 73 170 52 c 3
 170 34 167 18 163 13 c 0
 162 12 156 7 146 4 c 0
 96 -11 -41 -59 -116 -83 c 0
 -143 -91 -153 -95 -162 -95 c 3
EndSplineSet
EndChar

StartChar: uni01DA
Encoding: 474 474 89
Width: 1000
VWidth: 0
Flags: H
LayerCount: 3
Back
SplineSet
265 998 m 27
 265 973 263 960 258 935 c 0
 222 768 210 695 189 587 c 0
 175 526 176 518 163 518 c 3
 145 518 143 541 136 575 c 0
 131 607 110 701 71 910 c 0
 64 942 59 960 59 991 c 3
 59 1005 70 1013 79 1013 c 3
 96 1013 95 991 104 942 c 0
 133 786 128 806 148 724 c 0
 157 682 157 680 162 680 c 0
 163 680 l 3
 172 680 174 698 177 720 c 0
 206 850 204 849 229 986 c 0
 232 1001 236 1017 251 1017 c 27
 260 1017 265 1007 265 998 c 27
212 94 m 0
 195 135 173 190 154 228 c 0
 139 258 138 260 130 260 c 3
 116 260 107 236 97 213 c 0
 80 174 60 127 43 92 c 0
 35 75 26 65 20 65 c 3
 13 65 0 68 0 78 c 3
 0 85 4 97 14 119 c 0
 52 212 92 297 128 391 c 0
 146 438 150 450 163 450 c 3
 178 450 179 445 203 386 c 0
 264 238 262 249 306 137 c 0
 322 96 323 89 323 82 c 0
 323 82 323 81 323 80 c 3
 323 65 308 62 267 62 c 0
 265 62 262 62 260 62 c 0
 224 62 225 63 212 94 c 0
EndSplineSet
EndChar

StartChar: uni01DB
Encoding: 475 475 90
Width: 1000
VWidth: 0
Flags: H
LayerCount: 3
Back
SplineSet
311 391 m 7
 291 391 289 401 289 412 c 4
 289 416 289 421 289 425 c 15
 289 448 290 462 290 485 c 31
 290 519 289 573 289 573 c 7
 289 605 285 607 254 607 c 7
 224 607 208 606 178 606 c 31
 137 606 72 607 72 607 c 7
 34 607 34 600 34 569 c 7
 34 530 33 506 33 465 c 31
 33 445 34 414 34 414 c 7
 34 401 33 391 10 391 c 7
 -10 391 -12 400 -12 411 c 4
 -12 415 -12 418 -12 422 c 15
 -12 493 -11 541 -11 605 c 7
 -11 709 -13 700 -13 755 c 7
 -13 780 4 781 21 781 c 31
 81 781 112 780 175 780 c 7
 277 780 183 781 304 781 c 7
 334 781 336 768 336 751 c 31
 336 694 335 645 335 606 c 7
 335 549 335 565 335 506 c 4
 335 477 335 450 335 414 c 31
 335 401 331 391 311 391 c 7
212 94 m 4
 195 135 173 190 154 228 c 4
 139 258 138 260 130 260 c 7
 116 260 107 236 97 213 c 4
 80 174 60 127 43 92 c 4
 35 75 26 65 20 65 c 7
 13 65 0 68 0 78 c 7
 0 85 4 97 14 119 c 4
 52 212 92 297 128 391 c 4
 146 438 150 450 163 450 c 7
 178 450 179 445 203 386 c 4
 264 238 262 249 306 137 c 4
 322 96 323 89 323 82 c 4
 323 82 323 81 323 80 c 7
 323 65 308 62 267 62 c 4
 265 62 262 62 260 62 c 4
 224 62 225 63 212 94 c 4
EndSplineSet
EndChar

StartChar: uni01D5
Encoding: 469 469 91
Width: 1000
VWidth: 0
Flags: H
LayerCount: 3
Back
SplineSet
306 232 m 7
 286 232 284 242 284 253 c 4
 284 257 284 262 284 266 c 15
 284 289 285 303 285 326 c 31
 285 360 284 414 284 414 c 7
 284 446 280 448 249 448 c 7
 219 448 203 447 173 447 c 31
 132 447 67 448 67 448 c 7
 29 448 29 441 29 410 c 7
 29 371 28 347 28 306 c 31
 28 286 29 255 29 255 c 7
 29 242 28 232 5 232 c 7
 -15 232 -17 241 -17 252 c 4
 -17 256 -17 259 -17 263 c 15
 -17 334 -16 382 -16 446 c 7
 -16 550 -18 541 -18 596 c 7
 -18 621 -1 622 16 622 c 31
 76 622 107 621 170 621 c 7
 272 621 178 622 299 622 c 7
 329 622 331 609 331 592 c 31
 331 535 330 486 330 447 c 7
 330 390 330 406 330 347 c 4
 330 318 330 291 330 255 c 31
 330 242 326 232 306 232 c 7
0 149 m 7
 0 176 12 177 24 177 c 7
 48 177 89 176 141 176 c 7
 212 176 247 177 290 177 c 7
 301 177 312 176 312 149 c 7
 312 122 303 121 290 121 c 7
 258 121 210 122 149 122 c 7
 82 122 34 121 23 121 c 7
 6 121 0 128 0 149 c 7
EndSplineSet
EndChar

StartChar: uni01DC
Encoding: 476 476 92
Width: 1000
VWidth: 0
Flags: H
LayerCount: 3
Back
SplineSet
265 1020 m 27
 265 995 263 982 258 957 c 0
 222 790 210 717 189 609 c 0
 175 548 176 540 163 540 c 3
 145 540 143 563 136 597 c 0
 131 629 110 723 71 932 c 0
 64 964 59 982 59 1013 c 3
 59 1027 70 1035 79 1035 c 3
 96 1035 95 1013 104 964 c 0
 133 808 128 828 148 746 c 0
 157 704 157 702 162 702 c 0
 163 702 l 3
 172 702 174 720 177 742 c 0
 206 872 204 871 229 1008 c 0
 232 1023 236 1039 251 1039 c 27
 260 1039 265 1029 265 1020 c 27
212 116 m 0
 195 157 173 212 154 250 c 0
 139 280 138 282 130 282 c 3
 116 282 107 258 97 235 c 0
 80 196 60 149 43 114 c 0
 35 97 26 87 20 87 c 3
 13 87 0 90 0 100 c 3
 0 107 4 119 14 141 c 0
 52 234 92 319 128 413 c 0
 146 460 150 472 163 472 c 3
 178 472 179 467 203 408 c 0
 264 260 262 271 306 159 c 0
 322 118 323 111 323 104 c 0
 323 104 323 103 323 102 c 3
 323 87 308 84 267 84 c 0
 265 84 262 84 260 84 c 0
 224 84 225 85 212 116 c 0
EndSplineSet
EndChar

StartChar: uni01DD
Encoding: 477 477 93
Width: 1000
VWidth: 0
Flags: H
LayerCount: 3
Back
SplineSet
311 413 m 3
 291 413 289 423 289 434 c 0
 289 438 289 443 289 447 c 11
 289 470 290 484 290 507 c 27
 290 541 289 595 289 595 c 3
 289 627 285 629 254 629 c 3
 224 629 208 628 178 628 c 27
 137 628 72 629 72 629 c 3
 34 629 34 622 34 591 c 3
 34 552 33 528 33 487 c 27
 33 467 34 436 34 436 c 3
 34 423 33 413 10 413 c 3
 -10 413 -12 422 -12 433 c 0
 -12 437 -12 440 -12 444 c 11
 -12 515 -11 563 -11 627 c 3
 -11 731 -13 722 -13 777 c 3
 -13 802 4 803 21 803 c 27
 81 803 112 802 175 802 c 3
 277 802 183 803 304 803 c 3
 334 803 336 790 336 773 c 27
 336 716 335 667 335 628 c 3
 335 571 335 587 335 528 c 0
 335 499 335 472 335 436 c 27
 335 423 331 413 311 413 c 3
212 116 m 0
 195 157 173 212 154 250 c 0
 139 280 138 282 130 282 c 3
 116 282 107 258 97 235 c 0
 80 196 60 149 43 114 c 0
 35 97 26 87 20 87 c 3
 13 87 0 90 0 100 c 3
 0 107 4 119 14 141 c 0
 52 234 92 319 128 413 c 0
 146 460 150 472 163 472 c 3
 178 472 179 467 203 408 c 0
 264 260 262 271 306 159 c 0
 322 118 323 111 323 104 c 0
 323 104 323 103 323 102 c 3
 323 87 308 84 267 84 c 0
 265 84 262 84 260 84 c 0
 224 84 225 85 212 116 c 0
EndSplineSet
EndChar

StartChar: uni01DE
Encoding: 478 478 94
Width: 1000
VWidth: 0
Flags: H
LayerCount: 3
Back
SplineSet
264 1014 m 31
 264 989 262 976 257 951 c 4
 221 784 209 711 188 603 c 4
 174 542 175 534 162 534 c 7
 144 534 142 557 135 591 c 4
 130 623 109 717 70 926 c 4
 63 958 58 976 58 1007 c 7
 58 1021 69 1029 78 1029 c 7
 95 1029 94 1007 103 958 c 4
 132 802 127 822 147 740 c 4
 156 698 156 696 161 696 c 4
 162 696 l 7
 171 696 173 714 176 736 c 4
 205 866 203 865 228 1002 c 4
 231 1017 235 1033 250 1033 c 31
 259 1033 264 1023 264 1014 c 31
5 447 m 7
 5 474 17 475 29 475 c 7
 53 475 94 474 146 474 c 7
 217 474 252 475 295 475 c 7
 306 475 317 474 317 447 c 7
 317 420 308 419 295 419 c 7
 263 419 215 420 154 420 c 7
 87 420 39 419 28 419 c 7
 11 419 5 426 5 447 c 7
EndSplineSet
EndChar

StartChar: uni01DF
Encoding: 479 479 95
Width: 1000
VWidth: 0
Flags: H
LayerCount: 3
Back
SplineSet
311 530 m 7
 291 530 289 540 289 551 c 4
 289 555 289 560 289 564 c 15
 289 587 290 601 290 624 c 31
 290 658 289 712 289 712 c 7
 289 744 285 746 254 746 c 7
 224 746 208 745 178 745 c 31
 137 745 72 746 72 746 c 7
 34 746 34 739 34 708 c 7
 34 669 33 645 33 604 c 31
 33 584 34 553 34 553 c 7
 34 540 33 530 10 530 c 7
 -10 530 -12 539 -12 550 c 4
 -12 554 -12 557 -12 561 c 15
 -12 632 -11 680 -11 744 c 7
 -11 848 -13 839 -13 894 c 7
 -13 919 4 920 21 920 c 31
 81 920 112 919 175 919 c 7
 277 919 183 920 304 920 c 7
 334 920 336 907 336 890 c 31
 336 833 335 784 335 745 c 7
 335 688 335 704 335 645 c 4
 335 616 335 589 335 553 c 31
 335 540 331 530 311 530 c 7
5 447 m 7
 5 474 17 475 29 475 c 7
 53 475 94 474 146 474 c 7
 217 474 252 475 295 475 c 7
 306 475 317 474 317 447 c 7
 317 420 308 419 295 419 c 7
 263 419 215 420 154 420 c 7
 87 420 39 419 28 419 c 7
 11 419 5 426 5 447 c 7
EndSplineSet
EndChar

StartChar: uni0210
Encoding: 528 528 96
Width: 1000
VWidth: 1372
Flags: H
LayerCount: 3
Back
SplineSet
173 58 m 4xfa
 177 63 182 66 186 66 c 4
 190 66 193 65 193 61 c 4
 193 59 192 55 190 52 c 4
 177 28 164 12 153 2 c 4
 142 -8 130 -12 118 -12 c 4
 112 -12 106 -10 100 -7 c 4
 94 -4 86 2 75 10 c 4
 64 18 53 22 46 22 c 4
 39 22 32 18 26 11 c 4
 20 4 15 0 11 0 c 4
 7 0 l 4
 2 0 0 4 0 10 c 4xfa
 0 55 36 93 107 126 c 4
 119 132 128 136 133 140 c 4
 156 155 167 176 167 204 c 4
 167 215 164 223 158 229 c 4
 152 235 143 239 131 239 c 4
 119 239 110 235 102 229 c 4
 98 225 96 221 95 218 c 4
 94 215 94 211 94 208 c 4
 94 205 96 201 100 197 c 4
 104 193 107 187 107 180 c 4
 107 173 104 167 99 162 c 4
 94 157 87 154 79 154 c 4
 62 154 54 163 54 181 c 4xf6
 54 194 58 206 66 218 c 4
 74 230 85 239 98 246 c 4
 111 253 123 256 137 256 c 4
 138 256 l 4
 162 256 181 249 194 238 c 4
 207 227 213 212 213 191 c 4
 213 181 212 172 208 165 c 4
 201 152 188 142 170 132 c 4
 162 128 147 122 124 113 c 4
 101 104 84 95 70 85 c 4
 62 79 58 74 58 70 c 4
 58 66 63 63 72 61 c 4
 81 59 89 57 97 54 c 4
 120 44 l 4
 130 40 136 38 140 38 c 4
 152 38 162 45 173 58 c 4xfa
EndSplineSet
EndChar

StartChar: uni0211
Encoding: 529 529 97
Width: 1000
VWidth: 1372
Flags: H
LayerCount: 3
Back
SplineSet
42 18 m 4xfe
 42 10 50 6 63 6 c 4
 76 6 87 11 97 20 c 4
 114 36 122 59 122 88 c 4xfe
 122 92 121 97 118 102 c 4
 112 113 103 119 89 119 c 4
 83 119 l 4
 75 119 71 122 71 127 c 4
 71 128 71 128 71 129 c 4
 72 135 76 139 83 139 c 4
 88 139 l 4
 99 139 110 141 123 144 c 4
 149 151 162 171 162 203 c 4
 162 215 159 224 153 230 c 4
 147 236 140 240 131 240 c 4
 122 240 114 238 110 235 c 4
 106 232 104 229 104 224 c 4
 104 219 106 214 109 210 c 4
 112 206 114 201 114 196 c 4
 114 195 113 194 113 193 c 4
 110 178 102 171 88 171 c 4
 79 171 74 174 70 179 c 4
 66 184 64 190 64 197 c 4
 64 212 71 226 84 238 c 4
 97 250 113 256 134 256 c 4
 135 256 l 4
 156 256 174 251 188 241 c 4
 202 231 209 216 209 197 c 4
 209 168 192 145 158 129 c 4
 152 126 149 123 149 120 c 4xfd80
 149 117 150 114 154 110 c 4
 166 98 172 84 172 66 c 4
 172 59 170 50 165 40 c 4
 147 5 116 -13 71 -13 c 4
 57 -13 42 -9 28 -3 c 4
 9 6 0 22 0 45 c 4
 0 55 3 64 9 70 c 4
 15 76 23 79 32 79 c 4
 41 79 48 77 53 71 c 4
 58 65 60 58 60 51 c 4
 60 44 57 38 51 33 c 4
 45 28 42 24 42 19 c 4
 42 18 l 4xfe
EndSplineSet
EndChar

StartChar: uni0212
Encoding: 530 530 98
Width: 1000
VWidth: 1372
Flags: H
LayerCount: 3
Back
SplineSet
183 197 m 4
 186 199 188 201 192 201 c 4
 196 201 197 199 197 196 c 4
 197 195 198 194 197 192 c 4
 171 106 l 4
 170 103 169 101 169 99 c 4
 169 94 172 92 178 92 c 4
 197 92 l 4
 205 92 209 89 209 84 c 4
 209 83 208 81 208 80 c 4
 206 74 203 71 196 71 c 4
 173 71 l 4
 162 71 155 66 152 57 c 4
 147 37 l 4
 146 33 145 30 145 28 c 4
 145 22 149 19 156 18 c 4
 170 18 l 4
 178 17 182 14 182 10 c 4
 182 9 182 9 182 8 c 4
 181 3 176 0 168 0 c 4
 54 0 l 4
 50 0 48 2 48 6 c 4
 48 7 48 8 49 10 c 4
 50 14 55 17 65 18 c 4
 75 19 82 22 87 27 c 4
 92 32 96 37 98 44 c 4
 102 59 l 4
 103 61 103 62 103 63 c 4
 103 68 99 71 91 71 c 4
 10 71 l 4
 3 71 0 74 0 79 c 4
 0 80 0 82 1 85 c 4
 2 88 6 94 14 101 c 4
 22 108 29 116 35 123 c 4
 70 166 94 205 107 242 c 4
 110 251 116 255 126 255 c 4
 171 255 l 4
 180 255 184 253 184 248 c 4
 184 241 167 221 133 186 c 4
 111 164 86 141 58 118 c 4
 51 112 l 4
 44 106 40 101 40 98 c 4
 40 94 45 92 56 92 c 4
 95 92 l 4
 109 92 118 97 121 108 c 4
 128 134 l 4
 131 144 136 152 143 159 c 4
 183 197 l 4
EndSplineSet
EndChar

StartChar: uni0213
Encoding: 531 531 99
Width: 1000
VWidth: 1372
Flags: H
LayerCount: 3
Back
SplineSet
132 97 m 4xfd
 132 120 121 130 100 130 c 4
 99 130 l 4
 85 130 69 126 54 115 c 4
 47 110 40 108 33 108 c 4
 29 108 26 110 26 114 c 4
 26 116 26 117 27 120 c 4
 70 245 l 4
 72 250 75 253 81 253 c 4
 82 253 87 252 95 250 c 4
 102 248 109 247 115 247 c 4
 140 247 160 248 176 252 c 4
 180 253 184 253 188 253 c 4
 192 253 193 251 193 248 c 4
 193 246 192 243 189 240 c 4
 172 219 151 209 127 209 c 4
 116 209 108 210 103 211 c 4
 98 212 95 212 93 212 c 4
 83 212 76 207 73 197 c 4
 62 166 l 4
 61 162 60 159 60 156 c 4xfb
 60 150 64 147 70 147 c 4
 73 147 79 148 86 150 c 4
 93 152 102 154 113 154 c 4
 134 154 151 148 162 136 c 4
 173 124 179 109 179 90 c 4
 179 71 175 56 167 43 c 4
 159 30 150 20 140 12 c 4
 119 -4 95 -12 68 -12 c 4
 41 -12 21 -5 10 10 c 4
 3 19 0 30 0 44 c 4
 0 57 4 67 12 74 c 4
 18 79 25 81 33 81 c 4
 41 81 48 79 52 74 c 4
 56 69 58 62 58 54 c 4
 58 46 55 39 48 33 c 4
 41 27 38 20 38 16 c 4
 38 9 47 5 63 5 c 4
 84 5 102 20 117 49 c 4
 127 68 132 85 132 97 c 4xfd
EndSplineSet
EndChar

StartChar: uni0214
Encoding: 532 532 100
Width: 1000
VWidth: 1372
Flags: H
LayerCount: 3
Back
SplineSet
159 175 m 4xf4
 143 175 132 182 132 198 c 4
 132 217 148 219 148 227 c 4xf4
 148 232 144 235 136 235 c 4
 108 235 89 203 78 165 c 4
 76 156 74 143 84 143 c 4
 104 143 102 152 135 152 c 4
 165 152 184 128 184 97 c 4xf8
 184 80 179 63 170 45 c 4
 151 7 122 -12 83 -12 c 4
 38 -12 15 18 15 78 c 4
 15 141 49 207 84 234 c 4
 102 248 120 255 137 255 c 4
 173 255 190 241 190 212 c 4
 190 193 177 175 159 175 c 4xf4
82 10 m 4
 116 10 136 58 136 95 c 4xf8
 136 116 128 127 111 127 c 4
 82 127 62 71 62 38 c 4
 62 19 68 10 82 10 c 4
EndSplineSet
EndChar

StartChar: uni0215
Encoding: 533 533 101
Width: 1000
VWidth: 1372
Flags: H
LayerCount: 3
Back
SplineSet
28 21 m 4xc8
 43 54 72 92 113 135 c 4
 128 150 136 163 142 173 c 4
 155 193 146 197 128 190 c 4
 123 188 118 187 112 187 c 4xc8
 104 187 96 191 87 197 c 4
 78 204 69 207 62 207 c 4
 50 207 44 201 34 188 c 4
 29 182 25 174 22 167 c 4
 19 160 14 156 8 156 c 4
 0 156 1 165 3 173 c 4
 6 182 10 194 15 211 c 4
 26 246 l 4
 28 252 31 256 36 256 c 4xa8
 41 256 46 252 47 244 c 4
 48 239 51 235 58 235 c 4x98
 65 235 70 237 77 243 c 4
 84 249 93 252 103 252 c 4
 113 252 122 248 129 240 c 4
 136 232 142 229 149 229 c 4
 159 229 167 234 174 246 c 4
 178 254 184 255 189 255 c 4
 193 255 196 253 196 248 c 4
 196 246 195 244 195 242 c 4
 189 211 171 173 143 127 c 4
 123 94 110 59 105 21 c 4
 103 7 96 0 85 0 c 4
 38 0 l 4
 29 0 25 4 25 10 c 4
 25 13 26 16 28 21 c 4xc8
EndSplineSet
EndChar

StartChar: uni0220
Encoding: 544 544 102
Width: 1000
VWidth: 2048
Flags: H
LayerCount: 3
Back
SplineSet
281 152 m 4
 296 130 303 109 303 89 c 5
 304 89 l 5
 304 10.9711 226 -19 152 -19 c 4
 85.3461 -19 10 20.5 10 87 c 4
 10 123 34 154 81 179 c 4
 96 187 104 198 104 210 c 4
 104 216 102 222 99 228 c 4
 89 247 85 263 85 279 c 4
 85 346 144.624 381 209 381 c 4
 283 381 346 337 346 279 c 4
 346 245 328 218 291 196 c 4
 280 189 274 181 274 174 c 4
 274 166 276 159 281 152 c 4
311 277 m 4
 311 321 263 350 220 350 c 4
 191 350 164 335 164 309 c 4
 164 298 166 288 172 278 c 4
 179.385 263.23 209.5 215 247 215 c 4
 275.344 215 311 244.5 311 277 c 4
131 155 m 4
 95.4072 155 48 122.389 48 87 c 4
 48 38 105 11 156 11 c 4
 201 11 224 27 224 59 c 4
 224 87 170.808 155 131 155 c 4
EndSplineSet
EndChar

StartChar: uni0222
Encoding: 546 546 103
Width: 1000
VWidth: 2048
Flags: H
LayerCount: 3
Back
SplineSet
0.768555 13.2148 m 4
 2.99219 21.1309 9.00195 25.3906 18.7979 25.9922 c 4
 39.9541 27.375 55.3008 33.7734 64.8389 45.1875 c 4
 69.1826 50.3867 75.9092 67.249 85.0166 95.7754 c 4
 127.043 227.929 l 4
 136.678 259.068 130.863 265.943 109.601 248.553 c 4
 63.5596 210.898 l 4
 56.3604 205.011 50.6709 204.387 46.4932 209.029 c 4
 42.5713 213.479 44.8213 220.867 53.2432 231.196 c 4
 165.173 368.749 l 4
 171.701 376.991 180.318 381.112 191.023 381.112 c 4
 231.238 381.112 l 4
 243.647 381.112 247.445 373.344 242.63 357.808 c 4
 183.125 165.823 152.946 68.248 152.094 65.082 c 4
 146.389 43.8965 150.508 31.6113 164.451 28.2266 c 4
 167.93 27.3818 171.956 26.7207 176.529 26.2402 c 4
 190.22 24.8047 195.965 20.3203 193.765 12.7891 c 4
 191.274 4.2627 183.113 0 169.282 0 c 4
 11.2666 0 l 4
 1.79395 0 -1.70605 4.40527 0.768555 13.2148 c 4
EndSplineSet
EndChar

StartChar: uni0223
Encoding: 547 547 104
Width: 1000
VWidth: 2048
Flags: H
LayerCount: 3
Back
SplineSet
41.4941 31.2617 m 4xa8
 64.6084 80.1445 107.617 136.795 170.521 201.214 c 4
 192.498 223.76 208.225 242.612 217.697 257.77 c 4
 227.171 272.927 231.907 283.442 231.907 289.315 c 4
 231.907 295.189 229.729 298.126 225.371 298.126 c 4xa8
 220.823 298.126 212.961 295 201.782 288.747 c 4
 190.604 282.494 179.235 279.368 167.679 279.368 c 4xc8
 156.311 279.368 143.806 284.2 130.164 293.862 c 4
 116.333 303.715 104.018 308.642 93.2178 308.642 c 4
 74.8398 308.642 58.5459 299.168 44.3359 280.221 c 4
 37.1357 270.559 31.4512 260.232 27.2832 249.243 c 4
 23.1152 238.254 16.4844 232.76 7.38965 232.76 c 4
 2.46387 232.76 0 235.033 0 239.581 c 4
 0 244.128 7.29492 269.422 21.8838 315.462 c 4
 38.083 367.755 l 4
 40.9248 376.66 46.04 381.207 53.4297 381.396 c 4
 61.0088 381.586 65.4609 375.617 66.7871 363.492 c 4
 67.9238 353.64 73.5127 348.714 83.5557 348.714 c 4x98
 93.7861 348.714 104.207 353.166 114.817 362.07 c 4
 125.617 371.165 138.405 375.712 153.184 375.712 c 4xc8
 167.963 375.712 180.846 369.934 191.835 358.376 c 4
 202.824 346.818 213.719 341.04 224.519 341.04 c 4
 239.486 341.04 251.991 349.661 262.032 366.902 c 4
 267.148 375.617 273.021 379.976 279.653 379.976 c 4
 282.779 379.976 l 4
 289.032 379.976 292.158 376.565 292.158 369.744 c 4
 292.158 367.092 291.874 364.438 291.305 361.786 c 4
 281.832 315.936 255.97 258.527 213.719 189.562 c 4
 183.782 140.679 164.836 88.0068 156.879 31.5459 c 4
 153.848 10.5156 143.995 0 127.321 0 c 4
 57.4082 0 l 4
 43.5771 0 36.6621 4.7373 36.6621 14.21 c 4
 36.6621 18.7578 38.2725 24.4414 41.4941 31.2617 c 4xa8
EndSplineSet
EndChar

StartChar: Scommaaccent
Encoding: 536 536 105
Width: 1000
VWidth: 2048
Flags: H
LayerCount: 3
Back
SplineSet
158.563 366.05 m 4
 178.646 376.85 199.583 382.06 221.372 381.681 c 4
 233.498 381.491 242.118 380.639 247.234 379.123 c 4
 279.633 370.976 301.99 345.587 314.305 302.957 c 4
 316.768 294.432 318 281.358 318 263.737 c 4
 318 214.855 306.063 164.836 282.19 113.68 c 4
 265.896 78.8184 246.286 50.3984 223.361 28.4199 c 4
 191.531 -2.08398 156.385 -17.4307 117.923 -17.6201 c 4
 80.0293 -17.8096 52.3672 -0.189453 34.9365 35.2412 c 4
 25.085 55.3242 20.1582 79.1973 20.1582 106.859 c 4
 20.1582 134.9 25.2744 165.594 35.5049 198.94 c 4
 45.7363 232.286 58.1465 260.138 72.7354 282.494 c 4
 99.4502 323.609 128.06 351.461 158.563 366.05 c 4
243.539 227.645 m 4
 250.739 264.021 254.339 290.357 254.339 306.652 c 4
 254.339 322.757 251.402 335.546 245.529 345.019 c 4
 239.845 354.113 231.792 358.66 221.372 358.66 c 4
 210.762 358.66 200.246 354.871 189.825 347.292 c 4
 172.016 335.546 154.869 312.336 138.386 277.663 c 4
 121.522 242.423 108.449 203.298 99.166 160.289 c 4
 89.6924 116.521 84.9561 85.8281 84.9561 68.208 c 4
 84.9561 50.209 85.998 38.2725 88.082 32.3984 c 4
 90.3555 25.957 94.2393 19.7988 99.7344 13.9258 c 4
 105.418 7.86328 112.429 4.7373 120.766 4.54688 c 4
 133.648 4.35742 146.438 10.7051 159.132 23.5889 c 4
 171.637 36.2832 182.437 50.9668 191.531 67.6396 c 4
 200.246 83.5547 209.246 105.249 218.529 132.722 c 4
 228.382 161.521 236.719 193.161 243.539 227.645 c 4
EndSplineSet
EndChar

StartChar: uni021A
Encoding: 538 538 106
Width: 1000
VWidth: 2048
Flags: H
LayerCount: 3
Back
SplineSet
323 284 m 4xf6
 323 270 320 257 315 247 c 4
 284.474 185.947 194.974 180.142 133 141 c 4xf6
 113 129 105 120 105 114 c 4
 105 104 122 98 135 92 c 4
 185 69 186 62 218 62 c 4
 241 62 255 82 271 102 c 4
 277 110 281 114 287 114 c 4
 293 114 295 111 295 105 c 4
 295 89 277 55 256 31 c 4
 237 9 212 -8 177 -8 c 4
 137 -8 111 49 73 49 c 4
 62 49 51 44 42 33 c 4
 31 19 28 0 16 0 c 4
 9 0 5 5 5 14 c 4xfa
 5 81 62 140 164 189 c 4
 216 214 255 242 255 305 c 4
 255 338 228 356 195 356 c 4
 166 356 133 338 133 314 c 4
 133 295 157 294 157 268 c 4
 157 246 139 230 117 230 c 4
 91 230 78 250 78 276 c 4
 78 334 133 382 205 382 c 4
 268 382 323 350 323 284 c 4xf6
EndSplineSet
EndChar

StartChar: uni021C
Encoding: 540 540 107
Width: 1000
VWidth: 2048
Flags: H
LayerCount: 3
Back
SplineSet
292.496 294.432 m 4
 296.285 298.031 300.833 299.831 306.138 299.831 c 4
 311.632 299.831 314.38 297.273 314.38 292.158 c 4
 314.38 290.263 314 288.179 313.242 285.905 c 4
 274.591 158.016 l 4
 273.455 154.227 272.887 151.005 272.887 148.353 c 4
 272.887 140.963 277.055 137.269 285.391 137.269 c 4
 314.38 137.269 l 4
 326.126 137.269 332 133.479 332 125.9 c 4
 331.811 124.006 331.432 122.017 330.863 119.933 c 4
 328.399 110.838 322.052 106.291 311.821 106.291 c 4
 278.002 106.291 l 4
 261.519 106.291 251.287 99.2803 247.309 85.2598 c 4
 238.782 55.7031 l 4
 236.888 49.0723 235.94 44.5244 235.94 42.0615 c 4
 236.13 32.9678 241.813 28.041 252.992 27.2832 c 4
 274.307 26.1465 l 4
 286.054 25.3887 291.927 21.8838 291.927 15.6309 c 4
 291.738 14.3047 291.454 12.8838 291.075 11.3682 c 4
 289.181 3.78906 282.359 0 270.612 0 c 4
 100.945 0 l 4
 94.5029 0 91.2822 2.74707 91.2822 8.24219 c 4
 91.2822 10.1367 91.6611 12.2207 92.4189 14.4941 c 4
 94.5029 20.7461 102.84 24.8203 117.429 26.7148 c 4
 132.207 28.6094 143.196 33.1572 150.396 40.3564 c 4
 157.596 47.3672 162.807 55.9873 166.027 66.2188 c 4
 172.848 88.1016 l 4
 173.605 90.5645 173.984 92.7441 173.984 94.6387 c 4
 173.984 102.217 168.017 106.007 156.08 106.007 c 4
 34.7266 106.007 l 4
 24.875 106.007 19.9482 109.796 19.9482 117.375 c 4
 19.9482 119.459 20.5166 122.774 21.6533 127.321 c 4
 22.79 131.869 29.2314 139.542 40.9795 150.342 c 4
 52.916 161.331 63.4307 172.414 72.5254 183.593 c 4
 124.25 247.254 159.964 306.558 179.669 361.502 c 4
 184.784 374.576 194.447 381.112 208.657 381.112 c 4
 274.876 381.112 l 4
 288.138 381.112 294.675 377.702 294.485 370.881 c 4
 294.296 360.461 268.718 329.293 217.751 277.379 c 4
 184.974 243.844 148.027 210.213 106.914 176.488 c 4
 95.5459 166.825 l 4
 84.9355 158.109 79.6299 151.289 79.6299 146.363 c 4
 79.6299 140.3 87.5879 137.269 103.503 137.269 c 4
 161.195 137.269 l 4
 182.416 137.269 195.3 145.132 199.847 160.857 c 4
 211.215 199.793 l 4
 215.572 214.761 222.962 227.266 233.383 237.307 c 4
 292.496 294.432 l 4
EndSplineSet
EndChar

StartChar: uni021D
Encoding: 541 541 108
Width: 1000
VWidth: 2048
Flags: H
LayerCount: 3
Back
SplineSet
69 121 m 7
 91 121 106 105 106 81 c 7
 106 51 76 43 76 24 c 7
 76 13 86 8 110 8 c 4
 142 8 172 30 194 74 c 4
 209 102 216 126 216 144 c 4
 216 179 200 195 167 195 c 4
 117 195 103 161 70 161 c 4
 62 161 59 166 59 171 c 4
 59 178 62 185 64 190 c 6
 124 365 l 6
 126 373 132 377 141 377 c 4
 149 377 173 371 202 371 c 4
 239 371 264 374 288 380 c 4
 294 381 300 382 304 382 c 7
 310 382 314 380 314 374 c 7
 314 372 312 368 308 362 c 4
 286 330 242 308 206 308 c 4
 183 308 171 310 155 310 c 4
 140 310 131 303 126 288 c 6
 112 247 l 6
 111 242 109 237 109 233 c 4
 109 225 113 219 123 219 c 7
 140 219 150 230 189 230 c 7
 250 230 286 193 286 134 c 4
 286 46 209 -18 121 -18 c 4
 62 -18 20 8 20 66 c 7
 20 98 37 121 69 121 c 7
EndSplineSet
EndChar

StartChar: uni021E
Encoding: 542 542 109
Width: 1000
VWidth: 2048
Flags: H
LayerCount: 3
Back
SplineSet
249 260 m 4xfa
 228 260 210 272 210 297 c 4
 210 324 228 330 228 342 c 4xfa
 228 350 221 353 210 353 c 4
 177 353 154 334 139 300 c 4
 132 285 121 252 121 233 c 4
 121 219 125 210 137 210 c 4
 149 210 164 223 199 223 c 4
 247 223 277 182 277 135 c 4xfc
 277 48 217 -18 127 -18 c 4
 59 -18 25 27 25 116 c 4
 25 231 92 381 212 381 c 4
 251 381 294 362 294 314 c 4
 294 285 277 260 249 260 c 4xfa
126 9 m 4
 176 9 206 84 206 138 c 4xfc
 206 170 196 188 168 188 c 4
 152 188 137 180 126 168 c 4
 109 149 95 91 95 57 c 4
 95 25 105 9 126 9 c 4
EndSplineSet
EndChar

StartChar: uni021F
Encoding: 543 543 110
Width: 1000
VWidth: 2048
Flags: H
LayerCount: 3
Back
SplineSet
66 31 m 4xa8
 90 80 133 137 196 201 c 4
 217 224 233 243 243 258 c 4
 252 273 257 283 257 289 c 4
 257 295 255 298 250 298 c 4xa8
 246 298 238 295 227 289 c 4
 216 282 204 279 193 279 c 4xc8
 181 279 169 284 155 294 c 4
 141 304 129 309 118 309 c 4
 89 309 62 277 52 249 c 4
 48 238 41 233 32 233 c 4
 27 233 25 235 25 240 c 4
 25 244 32 269 47 315 c 4
 53 334 60 359 63 368 c 4
 66 377 71 381 78 381 c 6
 79 381 l 6
 86 381 90 375 92 363 c 4
 93 354 99 349 109 349 c 4x98
 119 349 129 353 140 362 c 4
 151 371 163 376 178 376 c 4xc8
 193 376 206 370 217 358 c 4
 228 347 239 341 250 341 c 4
 264 341 277 350 287 367 c 4
 292 376 298 380 305 380 c 6
 308 380 l 6
 314 380 317 377 317 370 c 4
 317 338 280.37 257.966 239 190 c 4
 209 141 190 88 182 32 c 4
 179 11 169 0 158 0 c 7
 142 0 137 8 117 8 c 7
 97 8 97 0 77 0 c 7
 64 0 62 5 62 14 c 4
 62 19 63 24 66 31 c 4xa8
EndSplineSet
EndChar

StartChar: uni0241
Encoding: 577 577 111
Width: 1000
VWidth: 573
Flags: H
LayerCount: 3
Back
SplineSet
323 445 m 4
 350 445 372 439 386 424 c 4
 400 409 407 392 407 373 c 4
 407 355 402 339 391 327 c 4
 380 315 367 310 350 310 c 4
 339 310 329 313 322 320 c 4
 315 327 312 335 312 344 c 4
 312 368 324 383 346 389 c 4
 352 390 355 393 359 394 c 4
 362 395 363 398 363 402 c 4
 363 406 361 409 354 413 c 4
 348 417 341 418 333 418 c 4
 311 418 290 403 271 375 c 4
 256 353 246 330 242 303 c 4
 241 299 241 296 241 293 c 4
 241 279 249 273 264 273 c 4
 382 273 l 4
 405 273 421 283 431 304 c 4
 447 338 465 365 487 386 c 4
 529 426 570 445 608 445 c 4
 635 445 657 439 671 424 c 4
 685 409 692 392 692 373 c 4
 692 355 687 339 676 327 c 4
 665 315 652 310 635 310 c 4
 624 310 614 313 607 320 c 4
 600 327 597 335 597 344 c 4
 597 368 609 383 631 389 c 4
 637 390 640 393 644 394 c 4
 647 395 648 398 648 402 c 4
 648 406 646 409 639 413 c 4
 633 417 626 418 618 418 c 4
 596 418 575 403 556 375 c 4
 541 353 531 330 527 303 c 4
 526 299 526 296 526 293 c 4
 526 279 534 273 549 273 c 4
 610 273 l 4
 623 273 629 267 629 256 c 4
 629 240 620 233 604 233 c 4
 544 233 l 4
 521 233 507 224 502 206 c 4
 490 160 475 115 459 71 c 4
 444 31 427 -10 407 -49 c 4
 386 -90 360 -122 333 -144 c 4
 306 -166 276 -178 243 -178 c 4
 219 -178 202 -170 190 -155 c 4
 178 -140 173 -121 173 -99 c 4
 173 -77 177 -61 185 -51 c 4
 196 -37 210 -30 226 -30 c 4
 241 -30 253 -35 261 -43 c 4
 269 -52 274 -65 274 -82 c 4
 274 -98 265 -111 249 -121 c 4
 246 -123 242 -125 236 -127 c 4
 230 -129 227 -131 227 -135 c 4
 227 -140 232 -143 241 -143 c 4
 266 -143 286 -129 302 -101 c 4
 315 -78 332 -34 353 33 c 4
 367 78 381 135 394 202 c 4
 395 205 395 208 395 210 c 4
 394 225 386 233 369 233 c 4
 259 233 l 4
 236 233 222 224 217 206 c 4
 205 160 190 115 174 71 c 4
 159 31 142 -10 122 -49 c 4
 101 -90 75 -122 48 -144 c 4
 21 -166 -9 -178 -42 -178 c 4
 -66 -178 -83 -170 -95 -155 c 4
 -107 -140 -112 -121 -112 -99 c 4
 -112 -77 -108 -61 -100 -51 c 4
 -89 -37 -75 -30 -59 -30 c 4
 -44 -30 -32 -35 -24 -43 c 4
 -16 -52 -11 -65 -11 -82 c 4
 -11 -98 -20 -111 -36 -121 c 4
 -39 -123 -43 -125 -49 -127 c 4
 -55 -129 -58 -131 -58 -135 c 4
 -58 -140 -53 -143 -44 -143 c 4
 -19 -143 1 -129 17 -101 c 4
 30 -78 47 -34 68 33 c 4
 82 78 96 135 109 202 c 4
 110 205 110 208 110 210 c 4
 109 225 101 233 84 233 c 4
 48 233 l 4
 33 233 26 237 26 246 c 4
 26 253 l 4
 26 266 36 273 57 273 c 4
 97 273 l 4
 120 273 136 283 146 304 c 4
 162 338 180 365 202 386 c 4
 244 426 285 445 323 445 c 4
EndSplineSet
EndChar

StartChar: uni0248
Encoding: 584 584 112
Width: 1000
VWidth: 573
Flags: HM
LayerCount: 3
Back
SplineSet
129 232 m 4
 116 232 96 217 70 185 c 4
 59 172 47 151 34 122 c 4
 30 112 24 105 15 103 c 4
 14 103 13 102 11 102 c 4
 6 102 3 106 3 115 c 4
 3 137 22 172 60 218 c 4
 97 263 136 285 178 286 c 4
 190 286 200 283 207 276 c 4
 214 269 221 263 225 256 c 4
 230 249 236 245 241 245 c 4
 246 245 250 247 254 251 c 4
 278 274 306 286 339 286 c 4
 390 286 416 250 416 179 c 4
 416 130 399 85 364 45 c 4
 329 5 291 -15 250 -15 c 4
 227 -15 209 -8 194 6 c 4
 176 23 164 19 155 -7 c 6
 124 -101 l 6
 118.851 -116.614 114 -134 147 -134 c 6
 198 -134 l 4
 207 -134 212 -138 212 -147 c 4
 212 -148 l 4
 212 -158 206 -163 193 -163 c 4
 -69 -163 l 4
 -79 -163 -84 -158 -84 -150 c 4
 -84 -139 -76 -134 -59 -134 c 4
 -17 -134 l 4
 6 -134 22 -118 33 -86 c 4
 88 77 l 4
 94 94 104 119 117 153 c 4
 130 187 136 209 136 219 c 4
 136 228 134 232 129 232 c 4
314 257 m 4
 290 257 266 236 242 193 c 4
 218 150 206 109 206 67 c 4
 206 54 209 42 216 31 c 4
 223 20 230 15 238 15 c 4
 254 15 267 27 277 53 c 4
 284 71 289 85 293 95 c 4
 304 130 l 4
 324 194 334 230 334 237 c 4
 334 250 327 257 314 257 c 4
114.5 -128.5 m 0
 169.5 34.5 l 1024
EndSplineSet
EndChar

StartChar: uni024C
Encoding: 588 588 113
Width: 1000
VWidth: 573
Flags: H
LayerCount: 3
Back
SplineSet
496 171 m 0
 505 185 516 201 530 218 c 0
 567 263 606 285 648 286 c 0
 660 286 671 283 678 276 c 0
 685 269 690 263 695 256 c 0
 700 249 706 245 711 245 c 0
 716 245 720 247 724 251 c 0
 748 274 776 286 809 286 c 0
 860 286 886 250 886 179 c 0
 886 130 869 85 834 45 c 0
 799 4 761 -15 720 -15 c 0
 693 -15 672 -5 656 15 c 0
 653 19 649 21 645 21 c 0
 636 21 625 2 613 -39 c 0
 601 -80 596 -106 596 -117 c 0
 596 -128 603 -134 617 -134 c 0
 668 -134 l 0
 677 -134 682 -138 682 -147 c 0
 682 -148 l 0
 682 -158 676 -163 663 -163 c 0
 401 -163 l 0
 391 -163 386 -158 386 -150 c 0
 386 -139 394 -134 411 -134 c 0
 453 -134 l 0
 476 -134 492 -118 503 -86 c 0
 559 77 l 0
 565 94 574 119 587 153 c 0
 600 187 606 209 606 219 c 0
 606 228 604 232 599 232 c 0
 586 232 566 217 540 185 c 0
 536 180 532 174 528 168 c 0
 519 153 509 145 499 143 c 0
 482 140 482 148 496 171 c 0
784 257 m 0
 760 257 736 236 712 193 c 0
 688 150 676 109 676 67 c 0
 676 54 679 42 686 31 c 0
 693 20 700 15 708 15 c 0
 724 15 737 27 747 53 c 0
 754 71 760 85 763 95 c 0
 774 130 l 0
 794 194 804 230 804 237 c 0
 804 250 797 257 784 257 c 0
148 233 m 0
 148 218 l 0
 148 210 149 206 153 206 c 0
 156 206 162 211 170 221 c 0
 204 262 235 282 262 282 c 0
 276 282 287 277 293 268 c 0
 299 259 302 247 302 234 c 0
 302 217 l 0
 302 208 303 204 307 204 c 0
 311 204 318 209 326 220 c 0
 358 261 389 282 418 282 c 0
 434 282 446 276 454 266 c 0
 462 256 465 244 465 230 c 0
 465 216 462 201 456 185 c 0
 450 170 440 148 425 121 c 0
 400 76 388 48 388 36 c 0
 388 25 392 19 402 19 c 0
 423 19 449 50 480 111 c 0
 484 118 487 122 491 122 c 0
 492 122 495 121 496 120 c 0
 502 116 504 112 504 108 c 0
 504 103 503 99 501 95 c 0
 485 63 468 38 449 18 c 0
 432 0 414 -9 395 -9 c 0
 376 -9 363 -3 354 8 c 0
 346 19 342 32 342 48 c 0
 342 74 356 111 385 161 c 0
 392 173 l 0
 413 208 423 230 423 239 c 0
 423 248 418 253 408 253 c 0
 387 253 360 230 328 186 c 0
 296 141 268 89 244 26 c 0
 237 9 228 0 218 0 c 0
 200 0 l 0
 191 0 187 4 187 11 c 0
 187 14 189 17 190 21 c 0
 249 185 l 0
 260 214 265 233 265 241 c 0
 265 249 261 253 252 253 c 0
 234 253 209 231 176 188 c 0
 143 145 111 87 82 18 c 0
 77 6 70 0 61 0 c 0
 40 0 l 0
 31 0 27 4 27 10 c 0
 27 12 28 14 29 17 c 0
 89 185 l 0
 100 214 106 233 106 241 c 0
 106 249 101 253 93 253 c 0
 77 253 57 226 29 173 c 0
 23 162 17 157 10 157 c 0
 4 157 0 160 0 166 c 0
 0 169 1 174 4 180 c 0
 17 210 33 235 50 254 c 0
 66 272 83 282 100 282 c 0
 117 282 130 277 137 267 c 0
 144 257 148 247 148 233 c 0
EndSplineSet
EndChar

StartChar: lcaron
Encoding: 318 318 114
Width: 1000
VWidth: 0
Flags: H
LayerCount: 3
Back
SplineSet
18 -88 m 4
 11 -88 0 -77 0 -68 c 4
 0 -62 4 -56 11 -46 c 6
 119 96 l 6
 133 113 143 122 154 122 c 4
 163 122 172 115 183 101 c 6
 228 41 l 6
 246 18 259 7 272 7 c 4
 284 7 295 16 308 34 c 6
 358 99 l 6
 369 114 380 121 390 121 c 4
 400 121 409 115 418 102 c 6
 467 38 l 6
 481 20 492 11 503 11 c 4
 515 11 527 22 544 44 c 6
 569 77 l 6
 719.33 275.435 857.312 355.284 1023.33 346.381 c 4
 1039.26 345.528 1070.17 341.5 1057.33 326.813 c 4
 1050.13 318.565 1050.53 317.26 1013.33 317.078 c 4
 792.978 315.999 671.223 151.908 587 41 c 6
 486 -92 l 6
 471 -112 460 -121 449 -121 c 4
 437 -121 426 -110 411 -90 c 6
 371 -38 l 6
 354 -17 342 -6 331 -6 c 4
 318 -6 306 -18 289 -40 c 6
 246 -96 l 6
 233 -112 222 -119 212 -119 c 4
 200 -119 189 -109 176 -93 c 6
 125 -26 l 6
 113 -10 105 -3 97 -3 c 4
 88 -3 80 -14 68 -30 c 6
 35 -74 l 6
 27 -84 22 -88 18 -88 c 4
EndSplineSet
EndChar

StartChar: Ldot
Encoding: 319 319 115
Width: 1000
VWidth: 0
Flags: HM
LayerCount: 3
Back
SplineSet
18 -88 m 4
 11 -88 0 -77 0 -68 c 4
 0 -62 4 -56 11 -46 c 6
 119 96 l 6
 133 113 143 122 154 122 c 4
 163 122 172 115 183 101 c 6
 228 41 l 6
 246 18 259 7 272 7 c 4
 284 7 295 16 308 34 c 6
 358 99 l 6
 369 114 380 121 390 121 c 4
 400 121 409 115 418 102 c 6
 467 38 l 6
 481 20 492 11 503 11 c 4
 515 11 527 22 544 44 c 6
 550 52 l 6
 662 200 790 229 844 232 c 4
 847 232 850 232 852 232 c 4
 870 232 889 229 889 219 c 4
 889 218 l 4
 887 206 881 195 859 192 c 4
 775 181 681 165 566 13 c 6
 486 -92 l 6
 471 -112 460 -121 449 -121 c 4
 437 -121 426 -110 411 -90 c 6
 371 -38 l 6
 354 -17 342 -6 331 -6 c 4
 318 -6 306 -18 289 -40 c 6
 246 -96 l 6
 233 -112 222 -119 212 -119 c 4
 200 -119 189 -109 176 -93 c 6
 125 -26 l 6
 113 -10 105 -3 97 -3 c 4
 88 -3 80 -14 68 -30 c 6
 35 -74 l 6
 27 -84 22 -88 18 -88 c 4
EndSplineSet
EndChar

StartChar: uni020E
Encoding: 526 526 116
Width: 1000
VWidth: 1372
Flags: H
LayerCount: 3
Back
SplineSet
93 245 m 4
 106 252 120 256 135 256 c 4
 143 256 149 255 152 254 c 4
 174 249 189 232 197 203 c 4
 199 197 200 189 200 177 c 4
 200 144 192 110 176 76 c 4
 165 53 151 34 136 19 c 4
 115 -1 92 -12 66 -12 c 4
 41 -12 22 0 10 24 c 4
 3 37 0 53 0 72 c 4
 0 91 3 111 10 133 c 4
 17 155 25 174 35 189 c 4
 53 217 73 235 93 245 c 4
150 153 m 4
 155 177 157 194 157 205 c 4
 157 216 155 225 151 231 c 4
 147 237 142 240 135 240 c 4
 128 240 121 238 114 233 c 4
 102 225 90 209 79 186 c 4
 68 162 59 136 53 107 c 4
 47 78 43 58 43 46 c 4
 43 34 45 26 46 22 c 4
 48 18 49 13 53 9 c 4
 57 5 61 3 67 3 c 4
 76 3 84 7 93 16 c 4
 101 25 109 34 115 45 c 4
 121 56 127 71 133 89 c 4
 140 108 145 130 150 153 c 4
EndSplineSet
EndChar

StartChar: uni020F
Encoding: 527 527 117
Width: 1000
VWidth: 1372
Flags: H
LayerCount: 3
Back
SplineSet
1 10 m 4
 2 15 7 20 14 20 c 4
 28 21 38 25 44 33 c 4
 47 36 52 48 58 67 c 4
 85 153 l 6
 90 168 84 176 73 167 c 6
 42 141 l 6
 37 137 29 137 26 140 c 4
 23 143 25 148 31 155 c 4
 103 241 l 6
 111 250 115 255 131 255 c 6
 148 255 l 6
 166 255 164 244 160 229 c 4
 122 107 104 49 103 47 c 4
 98 29 106 22 119 21 c 4
 128 20 131 15 130 10 c 4
 129 4 122 0 113 0 c 4
 8 0 l 4
 2 0 -1 4 1 10 c 4
EndSplineSet
EndChar

StartChar: uni0216
Encoding: 534 534 118
Width: 1000
VWidth: 1372
Flags: H
LayerCount: 3
Back
SplineSet
105 -13 m 4xf8
 60 -13 10 12 10 58 c 4
 10 83 25 103 57 120 c 4
 67 125 73 133 73 141 c 4
 73 145 71 149 69 153 c 4
 63 165 60 177 60 187 c 4
 60 197 62 206 66 214 c 4
 80 241 106 255 143 255 c 4
 190 255 235 230 235 187 c 4xf4
 235 165 222 146 198 131 c 4
 190 126 187 121 187 116 c 4
 187 111 188 107 191 102 c 4
 200 88 207 77 207 59 c 31
 207 10 157 -13 105 -13 c 4xf8
204 187 m 4
 204 217 178 231 150 231 c 4
 131 231 113 224 113 207 c 4
 113 200 115 192 118 186 c 4
 121 180 126 172 139 158 c 4
 147 149 156 146 167 146 c 4
 186 146 204 169 204 187 c 4
41 59 m 4
 41 27 73 12 107 12 c 4
 137 12 153 19 153 40 c 4xf8
 153 65 117 102 90 102 c 4
 67 102 41 83 41 59 c 4
EndSplineSet
EndChar

StartChar: uni0217
Encoding: 535 535 119
Width: 1000
VWidth: 1372
Flags: H
LayerCount: 3
Back
SplineSet
56 8 m 4xf4
 75 8 94 31 112 77 c 4
 114 83 116 87 116 91 c 4
 116 97 113 100 107 100 c 4
 103 100 97 98 89 95 c 4
 81 92 71 90 59 90 c 4
 47 90 35 95 24 104 c 4
 13 113 8 130 8 154 c 4xec
 8 178 16 201 33 221 c 4
 52 244 77 256 110 256 c 4
 159 256 184 226 184 165 c 4
 184 126 173 89 149 53 c 4
 133 29 117 13 99 3 c 4
 81 -7 65 -12 53 -12 c 4
 41 -12 31 -9 21 -2 c 4
 7 8 0 21 0 37 c 4xf4
 0 46 2 53 8 58 c 4xec
 14 63 21 65 29 65 c 4
 37 65 44 62 49 55 c 4
 51 52 52 48 52 43 c 4
 52 39 51 35 49 29 c 4
 47 24 46 20 46 17 c 4
 46 11 49 8 56 8 c 4xf4
54 148 m 4
 54 128 63 118 81 118 c 4
 103 118 119 135 131 171 c 4
 135 184 137 195 137 205 c 4
 137 215 136 222 131 228 c 4
 126 234 120 238 113 238 c 4
 94 238 78 224 65 196 c 4
 58 180 54 164 54 148 c 4
EndSplineSet
EndChar

StartChar: uni000E
Encoding: 14 14 120
Width: 1000
VWidth: 970
Flags: H
LayerCount: 3
Back
SplineSet
119 48 m 6xf4
 119 63 117 67 101 67 c 6
 33 67 l 6
 18 67 19 74 19 79 c 4
 19 84 19 87 28 103 c 4
 52 148 68 174 84 224 c 4
 98 263 98 265 112 265 c 7
 122 265 123 262 137 262 c 7
 151 262 152 265 161 265 c 7
 167 265 172 263 172 254 c 4xf8
 172 239 160 221 112 173 c 4
 71 132 58 111 58 104 c 4
 58 99 58 92 73 92 c 6
 99 92 l 6
 114 92 117 95 118 102 c 4
 118 107 118 128 119 137 c 4
 120 147 123 155 130 160 c 4
 161 180 162 185 171 185 c 4
 176 185 180 185 180 174 c 4
 180 160 178 141 178 109 c 4
 178 100 181 93 193 93 c 6
 223 93 l 6
 238 93 239 89 239 81 c 6
 239 79 l 6
 239 73 237 67 217 67 c 6
 198 67 l 6
 183 67 178 66 178 44 c 6
 178 39 l 6
 178 20 191 23 215 21 c 4
 224 20 224 16 224 11 c 4
 224 0 222 0 207 0 c 4
 191 0 158 0 148 0 c 4
 132 0 110 0 94 0 c 4
 77 0 75 -1 75 12 c 4
 75 16 76 19 85 20 c 4
 107 22 119 18 119 39 c 6
 119 48 l 6xf4
EndSplineSet
EndChar

StartChar: C
Encoding: 67 67 121
Width: 1000
VWidth: 0
Flags: HM
LayerCount: 3
Back
SplineSet
259 923 m 4
 293 923 381 803 381 604 c 4
 381 465 311 399 278 361 c 4
 268 350 262 340 262 326 c 4
 262 322 263 317 264 311 c 6
 284 234 l 6
 290 209 301 209 316 209 c 6
 317 209 l 6
 419 209 547 153 547 -8 c 4
 547 -120 472 -177 437 -197 c 4
 416 -210 407 -216 407 -229 c 4
 407 -234 409 -241 411 -249 c 6
 432 -326 l 6
 440 -356 446 -392 446 -420 c 4
 446 -481.014 425.109 -530.633 386.138 -559.728 c 5
 424.477 -564.029 456 -587.24 456 -625 c 4
 456 -676 410 -671 410 -689 c 4
 410 -702 433 -708 433 -747 c 4
 433 -807 380 -827 328 -827 c 4
 282 -827 240 -807 240 -759 c 4
 240 -707 296 -697 296 -680 c 4
 296 -665 278 -661 278 -634 c 4
 278 -615.23 284.603 -599.836 295.56 -587.984 c 5
 294.71 -587.995 293.857 -588 293 -588 c 4
 214 -588 143 -529 143 -450 c 4
 143 -396 178 -352 239 -352 c 4
 289 -352 327 -396 327 -446 c 4
 327 -533 261 -514 261 -534 c 4
 261 -548 279 -549 293 -549 c 4
 368 -549 406 -492 406 -421 c 4
 406 -402 403 -383 398 -363 c 6
 371 -262 l 6
 365 -240 354 -235 338 -235 c 4
 323 -235 303 -240 279 -240 c 4
 113 -240 0 -110 0 46 c 4
 0 274 191 403 191 443 c 4
 191 467 149 530 149 641 c 4
 149 759 210 923 259 923 c 4
287 810 m 4
 261 810 204 722 204 610 c 4
 204 572 211 531 219 505 c 4
 223 490 229 483 236 483 c 4
 242 483 249 488 258 498 c 4
 288 532 329 606 329 689 c 4
 329 723 310 810 287 810 c 4
355 82 m 4
 337 82 332 75 332 65 c 4
 332 60 333 53 335 47 c 6
 380 -126 l 6
 389 -159 389 -160 401 -160 c 4
 429 -160 471 -100 471 -36 c 4
 471 15 437 82 355 82 c 4
263 58 m 4
 232 48 216 5 216 -34 c 4
 216 -84 249 -113 249 -135 c 4
 249 -145 241 -154 230 -154 c 4
 207 -154 151 -76 151 6 c 4
 151 94 191 139 219 162 c 5
 241 178 247 187 247 200 c 4
 247 206 246 212 244 221 c 6
 235 258 l 6
 232 270 227 275 221 275 c 4
 211 275 198 263 181 245 c 4
 141 200 85 133 85 2 c 4
 85 -113 159 -202 271 -202 c 4
 322 -202 341 -191 341 -163 c 4
 341 -155 340 -147 338 -137 c 6
 293 37 l 6
 288.871 52.9671 284 60 274 60 c 4
 271 60 267 59 263 58 c 4
326 -710 m 4
 299 -710 268 -731 268 -760 c 4
 268 -784 285 -804 331 -804 c 4
 360 -804 387 -797 387 -768 c 4
 387 -749 349 -710 326 -710 c 4
374 -580 m 4
 350 -580 320 -590 320 -611 c 4
 320 -625 355 -663 382 -663 c 4
 399 -663 430 -647 430 -624 c 4
 430 -600 406 -580 374 -580 c 4
EndSplineSet
EndChar

StartChar: D
Encoding: 68 68 122
Width: 1000
VWidth: 0
Flags: HM
LayerCount: 3
Back
SplineSet
287 810 m 4
 261 810 204 722 204 610 c 4
 204 572 211 531 219 505 c 4
 223 490 229 483 236 483 c 4
 242 483 249 488 258 498 c 4
 288 532 329 606 329 689 c 4
 329 723 310 810 287 810 c 4
355 82 m 4
 337 82 332 75 332 65 c 4
 332 60 333 53 335 47 c 6
 380 -126 l 6
 389 -159 389 -160 401 -160 c 4
 429 -160 471 -100 471 -36 c 4
 471 15 437 82 355 82 c 4
263 58 m 4
 232 48 216 5 216 -34 c 4
 216 -84 249 -113 249 -135 c 4
 249 -145 241 -154 230 -154 c 4
 207 -154 151 -76 151 6 c 4
 151 94 191 139 219 162 c 5
 241 178 247 187 247 200 c 4
 247 206 246 212 244 221 c 6
 235 258 l 6
 232 270 227 275 221 275 c 4
 211 275 198 263 181 245 c 4
 141 200 85 133 85 2 c 4
 85 -113 159 -202 271 -202 c 4
 322 -202 341 -191 341 -163 c 4
 341 -155 340 -147 338 -137 c 6
 293 37 l 6
 288.871 52.9671 284 60 274 60 c 4
 271 60 267 59 263 58 c 4
220 1019 m 4
 193 1019 162 998 162 969 c 4
 162 945 179 925 225 925 c 4
 254 925 281 932 281 961 c 4
 281 980 243 1019 220 1019 c 4
268 1149 m 4
 244 1149 214 1139 214 1118 c 4
 214 1104 249 1066 276 1066 c 4
 293 1066 324 1082 324 1105 c 4
 324 1129 300 1149 268 1149 c 4
350 1104 m 4
 350 1053 304 1058 304 1040 c 4
 304 1027 327 1021 327 982 c 4
 327 945.644 307.54 923.974 280.635 912.541 c 5
 320.69 879.344 381 768.743 381 604 c 4
 381 465 311 399 278 361 c 4
 268 350 262 340 262 326 c 4
 262 322 263 317 264 311 c 6
 284 234 l 6
 290 209 301 209 316 209 c 6
 317 209 l 6
 419 209 547 153 547 -8 c 4
 547 -120 472 -177 437 -197 c 4
 416 -210 407 -216 407 -229 c 4
 407 -234 409 -241 411 -249 c 6
 432 -326 l 6
 440 -356 446 -392 446 -420 c 4
 446 -519 391 -588 293 -588 c 4
 214 -588 143 -529 143 -450 c 4
 143 -396 178 -352 239 -352 c 4
 289 -352 327 -396 327 -446 c 4
 327 -533 261 -514 261 -534 c 4
 261 -548 279 -549 293 -549 c 4
 368 -549 406 -492 406 -421 c 4
 406 -402 403 -383 398 -363 c 6
 371 -262 l 6
 365 -240 354 -235 338 -235 c 4
 323 -235 303 -240 279 -240 c 4
 113 -240 0 -110 0 46 c 4
 0 274 191 403 191 443 c 4
 191 467 149 530 149 641 c 4
 149 733.436 186.433 854.101 226.206 902.044 c 5
 224.804 902.015 223.402 902 222 902 c 4
 176 902 134 922 134 970 c 4
 134 1022 190 1032 190 1049 c 4
 190 1064 172 1068 172 1095 c 4
 172 1144 217 1170 267 1170 c 4
 311 1170 350 1146 350 1104 c 4
EndSplineSet
EndChar

StartChar: F
Encoding: 70 70 123
Width: 1664
VWidth: 0
Flags: MW
VStem: -323 34<-304 616>
LayerCount: 3
Back
SplineSet
497 104 m 4
 497 132 520 154 548 154 c 4
 576 154 599 132 599 104 c 4
 599 75 576 53 548 53 c 4
 520 53 497 75 497 104 c 4
504 -87 m 4
 504 -60 527 -37 555 -37 c 4
 583 -37 606 -60 606 -87 c 4
 606 -116 583 -139 555 -139 c 4
 527 -139 504 -116 504 -87 c 4
271 314 m 4
 244 314 213 293 213 264 c 4
 213 240 230 220 276 220 c 4
 305 220 332 227 332 256 c 4
 332 275 294 314 271 314 c 4
319 444 m 4
 295 444 265 434 265 413 c 4
 265 399 300 361 327 361 c 4
 344 361 375 377 375 400 c 4
 375 424 351 444 319 444 c 4
401 399 m 4
 401 348 355 353 355 335 c 4
 355 322 378 316 378 277 c 4
 378 227.995 342.645 205.674 301.356 199.138 c 5
 411.86 174.171 472 72.8477 472 -39 c 4
 472 -289 138 -486 10 -486 c 4
 4 -486 0 -481 0 -475 c 4
 0 -462 13 -457 26 -452 c 4
 229 -381 363 -214 363 0 c 4
 363 80 313 164 232 164 c 4
 175 164 123 119 123 96 c 4
 123 89 129 84 141 84 c 4
 148 84 154 85 160 85 c 4
 206 85 242 46 242 0 c 4
 242 -49 201 -87 152 -87 c 4
 95 -87 60 -30 60 28 c 4
 60 121.821 140.102 195.397 229.283 204.131 c 5
 203.448 213.674 185 233.188 185 265 c 4
 185 317 241 327 241 344 c 4
 241 359 223 363 223 390 c 4
 223 439 268 465 318 465 c 4
 362 465 401 441 401 399 c 4
EndSplineSet
Fore
SplineSet
904 128 m 0
 904 141 911 147 920 147 c 0
 923 147 926 147 930 146 c 2
 1590 30 l 2
 1640 21 1664 11 1664 0 c 0
 1664 -10 1637 -22 1582 -31 c 2
 933 -145 l 2
 929 -146 925 -147 922 -147 c 0
 914 -147 908 -140 908 -127 c 0
 908 -116 916 -114 927 -112 c 2
 1360 -36 l 2
 1425 -25 1457 -12 1457 0 c 0
 1457 12 1426 24 1364 35 c 2
 924 113 l 2
 912 115 904 118 904 128 c 0
760 -128 m 0
 760 -141 753 -147 744 -147 c 0
 741 -147 738 -147 734 -146 c 2
 74 -30 l 2
 24 -21 0 -11 0 0 c 0
 0 10 27 22 82 31 c 2
 731 145 l 2
 735 146 739 147 742 147 c 0
 750 147 756 140 756 127 c 0
 756 116 748 114 737 112 c 2
 304 36 l 2
 239 25 207 12 207 0 c 0
 207 -12 238 -24 300 -35 c 2
 740 -113 l 2
 752 -115 760 -118 760 -128 c 0
EndSplineSet
EndChar

StartChar: uni0316
Encoding: 790 790 124
Width: 1000
VWidth: 0
Flags: H
LayerCount: 3
Back
SplineSet
65.002 313.5 m 5
 65 313.5 l 5
 65 319 l 6
 65 327.152 64.6064 334.224 64.8066 340.09 c 4
 61.8682 386.752 26.126 344.5 6 344.5 c 4
 3 344.5 0 346.5 0 351.5 c 4
 0 361.5 10 370.5 43 429.5 c 4
 71 478.5 73 498.5 84 498.5 c 4
 97 498.5 94.8721 479.43 123 428.5 c 4
 152.864 374.425 165 363.5 165 351.5 c 4
 165 345.5 160 344.5 157 344.5 c 4
 134 344.5 103 387.5 103 333.5 c 6
 103 324 l 5
 103 313.5 l 1029
189 -166 m 3x6c
 176 -166 91 -202 79 -202 c 3
 64 -202 64 -184 64 -145 c 3
 64 -24 66 3 66 55 c 3
 66 193 64 251 64 319 c 3
 64 345 61 360 85 360 c 3
 99 360 104 359 104 324 c 3
 104 260 103 252 103 196 c 3
 103 173 107 166 116 166 c 3x9c
 127 166 214 203 227 203 c 3
 238 203 241 193 241 162 c 3
 241 79 239 75 239 -52 c 3
 239 -190 241 -193 241 -321 c 3
 241 -358 238 -360 219 -360 c 3
 203 -360 202 -346 202 -320 c 3
 202 -316 203 -245 203 -206 c 0
 203 -175 199 -166 189 -166 c 3x6c
EndSplineSet
EndChar

StartChar: uni0317
Encoding: 791 791 125
Width: 1000
VWidth: 0
Flags: H
LayerCount: 3
Back
SplineSet
125 -166 m 7x6c
 112 -166 27 -202 15 -202 c 7
 0 -202 0 -184 0 -145 c 7
 0 -24 2 3 2 55 c 7
 2 193 0 251 0 319 c 7
 0 345 -3 360 21 360 c 7
 35 360 40 359 40 324 c 7
 40 260 39 252 39 196 c 7
 39 173 43 166 52 166 c 7x9c
 63 166 150 203 163 203 c 7
 174 203 177 193 177 162 c 7
 177 79 175 75 175 -52 c 7
 175 -190 177 -193 177 -321 c 7
 177 -358 174 -360 155 -360 c 7
 139 -360 138 -346 138 -320 c 7
 138 -316 139 -245 139 -206 c 4
 139 -175 135 -166 125 -166 c 7x6c
EndSplineSet
EndChar

StartChar: uni031C
Encoding: 796 796 126
Width: 1000
VWidth: 0
Flags: H
LayerCount: 3
Back
SplineSet
58 -62 m 4x70
 52 -64 35 -69 30 -69 c 4
 21 -69 20 -61 20 -42 c 4
 20 -15 18 -5 42 2 c 4
 64 9 228 62 235 64 c 4
 239 65 253 69 259 69 c 4
 275 69 273 61 273 33 c 7
 273 4 271 6 249 -1 c 4
 226 -8 69 -59 58 -62 c 4x70
227 -273 m 7
 227 -296 224 -301 204 -301 c 7
 192 -301 187 -296 187 -276 c 7
 187 -248 193 -52 193 24 c 7
 193 158 187 319 187 327 c 7
 187 340 190 352 209 352 c 4
 225 352 227 345 227 326 c 7
 227 291 226 165 226 26 c 7
 226 -68 227 -234 227 -273 c 7
65 284 m 7
 65 307 69 312 89 312 c 7xb0
 101 312 106 307 106 287 c 7
 106 259 100 63 100 -13 c 7
 100 -147 105 -308 105 -316 c 7
 105 -329 99 -339 81 -339 c 4
 71 -339 66 -334 66 -315 c 7
 66 -280 68 -154 68 -15 c 7
 68 79 65 245 65 284 c 7
56 -198 m 4
 50 -200 35 -204 30 -204 c 4
 21 -204 20 -196 20 -177 c 6
 20 -165 l 6
 20 -144 22 -139 42 -133 c 4
 64 -126 228 -73 235 -71 c 4
 239 -70 252 -67 258 -67 c 4
 274 -67 273 -83 273 -97 c 7
 273 -126 271 -129 249 -136 c 4
 226 -143 67 -195 56 -198 c 4
54 73 m 4
 48 72 37 69 32 69 c 4x70
 20 69 20 79 20 95 c 4
 20 112 17 130 42 138 c 4
 65 146 226 197 239 201 c 4
 245 203 257 206 262 206 c 4
 273 206 273 198 273 179 c 7
 273 145 269 142 250 136 c 4
 232 130 67 76 54 73 c 4
EndSplineSet
EndChar

StartChar: uni0320
Encoding: 800 800 127
Width: 1000
VWidth: 0
Flags: H
LayerCount: 3
Back
SplineSet
227 -273 m 7
 227 -296 224 -301 204 -301 c 7
 192 -301 187 -296 187 -276 c 7
 187 -248 193 -52 193 24 c 7
 193 158 187 319 187 327 c 7
 187 340 190 352 209 352 c 4
 225 352 227 345 227 326 c 7
 227 291 226 165 226 26 c 7
 226 -68 227 -234 227 -273 c 7
65 284 m 7
 65 307 69 312 89 312 c 7
 101 312 106 307 106 287 c 7
 106 259 100 63 100 -13 c 7
 100 -147 105 -308 105 -316 c 7
 105 -329 99 -339 81 -339 c 4
 71 -339 66 -334 66 -315 c 7
 66 -280 68 -154 68 -15 c 7
 68 79 65 245 65 284 c 7
54 -74 m 4
 48 -75 37 -78 32 -78 c 4
 20 -78 20 -66 20 -42 c 4
 20 -13 17 3 42 11 c 4
 65 19 226 70 239 74 c 4
 245 76 257 79 262 79 c 4
 273 79 273 68 273 42 c 7
 273 -8 269 -5 250 -11 c 4
 232 -17 67 -71 54 -74 c 4
EndSplineSet
EndChar

StartChar: ampersand
Encoding: 38 38 128
Width: 833
VWidth: 0
Flags: MW
LayerCount: 3
Fore
SplineSet
750 0 m 0
 750 23 769 42 792 42 c 0
 815 42 833 23 833 0 c 0
 833 -23 815 -42 792 -42 c 0
 769 -42 750 -23 750 0 c 0
600 0 m 0
 600 23 619 42 642 42 c 0
 665 42 683 23 683 0 c 0
 683 -23 665 -42 642 -42 c 0
 619 -42 600 -23 600 0 c 0
450 0 m 0
 450 23 469 42 492 42 c 0
 515 42 533 23 533 0 c 0
 533 -23 515 -42 492 -42 c 0
 469 -42 450 -23 450 0 c 0
300 0 m 0
 300 23 319 42 342 42 c 0
 365 42 383 23 383 0 c 0
 383 -23 365 -42 342 -42 c 0
 319 -42 300 -23 300 0 c 0
150 0 m 0
 150 23 169 42 192 42 c 0
 215 42 233 23 233 0 c 0
 233 -23 215 -42 192 -42 c 0
 169 -42 150 -23 150 0 c 0
0 0 m 0
 0 23 19 42 42 42 c 0
 65 42 83 23 83 0 c 0
 83 -23 65 -42 42 -42 c 0
 19 -42 0 -23 0 0 c 0
EndSplineSet
EndChar

StartChar: P
Encoding: 80 80 132
Width: 511
VWidth: 0
Flags: HMW
LayerCount: 3
Back
SplineSet
496 -8 m 2
 9 -138 l 1
 0 -104 l 1
 335 -14 l 2
 341 -12 344 -7 344 -1 c 0
 344 6 340 12 335 14 c 2
 0 104 l 1
 9 138 l 1
 492 9 l 2
 505 5 510 3 510 0 c 0
 510 -3 507 -5 496 -8 c 2
-1220 -113 m 0
 -1224 -98 -1218 -95 -1199 -91 c 2
 -917 -20 l 2
 -872.077 -8.68945 -867.104 7.57422 -921 21 c 2
 -1198 90 l 2
 -1218 95 -1224 99 -1220 114 c 0
 -1216 128 -1209 128 -1189 123 c 2
 -773 19 l 2
 -734 9 -732.053 -8.78516 -769 -18 c 2
 -1190 -123 l 2
 -1209 -128 -1216 -128 -1220 -113 c 0
-1342 232 m 1
 -1342 -304 l 1
 -1376 -304 l 1
 -1376 232 l 1
 -1342 232 l 1
-1214 -130 m 1
 -1222 -97 l 1
 -834 0 l 1
 -1222 97 l 1
 -1214 130 l 1
 -694 0 l 1
 -1214 -130 l 1
-1954 -126 m 0
 -1963 -126 -1969 -117 -1969 -106 c 0
 -1969 -97 -1962 -94 -1947 -91 c 2
 -1665 -20 l 2
 -1642 -14 -1630 -7 -1630 0 c 0
 -1630 7 -1642 15 -1669 21 c 2
 -1946 90 l 2
 -1962 94 -1969 97 -1969 106 c 0
 -1969 118 -1963 126 -1954 126 c 0
 -1950 126 -1944 125 -1937 123 c 2
 -1521 19 l 2
 -1501 14 -1490 6 -1490 -1 c 0
 -1490 -7 -1499 -14 -1517 -18 c 2
 -1938 -123 l 2
 -1945 -125 -1950 -126 -1954 -126 c 0
1104 -35 m 5
 587 104 l 5
 596 138 l 5
 1113 0 l 5
 1104 -35 l 5
1104 35 m 5
 1113 0 l 5
 596 -138 l 5
 587 -104 l 5
 1104 35 l 5
517 0 m 1
 0 -138 l 1
 -9 -104 l 1
 377.82 0 l 1
 -9 104 l 1
 0 138 l 1
 517 0 l 1
EndSplineSet
Fore
SplineSet
497 -8 m 2
 10 -138 l 1
 0 -101 l 1
 335 -11 l 2
 340 -10 343 -6 343 -1 c 0
 343 6 340 9 335 11 c 2
 0 101 l 1
 10 138 l 1
 493 9 l 2
 506 5 511 3 511 0 c 0
 511 -3 508 -5 497 -8 c 2
EndSplineSet
EndChar

StartChar: bracketleft
Encoding: 91 91 137
Width: 373
VWidth: 0
Flags: HMW
LayerCount: 3
Back
SplineSet
361 -8 m 6
 13 -148 l 5
 0 -116 l 5
 256 -12 l 6
 260.144 -10.3164 262 -5 262 0 c 4
 262 6 259 11 254 13 c 6
 0 116 l 5
 13 148 l 5
 361 8 l 6
 369 5 372 3 372 0 c 4
 372 -2 368.065 -5.15723 361 -8 c 6
349 0 m 1
 -12 -146 l 1
 -26 -110 l 1
 245 0 l 1
 -26 110 l 1
 -12 146 l 1
 349 0 l 1
-146 232 m 1
 -146 -304 l 1
 -180 -304 l 1
 -180 232 l 1
 -146 232 l 1
EndSplineSet
Fore
SplineSet
362 -8 m 2
 14 -148 l 1
 0 -113 l 1
 252 -11 l 2
 258 -8 259 -4 259 0 c 0
 259 4 257 9 250 11 c 2
 0 113 l 1
 14 148 l 1
 362 8 l 2
 370 5 373 3 373 0 c 0
 373 -2 369 -5 362 -8 c 2
EndSplineSet
EndChar

StartChar: ograve
Encoding: 242 242 138
Width: 532
VWidth: 0
Flags: HMW
HStem: -15 29<-90.5915 -1.1388 31.649 158.572 187.984 316.279 347.586 439.978> 246 20G<167 180.5>
VStem: 158 30<-265.961 -173.331 -142.051 -15.1273 14.4375 142.531 173.256 265.501>
LayerCount: 3
Fore
SplineSet
379 -16 m 0
 343 -16 311 -16 302 -16 c 0
 288 -16 280 -27 280 -41 c 2
 280 -108 l 2
 280 -134 291 -144 315 -137 c 0
 356 -122 389 -89 404 -48 c 0
 410 -29 401 -17 379 -16 c 0
433 -60 m 0
 414 -112 371 -153 318 -169 c 0
 318 -169 l 0
 291 -176 281 -188 281 -213 c 2
 281 -242 l 2
 281 -261 279 -266 267 -266 c 0
 255 -266 249 -263 249 -240 c 2
 249 -203 l 2
 249 -183 235 -175 213 -169 c 0
 157 -152 113 -108 97 -51 c 0
 91 -31 81 -17 58 -17 c 2
 37 -17 l 2
 1 -17 0 -14 0 -2 c 2
 0 0 l 2
 0 12 8 16 31 16 c 2
 61 16 l 2
 81 16 90 29 95 49 c 0
 110 113 154 155 212 170 c 0
 239 177 249 189 249 214 c 0
 249 222 249 228 249 230 c 0
 249 266 255 266 263 266 c 2
 266 266 l 2
 279 266 282 262 282 244 c 0
 282 240 282 228 282 211 c 0
 282 187 291 177 317 170 c 0
 378 153 421 108 436 49 c 0
 442 29 451 15 472 15 c 2
 508 15 l 2
 527 15 532 12 532 0 c 0
 532 -14 529 -18 506 -18 c 0
 498 -18 486 -18 472 -17 c 0
 447 -17 441 -35 433 -60 c 0
149 16 m 0
 185 16 216 15 223 15 c 0
 240 15 250 26 250 38 c 0
 250 44 250 74 250 109 c 0
 250 134 239 146 215 138 c 0
 172 123 139 89 126 44 c 0
 121 27 128 16 149 16 c 0
EndSplineSet
EndChar

StartChar: oacute
Encoding: 243 243 139
Width: 532
VWidth: 0
Flags: HMW
HStem: -15 29<-90.5915 -1.1388 31.649 158.572 187.984 316.279 347.586 439.978> 246 20G<167 180.5>
VStem: 158 30<-265.961 -173.331 -142.051 -15.1273 14.4375 142.531 173.256 265.501>
LayerCount: 3
Fore
SplineSet
433 -60 m 0
 414 -112 371 -153 318 -169 c 0
 318 -169 l 0
 291 -176 281 -188 281 -213 c 2
 281 -242 l 2
 281 -261 279 -266 267 -266 c 0
 255 -266 249 -263 249 -240 c 2
 249 -203 l 2
 249 -183 235 -175 213 -169 c 0
 157 -152 113 -108 97 -51 c 0
 91 -31 81 -17 58 -17 c 2
 37 -17 l 2
 1 -17 0 -14 0 -2 c 2
 0 0 l 2
 0 12 8 16 31 16 c 2
 61 16 l 2
 81 16 90 29 95 49 c 0
 110 113 154 155 212 170 c 0
 239 177 249 189 249 214 c 0
 249 222 249 228 249 230 c 0
 249 266 255 266 263 266 c 2
 266 266 l 2
 279 266 282 262 282 244 c 0
 282 240 282 228 282 211 c 0
 282 187 291 177 317 170 c 0
 378 153 421 108 436 49 c 0
 442 29 451 15 472 15 c 2
 508 15 l 2
 527 15 532 12 532 0 c 0
 532 -14 529 -18 506 -18 c 0
 498 -18 486 -18 472 -17 c 0
 447 -17 441 -35 433 -60 c 0
EndSplineSet
EndChar

StartChar: k
Encoding: 107 107 140
Width: 341
VWidth: 0
Flags: HMW
LayerCount: 3
Back
SplineSet
329 -8 m 6
 13 -135 l 5
 0 -103 l 5
 224 -12 l 6
 228 -11 230 -5 230 0 c 4
 230 6 227 11 222 13 c 6
 0 103 l 5
 13 135 l 5
 329 8 l 6
 337 5 340 3 340 0 c 4
 340 -2 336 -5 329 -8 c 6
EndSplineSet
Fore
SplineSet
330 -8 m 2
 14 -135 l 1
 0 -100 l 1
 224 -9 l 2
 228 -8 230 -5 230 0 c 0
 230 6 227 8 222 10 c 2
 0 100 l 1
 14 135 l 1
 330 8 l 2
 338 5 341 3 341 0 c 0
 341 -2 337 -5 330 -8 c 2
EndSplineSet
EndChar

StartChar: uni0092
Encoding: 146 146 145
Width: 262
VWidth: 0
Flags: HMW
HStem: -131 31<78.614 183.907> 100 31<78.0927 183.386>
VStem: 0 31<-52.9073 52.386> 231 31<-52.386 52.9073>
LayerCount: 3
Back
SplineSet
39 -32 m 4
 51 -63 81 -85 118 -85 c 4
 154 -85 187 -62 199 -27 c 4
 202 -19 201 -6 184 -6 c 4
 59 -6 l 6
 37 -6 35 -22 39 -32 c 4
236 0 m 4
 236 -67 181 -118 118 -118 c 4
 51 -118 0 -63 0 0 c 4
 0 67 55 118 118 118 c 4
 185 118 236 63 236 0 c 4
EndSplineSet
Fore
SplineSet
0 0 m 0
 0 74 61 131 131 131 c 0
 205 131 262 70 262 0 c 0
 262 -74 201 -131 131 -131 c 0
 57 -131 0 -70 0 0 c 0
217 -7 m 2
 45 -7 l 2
 35 -7 31 -10 34 -23 c 0
 44 -66 82 -100 131 -100 c 0
 176 -100 217 -69 228 -25 c 0
 231 -11 227 -7 217 -7 c 2
EndSplineSet
EndChar

StartChar: uni0093
Encoding: 147 147 146
Width: 262
VWidth: 0
Flags: HMW
HStem: 100 31<78 183> -131 31<79 184>
VStem: 231 31<-52 53> 0 31<-53 52>
LayerCount: 3
Back
SplineSet
196.853 31.667 m 4
 184.575 62.2021 154.992 85 118 85 c 4
 81.8584 85 48.9414 61.7783 37.3828 27.25 c 4
 34.5498 18.7871 35 6 51.75 6 c 4
 177 6 l 6
 199.333 6 200.838 21.7549 196.853 31.667 c 4
0 0 m 4
 0 67 55 118 118 118 c 4
 185 118 236 63 236 0 c 4
 236 -67 181 -118 118 -118 c 4
 51 -118 0 -63 0 0 c 4
EndSplineSet
Fore
SplineSet
262 0 m 0
 262 -74 201 -131 131 -131 c 0
 57 -131 0 -70 0 0 c 0
 0 74 61 131 131 131 c 0
 205 131 262 70 262 0 c 0
45 7 m 2
 217 7 l 2
 227 7 231 10 228 23 c 0
 218 66 180 100 131 100 c 0
 86 100 45 69 34 25 c 0
 31 11 35 7 45 7 c 2
EndSplineSet
EndChar

StartChar: uni00A0
Encoding: 160 160 147
Width: 215
VWidth: 0
Flags: HMW
LayerCount: 3
Back
SplineSet
107.5 -59.5087890625 m 5
 0 447 l 5
 35 454 l 5
 108 113.116210938 l 5
 181 454 l 5
 215 447 l 5
 107.5 -59.5087890625 l 5
69 -69 m 1
 104 -76 l 1
 215 447 l 1
 181 454 l 1
 69 -69 l 1
147 -69 m 1
 111 -76 l 1
 0 447 l 1
 35 454 l 1
 147 -69 l 1
EndSplineSet
Fore
SplineSet
103 -38 m 2
 0 447 l 1
 35 454 l 1
 98 159 l 2
 101 145 116 150 118 158 c 2
 181 454 l 1
 215 447 l 1
 112 -38 l 2
 109 -51 107 -56 103 -38 c 2
EndSplineSet
EndChar

StartChar: exclamdown
Encoding: 161 161 148
Width: 348
VWidth: 0
Flags: HMW
HStem: -36 110<165.243 253.757> 211 103<-2.0653 422.474>
VStem: -36.5 34<-51.9968 210.247> 154.5 110<-25.257 63.257> 422.5 34<-52 210.736>
LayerCount: 3
Back
SplineSet
332 -10 m 7
 314 -10 311 -8 311 3 c 4
 311 37 313 96 313 126 c 6
 313 180 l 6
 313 210 310 218 277 218 c 6
 69 218 l 6
 46 218 36 212 36 186 c 6
 36 123 l 6
 36 83 38 44 38 4 c 7
 38 -10 33 -10 17 -10 c 7
 3 -10 0 -7 0 10 c 15
 0 86 1 140 1 204 c 7
 1 308 0 262 0 317 c 7
 0 342 8 343 26 343 c 14
 334 343 l 6
 349 343 349 335 349 326 c 31
 349 279 348 244 348 205 c 7
 348 143 349 83 349 5 c 31
 349 -4 351 -10 332 -10 c 7
EndSplineSet
Fore
SplineSet
28 -5 m 1
 0 -5 l 1
 0 345 l 1
 348 345 l 1
 348 -5 l 1
 320 -5 l 1
 320 199 l 2
 320 208 309 215 304 215 c 2
 40 215 l 2
 36 215 28 208 28 202 c 2
 28 -5 l 1
EndSplineSet
EndChar

StartChar: uni00B2
Encoding: 178 178 149
Width: 300
VWidth: 0
Flags: HMW
LayerCount: 3
Fore
SplineSet
300 187 m 10
 300 157 l 18
 300 136 295 139 229 124 c 2
 104 96 l 2
 13 76 0 67 0 92 c 10
 0 125 l 18
 0 148 15 143 95 161 c 2
 226 190 l 2
 288 204 300 209 300 187 c 10
300 -93 m 10
 300 -123 l 18
 300 -144 295 -141 229 -156 c 2
 104 -184 l 2
 13 -204 0 -213 0 -188 c 10
 0 -155 l 18
 0 -132 15 -137 95 -119 c 2
 226 -90 l 2
 288 -76 300 -71 300 -93 c 10
300 47 m 10
 300 17 l 18
 300 -4 295 -1 229 -16 c 2
 104 -44 l 2
 13 -64 0 -73 0 -48 c 10
 0 -15 l 18
 0 8 15 3 95 21 c 2
 226 50 l 2
 288 64 300 69 300 47 c 10
EndSplineSet
EndChar

StartChar: Icircumflex
Encoding: 206 206 150
Width: 634
VWidth: 0
Flags: HMW
HStem: -36 110<165.243 253.757> 211 103<-2.0653 422.474>
VStem: -36.5 34<-51.9968 210.247> 154.5 110<-25.257 63.257> 422.5 34<-52 210.736>
LayerCount: 3
Fore
SplineSet
28 -51 m 1
 0 -51 l 1
 0 360 l 1
 634 360 l 1
 634 -51 l 1
 606 -51 l 1
 606 199 l 2
 606 208 595 215 590 215 c 2
 375 215 l 2
 368 215 358 208 358 198 c 2
 358 46 l 1
 270 46 l 1
 270 198 l 2
 270 206 262 215 252 215 c 2
 40 215 l 2
 36 215 28 208 28 202 c 2
 28 -51 l 1
EndSplineSet
EndChar

StartChar: Idieresis
Encoding: 207 207 151
Width: 634
VWidth: 0
Flags: HMW
HStem: -74 110<380.243 468.757> -314 103<211.526 636.065>
VStem: 636.5 34<-210.247 51.9968> 369.5 110<-63.257 25.257> 177.5 34<-210.736 52>
LayerCount: 3
Back
SplineSet
17 52 m 0
 31 52 35 51 35 38 c 0
 35 -24 34 -44 34 -96 c 2
 34 -197 l 2
 34 -229 45 -231 60 -231 c 2
 249 -231 l 2
 281 -231 281 -230 281 -158 c 0
 281 -133 280 -115 280 -95 c 0
 280 -81 288 -80 295 -80 c 2
 338 -80 l 2
 352 -80 352 -86 352 -99 c 0
 352 -124 351 -127 351 -157 c 0
 351 -230 353 -231 377 -231 c 2
 560 -231 l 2
 598 -231 599 -224 599 -193 c 2
 599 -84 l 2
 599 -14 598 17 598 37 c 0
 598 50 599 52 617 52 c 0
 633 52 633 49 633 35 c 0
 633 -32 631 -74 631 -141 c 0
 631 -245 633 -238 633 -293 c 0
 633 -318 626 -319 608 -319 c 2
 23 -319 l 2
 3 -319 0 -304 0 -289 c 0
 0 -232 2 -245 2 -143 c 0
 2 -76 0 -31 0 40 c 0
 0 49 5 52 17 52 c 0
EndSplineSet
Fore
SplineSet
606 51 m 1
 634 51 l 1
 634 -360 l 1
 0 -360 l 1
 0 51 l 1
 28 51 l 1
 28 -199 l 2
 28 -208 39 -215 44 -215 c 2
 259 -215 l 2
 266 -215 276 -208 276 -198 c 2
 276 -46 l 1
 364 -46 l 1
 364 -198 l 2
 364 -206 372 -215 382 -215 c 2
 594 -215 l 2
 598 -215 606 -208 606 -202 c 2
 606 51 l 1
EndSplineSet
EndChar

StartChar: uni0098
Encoding: 152 152 152
Width: 322
VWidth: 0
Flags: HMW
HStem: -16 32<30.0032 144.998 177.056 291.994> 111 20G<151 172>
VStem: 145 32<-130.994 -16.0369 16.1191 130.997>
LayerCount: 3
Back
SplineSet
155 155 m 0
 170 155 172 152 172 140 c 2
 172 40 l 2
 172 27 180 17 194 17 c 2
 297 17 l 2
 309 17 310 13 310 0 c 0
 310 -13 308 -17 295 -17 c 2
 194 -17 l 2
 179 -17 172 -23 172 -37 c 2
 172 -142 l 2
 172 -154 167 -155 155 -155 c 0
 141 -155 138 -153 138 -140 c 2
 138 -39 l 2
 138 -24 133 -17 111 -17 c 2
 12 -17 l 2
 1 -17 0 -12 0 0 c 0
 0 14 2 17 15 17 c 2
 114 17 l 2
 134 17 138 24 138 40 c 2
 138 143 l 2
 138 154 142 155 155 155 c 0
EndSplineSet
Fore
SplineSet
145 -32 m 2
 145 -18 143 -16 126 -16 c 2
 11 -16 l 2
 1 -16 0 -15 0 -5 c 2
 0 7 l 2
 0 15 1 16 9 16 c 2
 124 16 l 2
 142 16 145 19 145 32 c 2
 145 150 l 2
 145 160 146 161 156 161 c 2
 168 161 l 2
 176 161 177 160 177 152 c 2
 177 35 l 2
 177 18 181 16 194 16 c 2
 308 16 l 2
 320 16 322 15 322 5 c 2
 322 -5 l 2
 322 -15 321 -16 309 -16 c 2
 195 -16 l 2
 178 -16 177 -19 177 -32 c 2
 177 -147 l 2
 177 -159 176 -161 166 -161 c 2
 156 -161 l 2
 146 -161 145 -160 145 -148 c 2
 145 -32 l 2
EndSplineSet
EndChar

StartChar: uni0099
Encoding: 153 153 153
Width: 232
VWidth: 0
Flags: MW
HStem: -16 32<-130.997 -16.0022 16.0555 130.994> 111 20G<-10 11>
VStem: -16 32<-130.994 -16.0369 16.1191 130.997>
LayerCount: 3
Fore
SplineSet
-16 -32 m 2
 -16 -18 -18 -16 -35 -16 c 2
 -120 -16 l 2
 -130 -16 -131 -15 -131 -5 c 2
 -131 7 l 2
 -131 15 -130 16 -122 16 c 2
 -37 16 l 2
 -19 16 -16 19 -16 32 c 2
 -16 120 l 2
 -16 130 -15 131 -5 131 c 2
 7 131 l 2
 15 131 16 130 16 122 c 2
 16 35 l 2
 16 18 20 16 33 16 c 2
 117 16 l 2
 129 16 131 15 131 5 c 2
 131 -5 l 2
 131 -15 130 -16 118 -16 c 2
 34 -16 l 2
 17 -16 16 -19 16 -32 c 2
 16 -117 l 2
 16 -129 15 -131 5 -131 c 2
 -5 -131 l 2
 -15 -131 -16 -130 -16 -118 c 2
 -16 -32 l 2
EndSplineSet
EndChar

StartChar: uni009A
Encoding: 154 154 154
Width: 288
VWidth: 0
Flags: HMW
LayerCount: 3
Back
SplineSet
171 97 m 4
 198 68 230 44 261 20 c 4
 275 9 280 2 280 -4 c 4
 280 -10 275 -15 266 -22 c 6
 162 -106 l 6
 151 -115 145 -120 138 -120 c 4
 132 -120 124 -115 112 -102 c 4
 85 -73 53 -48 21 -23 c 4
 7 -12 0 -4 0 2 c 4
 0 9 6 15 16 23 c 6
 116 103 l 6
 127 112 135 117 142 117 c 4
 150 117 158 111 171 97 c 4
78 -4 m 6
 134 -52 l 6
 144 -61 151 -65 157 -65 c 4
 163 -65 168 -62 174 -57 c 6
 197 -38 l 6
 207 -29 212 -23 212 -16 c 4
 212 -10 208 -3 197 6 c 6
 146 50 l 6
 137 58 130 62 124 62 c 4
 118 62 112 58 104 53 c 6
 81 34 l 6
 72 26 66 20 66 14 c 4
 66 9 70 3 78 -4 c 6
EndSplineSet
Fore
SplineSet
168 104 m 0
 195 74 237 41 273 14 c 0
 283 6 288 1 288 -4 c 0
 288 -8 284 -11 277 -17 c 2
 157 -113 l 2
 141 -126 138 -126 122 -108 c 0
 92 -76 54 -45 18 -17 c 0
 5 -8 0 -3 0 2 c 0
 0 7 4 11 13 18 c 2
 127 109 l 2
 148 125 149 125 168 104 c 0
78 0 m 2
 144 -58 l 2
 159 -70 163 -70 178 -57 c 2
 208 -32 l 2
 223 -20 224 -13 208 0 c 2
 144 55 l 2
 129 68 126 66 115 58 c 2
 78 28 l 2
 62 15 65 10 78 0 c 2
EndSplineSet
EndChar

StartChar: uni0094
Encoding: 148 148 155
Width: 262
VWidth: 0
Flags: HMW
HStem: 196 20G<240 255>
VStem: 231 32<-14.9985 215.997>
LayerCount: 3
Back
SplineSet
175 -16 m 2
 156 -16 l 2
 139 -16 134 -20 134 -40 c 2
 134 -60 l 2
 134 -78 144 -83 158 -75 c 0
 172 -67 184 -56 192 -42 c 0
 200 -28 195 -16 175 -16 c 2
236 0 m 0
 236 -63 185 -118 118 -118 c 0
 54 -118 0 -67 0 0 c 0
 0 68 54 118 118 118 c 0
 185 118 236 64 236 0 c 0
102 -40 m 2
 102 -20 96 -16 78 -16 c 2
 60 -16 l 2
 38 -16 35 -25 43 -40 c 0
 51 -55 63 -67 77 -75 c 0
 90 -82 102 -82 102 -63 c 2
 102 -40 l 2
175 16 m 2
 195 16 200 28 192 42 c 0
 184 56 172 67 158 75 c 0
 144 83 134 78 134 60 c 2
 134 40 l 2
 134 20 139 16 156 16 c 2
 175 16 l 2
102 40 m 2
 102 63 l 2
 102 82 90 82 77 75 c 0
 63 67 51 55 43 40 c 0
 35 25 38 16 60 16 c 2
 78 16 l 2
 96 16 102 20 102 40 c 2
EndSplineSet
Fore
SplineSet
0 0 m 0
 0 74 61 131 131 131 c 0
 205 131 262 70 262 0 c 0
 262 -74 201 -131 131 -131 c 0
 57 -131 0 -70 0 0 c 0
100 95 m 0
 72 86 49 65 38 37 c 0
 32 22 35 16 49 16 c 2
 100 16 l 2
 113 16 115 19 115 30 c 2
 115 86 l 2
 115 97 109 98 100 95 c 0
97 -16 m 2
 48 -16 l 2
 38 -16 33 -21 37 -33 c 0
 47 -62 70 -85 100 -95 c 0
 112 -99 115 -95 115 -82 c 2
 115 -32 l 2
 115 -20 113 -16 97 -16 c 2
163 -95 m 0
 190 -86 212 -66 223 -39 c 0
 231 -21 227 -16 210 -16 c 2
 161 -16 l 2
 149 -16 147 -17 147 -31 c 2
 147 -85 l 2
 147 -95 150 -99 163 -95 c 0
147 87 m 2
 147 30 l 2
 147 18 150 16 161 16 c 2
 210 16 l 2
 223 16 231 19 224 37 c 0
 214 64 191 86 163 95 c 0
 151 99 147 96 147 87 c 2
EndSplineSet
EndChar

StartChar: egrave
Encoding: 232 232 156
Width: 713
VWidth: 0
Flags: HMW
HStem: -323 31<265.728 448.233> -16 31<112.89 179.601 218.497 339.94 375.136 496.75 537.095 603.996> 292 31<261.901 449.157>
VStem: 34 31<-91.2724 98.7715> 341 32<-245.961 -177.973 -138.51 -18.4324 16.5436 139.854 178.788 245.458> 649 30<-87.864 89.7245>
LayerCount: 3
Back
SplineSet
398 13 m 4
 433 13 575 14 600 14 c 4
 619 14 624 13 624 1 c 4
 624 -13 621 -16 598 -16 c 4
 559 -16 414 -15 392 -15 c 7
 374 -15 371 -18 371 -39 c 7
 371 -74 372 -220 372 -242 c 4
 372 -261 371 -266 359 -266 c 4
 347 -266 342 -263 342 -240 c 4
 342 -202 343 -58 343 -37 c 7
 343 -10 332 -15 311 -15 c 4
 310 -15 144 -16 129 -16 c 4
 93 -16 92 -14 92 -2 c 6
 92 0 l 6
 92 12 100 14 123 14 c 4
 138 14 299 14 317 14 c 7
 340 14 343 17 343 36 c 4
 343 51 342 215 342 229 c 4
 342 265 347 266 355 266 c 6
 358 266 l 6
 371 266 373 262 373 244 c 4
 373 228 372 59 372 42 c 7
 372 20 369 13 398 13 c 4
0 0 m 7
 0 228 159 358 358 358 c 7
 572 358 716 199 716 0 c 7
 716 -199 557 -358 358 -358 c 7
 159 -358 0 -199 0 0 c 7
33 0 m 7
 33 -179 179 -325 358 -325 c 7
 537 -325 683 -179 683 0 c 7
 683 170 548 325 358 325 c 7
 179 325 33 196 33 0 c 7
183 0 m 7
 183 112 261 175 358 175 c 7
 463 175 533 97 533 0 c 7
 533 -97 455 -175 358 -175 c 7
 261 -175 183 -97 183 0 c 7
211 0 m 7
 211 -81 277 -147 358 -147 c 7
 439 -147 505 -81 505 0 c 7
 505 76 444 147 358 147 c 7
 277 147 211 88 211 0 c 7
EndSplineSet
Fore
SplineSet
373 113 m 0
 373 79 373 51 373 44 c 0
 373 25 382 14 400 14 c 2
 466 14 l 2
 491 14 503 26 495 48 c 0
 481 88 450 123 407 138 c 0
 385 146 373 137 373 113 c 0
471 -16 m 0
 435 -16 403 -16 394 -16 c 0
 380 -16 372 -27 372 -41 c 2
 372 -108 l 2
 372 -134 383 -144 407 -137 c 0
 448 -122 481 -89 496 -48 c 0
 502 -29 493 -17 471 -16 c 0
525 -60 m 0
 506 -112 463 -153 410 -169 c 0
 383 -176 373 -188 373 -213 c 2
 373 -242 l 2
 373 -261 371 -266 359 -266 c 0
 347 -266 341 -263 341 -240 c 2
 341 -203 l 2
 341 -183 327 -175 305 -169 c 0
 249 -152 205 -108 189 -51 c 0
 183 -31 173 -17 150 -17 c 2
 129 -17 l 2
 93 -17 92 -14 92 -2 c 2
 92 0 l 2
 92 12 100 16 123 16 c 2
 153 16 l 2
 173 16 182 29 187 49 c 0
 202 113 246 155 304 170 c 0
 331 177 341 189 341 214 c 0
 341 222 341 244 341 246 c 0
 341 260 347 266 355 266 c 2
 358 266 l 2
 371 266 374 262 374 244 c 0
 374 240 374 228 374 211 c 0
 374 187 383 177 409 170 c 0
 470 153 513 108 528 49 c 0
 534 29 543 15 564 15 c 2
 600 15 l 2
 619 15 624 12 624 0 c 0
 624 -14 621 -18 598 -18 c 2
 564 -18 l 2
 539 -18 533 -35 525 -60 c 0
241 16 m 0
 277 16 308 15 315 15 c 0
 332 15 342 26 342 38 c 0
 342 44 342 74 342 109 c 0
 342 134 331 146 307 138 c 0
 264 123 231 89 218 44 c 0
 213 27 220 16 241 16 c 0
220 -46 m 0
 234 -89 268 -123 310 -138 c 0
 331 -145 341 -133 341 -109 c 0
 341 -77 342 -50 342 -42 c 0
 342 -25 330 -16 309 -16 c 0
 308 -16 280 -17 246 -17 c 0
 224 -17 213 -28 220 -46 c 0
31 0 m 0
 31 -180 177 -327 357 -327 c 0
 537 -327 682 -180 682 0 c 0
 682 171 549 327 357 327 c 0
 177 327 31 197 31 0 c 0
-0 0 m 0
 -0 229 157 358 357 358 c 0
 572 358 713 200 713 0 c 0
 713 -200 557 -358 357 -358 c 0
 157 -358 -0 -200 -0 0 c 0
EndSplineSet
EndChar

StartChar: Oslash
Encoding: 216 216 157
Width: 151
Flags: HMW
LayerCount: 3
Back
SplineSet
64 210 m 7
 125.63 210 151 145 151 85 c 7
 151 -45 77 -146 48 -146 c 7
 40.246 -146 37 -142.885 37 -137 c 7
 37 -122 58 -116.5 87 -58 c 4
 110.835 -9.91809 115 20 115 50 c 7
 115 76.0071 106 86.5 90.5 84.335 c 4
 81.5547 83.0859 77.1709 80 64 80 c 7
 26.946 80 0 103 0 147 c 7
 0 182 29 210 64 210 c 7
EndSplineSet
Fore
SplineSet
64 210 m 3
 126 210 151 145 151 85 c 3
 151 -35 96 -118 62 -141 c 0
 41 -154 25 -139 41 -120 c 0
 67 -89 111 -26 111 50 c 3
 111 76 102 86 86 83 c 0
 78 82 76 80 64 80 c 3
 27 80 0 103 0 147 c 3
 0 182 29 210 64 210 c 3
EndSplineSet
EndChar

StartChar: Ugrave
Encoding: 217 217 158
Width: 182
Flags: HMW
LayerCount: 3
Back
SplineSet
77 263 m 4
 151 263 182 185 182 99 c 4
 182 -43 107 -131 65 -158 c 4
 40 -174 24 -158 45 -136 c 4
 97 -81 137 -20 137 71 c 4
 137 98 128 111 112 111 c 4
 99 111 93 107 77 107 c 4
 33 107 0 134 0 187 c 4
 0 229 35 263 77 263 c 4
EndSplineSet
Fore
SplineSet
77 263 m 0
 151 263 182 185 182 99 c 0
 182 -43 114 -125.5 77 -158 c 0
 54.6992 -177.588 38.001 -159.749 57 -136 c 0
 103 -78.5 140 -20 140 71 c 0
 140 98 133 112 117 112 c 0
 104 112 93 107 77 107 c 0
 33 107 0 134 0 187 c 0
 0 229 35 263 77 263 c 0
EndSplineSet
EndChar

StartChar: Uacute
Encoding: 218 218 159
Width: 214
Flags: HMW
HStem: -4 159<31.75 123.817>
VStem: 124 68<-48.2788 67>
LayerCount: 3
Back
SplineSet
22 -127 m 4
 99 -82 160 -12 160 56 c 4
 160 69 154 77 140 77 c 4
 124 77 119 72 88 72 c 4
 57 72 0 93 0 162 c 4
 0 213 42 252 93 252 c 4
 172 252 214 187 214 107 c 4
 214 -40 110 -118 37 -157 c 4
 15 -169 0 -140 22 -127 c 4
EndSplineSet
Fore
SplineSet
6 -137 m 1
 104 -80 160 -12 160 56 c 0
 160 69 154 77 140 77 c 0
 124 77 119 72 88 72 c 0
 57 72 0 93 0 162 c 0
 0 213 42 252 93 252 c 0
 172 252 214 187 214 107 c 0
 214 -40 114 -118 20 -166 c 1
 6 -137 l 1
EndSplineSet
EndChar

StartChar: Ucircumflex
Encoding: 219 219 160
Width: 285
Flags: HMW
LayerCount: 3
Fore
SplineSet
14 -38 m 0
 7 -38 0 -25 0 -14 c 0
 0 -9 4 -7 14 -4 c 2
 117 24 l 2
 142 30 150 40 150 71 c 0
 150 98 143 112 127 112 c 0
 114 112 103 107 87 107 c 0
 43 107 10 134 10 187 c 0
 10 229 45 263 87 263 c 0
 161 263 192 185 192 99 c 0
 192 87 191 74 191 62 c 0
 191 51 193 47 200 47 c 0
 204 47 209 48 215 50 c 2
 264 63 l 2
 267 64 269 64 271 64 c 0
 277 64 285 51 285 41 c 0
 285 36 281 34 271 31 c 2
 209 14 l 2
 185 8 182 4 174 -21 c 0
 151 -92 112 -136 87 -158 c 0
 80 -164 74 -167 69 -167 c 0
 63 -167 59 -162 59 -155 c 0
 59 -150 61 -143 67 -136 c 0
 92 -105 114 -74 129 -38 c 0
 132 -31 133 -25 133 -21 c 0
 133 -14 129 -11 122 -11 c 0
 119 -11 114 -12 109 -13 c 2
 24 -36 l 2
 20 -37 17 -38 14 -38 c 0
EndSplineSet
EndChar

StartChar: Ecircumflex
Encoding: 202 202 161
Width: 834
VWidth: 0
Flags: HMW
HStem: -15 21G<313 349.5> 99 20G<313 349.5> 261 95<62.3185 599.87>
VStem: 16 46<-21.9414 260.293> 265 131<2.75665 101.243> 601 46<-21.9346 259.161>
LayerCount: 3
Back
SplineSet
351 19 m 0
 351 47 373 69 401 69 c 0
 429 69 451 47 451 19 c 0
 451 -9 429 -31 401 -31 c 0
 373 -31 351 -9 351 19 c 0
13 -20 m 0
 6 -20 0 -14 0 -7 c 0
 0 2 6 7 17 17 c 2
 347 330 l 2
 373 354 387 366 401 366 c 0
 415 366 429 354 455 330 c 2
 788 15 l 2
 798 5 804 1 804 -7 c 0
 804 -15 798 -20 791 -20 c 0
 785 -20 778 -18 769 -11 c 2
 458 210 l 2
 425 234 418 239 402 239 c 0
 388 239 382 237 350 214 c 2
 35 -11 l 2
 26 -18 19 -20 13 -20 c 0
EndSplineSet
Fore
SplineSet
348 19 m 0
 348 57 379 88 417 88 c 0
 455 88 486 57 486 19 c 0
 486 -19 455 -50 417 -50 c 0
 379 -50 348 -19 348 19 c 0
417 409 m 1
 0 0 l 17
 16 -21 l 9
 417 231 l 1
 818 -21 l 17
 834 0 l 9
 417 409 l 1
EndSplineSet
EndChar

StartChar: Edieresis
Encoding: 203 203 162
Width: 834
VWidth: 0
Flags: HMW
HStem: -6 21G<484 521> -119 20G<484 521> -356 95<234 772>
VStem: 772 46<-260 22> 438 131<-101 -3> 187 46<-259 22>
LayerCount: 3
Back
SplineSet
453 -19 m 0
 453 -47 431 -69 403 -69 c 0
 375 -69 353 -47 353 -19 c 0
 353 9 375 31 403 31 c 0
 431 31 453 9 453 -19 c 0
791 20 m 0
 798 20 804 14 804 7 c 0
 804 -2 798 -7 787 -17 c 2
 457 -330 l 2
 431 -354 417 -366 403 -366 c 0
 389 -366 375 -354 349 -330 c 2
 16 -15 l 2
 6 -5 0 -1 0 7 c 0
 0 15 6 20 13 20 c 0
 19 20 26 18 35 11 c 2
 346 -210 l 2
 379 -234 386 -239 402 -239 c 0
 416 -239 422 -237 454 -214 c 2
 769 11 l 2
 778 18 785 20 791 20 c 0
EndSplineSet
Fore
SplineSet
486 -19 m 0
 486 -57 455 -88 417 -88 c 0
 379 -88 348 -57 348 -19 c 0
 348 19 379 50 417 50 c 0
 455 50 486 19 486 -19 c 0
417 -409 m 1
 834 0 l 17
 818 21 l 9
 417 -231 l 1
 16 21 l 17
 0 0 l 9
 417 -409 l 1
EndSplineSet
EndChar

StartChar: Igrave
Encoding: 204 204 163
Width: 634
VWidth: 0
Flags: HMW
HStem: -36 110<165.243 253.757> 211 103<-2.0653 422.474>
VStem: -36.5 34<-51.9968 210.247> 154.5 110<-25.257 63.257> 422.5 34<-52 210.736>
LayerCount: 3
Back
SplineSet
616 -52 m 3
 602 -52 598 -51 598 -38 c 0
 598 24 599 44 599 96 c 26
 599 197 l 2
 599 229 588 231 573 231 c 10
 73 231 l 2
 35 231 34 224 34 193 c 2
 34 84 l 18
 34 14 35 -17 35 -37 c 3
 35 -50 34 -52 16 -52 c 3
 0 -52 0 -49 0 -35 c 3
 0 32 2 74 2 141 c 3
 2 245 0 238 0 293 c 3
 0 318 7 319 25 319 c 10
 610 319 l 2
 630 319 633 304 633 289 c 27
 633 232 631 245 631 143 c 3
 631 76 633 31 633 -40 c 27
 633 -49 628 -52 616 -52 c 3
338 -31 m 6
 295 -31 l 6
 281 -31 281 -25 281 -12 c 7
 281 13 282 16 282 46 c 7
 282 68 281 82 281 102 c 7
 281 110 280 120 300 120 c 6
 338 120 l 6
 346 120 353 112 353 103 c 31
 353 81 352 69 352 47 c 31
 352 22 353 4 353 -16 c 7
 353 -30 345 -31 338 -31 c 6
EndSplineSet
Fore
SplineSet
361 133 m 1
 361 -39 l 1
 273 -39 l 1
 273 133 l 1
 361 133 l 1
28 -51 m 1
 0 -51 l 1
 0 360 l 1
 634 360 l 1
 634 -51 l 1
 606 -51 l 1
 606 199 l 2
 606 208 595 215 590 215 c 2
 40 215 l 2
 36 215 28 208 28 202 c 2
 28 -51 l 1
EndSplineSet
EndChar

StartChar: Iacute
Encoding: 205 205 164
Width: 634
VWidth: 0
Flags: HMW
HStem: -74 110<380.243 468.757> -314 103<211.526 636.065>
VStem: 636.5 34<-210.247 51.9968> 369.5 110<-63.257 25.257> 177.5 34<-210.736 52>
LayerCount: 3
Back
SplineSet
17 52 m 3
 31 52 35 51 35 38 c 0
 35 -24 34 -44 34 -96 c 26
 34 -197 l 2
 34 -229 45 -231 60 -231 c 10
 560 -231 l 2
 598 -231 599 -224 599 -193 c 2
 599 -84 l 18
 599 -14 598 17 598 37 c 3
 598 50 599 52 617 52 c 3
 633 52 633 49 633 35 c 3
 633 -32 631 -74 631 -141 c 3
 631 -245 633 -238 633 -293 c 3
 633 -318 626 -319 608 -319 c 10
 23 -319 l 2
 3 -319 0 -304 0 -289 c 27
 0 -232 2 -245 2 -143 c 3
 2 -76 0 -31 0 40 c 27
 0 49 5 52 17 52 c 3
295 31 m 6
 338 31 l 6
 352 31 352 25 352 12 c 7
 352 -13 351 -16 351 -46 c 7
 351 -68 352 -82 352 -102 c 7
 352 -110 353 -120 333 -120 c 6
 295 -120 l 6
 287 -120 280 -112 280 -103 c 31
 280 -81 281 -69 281 -47 c 31
 281 -22 280 -4 280 16 c 7
 280 30 288 31 295 31 c 6
EndSplineSet
Fore
SplineSet
273 -133 m 1
 273 39 l 1
 361 39 l 1
 361 -133 l 1
 273 -133 l 1
606 51 m 1
 634 51 l 1
 634 -360 l 1
 0 -360 l 1
 0 51 l 1
 28 51 l 1
 28 -199 l 2
 28 -208 39 -215 44 -215 c 2
 594 -215 l 2
 598 -215 606 -208 606 -202 c 2
 606 51 l 1
EndSplineSet
EndChar

StartChar: eacute
Encoding: 233 233 170
Width: 644
VWidth: 0
Flags: W
HStem: -323 31<230.728 413.233> -16 31<77.8899 144.601 183.497 304.94 340.136 461.75 502.095 568.996> 292 31<226.901 414.157>
VStem: -1 31<-91.2724 98.7715> 306 32<-245.961 -177.973 -138.51 -18.4324 16.5436 139.854 178.788 245.458> 614 30<-87.864 89.7245>
LayerCount: 3
Fore
SplineSet
338 113 m 0
 338 79 338 51 338 44 c 0
 338 25 347 14 365 14 c 2
 431 14 l 2
 456 14 468 26 460 48 c 0
 446 88 415 123 372 138 c 0
 350 146 338 137 338 113 c 0
436 -16 m 0
 400 -16 368 -16 359 -16 c 0
 345 -16 337 -27 337 -41 c 2
 337 -108 l 2
 337 -134 348 -144 372 -137 c 0
 413 -122 446 -89 461 -48 c 0
 467 -29 458 -17 436 -16 c 0
490 -60 m 0
 471 -112 428 -153 375 -169 c 0
 348 -176 338 -188 338 -213 c 2
 338 -222 l 2
 338 -241 336 -246 324 -246 c 0
 312 -246 306 -243 306 -220 c 2
 306 -203 l 2
 306 -183 292 -175 270 -169 c 0
 214 -152 170 -108 154 -51 c 0
 148 -31 138 -17 115 -17 c 2
 114 -17 l 2
 78 -17 77 -14 77 -2 c 2
 77 0 l 2
 77 12 85 16 108 16 c 2
 118 16 l 2
 138 16 147 29 152 49 c 0
 167 113 211 155 269 170 c 0
 296 177 306 189 306 214 c 0
 306 222 306 224 306 226 c 0
 306 240 312 246 320 246 c 2
 323 246 l 2
 336 246 339 242 339 224 c 0
 339 220 339 228 339 211 c 0
 339 187 348 177 374 170 c 0
 435 153 478 108 493 49 c 0
 499 29 508 15 529 15 c 2
 545 15 l 2
 564 15 569 12 569 0 c 0
 569 -14 566 -18 543 -18 c 2
 529 -18 l 2
 504 -18 498 -35 490 -60 c 0
206 16 m 0
 242 16 273 15 280 15 c 0
 297 15 307 26 307 38 c 0
 307 44 307 74 307 109 c 0
 307 134 296 146 272 138 c 0
 229 123 196 89 183 44 c 0
 178 27 185 16 206 16 c 0
185 -46 m 0
 199 -89 233 -123 275 -138 c 0
 296 -145 306 -133 306 -109 c 0
 306 -77 307 -50 307 -42 c 0
 307 -25 295 -16 274 -16 c 0
 273 -16 245 -17 211 -17 c 0
 189 -17 178 -28 185 -46 c 0
30 0 m 0
 30 -161 161 -292 322 -292 c 0
 483 -292 614 -161 614 0 c 0
 614 153 493 292 322 292 c 0
 161 292 30 176 30 0 c 0
-1 0 m 0
 -1 206 142 323 322 323 c 0
 516 323 644 180 644 0 c 0
 644 -180 502 -323 322 -323 c 0
 142 -323 -1 -180 -1 0 c 0
EndSplineSet
EndChar

StartChar: ecircumflex
Encoding: 234 234 171
Width: 792
VWidth: 0
Flags: W
HStem: -16 31<0.889893 65.1428 112.521 217.601 256.497 377.94 413.136 534.75 575.095 673.513 723.064 791.996>
VStem: 379 32<-395.961 -329.507 -280.162 -177.973 -138.51 -18.4324 16.5436 139.854 178.788 284.46 328.562 395.458>
LayerCount: 3
Fore
SplineSet
258 -46 m 1
 272 -89 306 -123 348 -138 c 0
 369 -145 379 -133 379 -109 c 0
 379 -77 380 -50 380 -42 c 0
 380 -25 368 -16 347 -16 c 0
 346 -16 318 -17 284 -17 c 0
 262 -17 251 -28 258 -46 c 1
279 16 m 0
 315 16 346 15 353 15 c 0
 370 15 380 26 380 38 c 0
 380 44 380 74 380 109 c 0
 380 134 369 146 345 138 c 0
 302 123 269 89 256 44 c 0
 251 27 258 16 279 16 c 0
563 -60 m 1
 544 -112 501 -153 448 -169 c 1
 421 -176 411 -188 411 -213 c 2
 411 -246 l 2
 411 -278 422 -293 456 -286 c 0
 568 -262 656 -174 680 -62 c 0
 687 -30 676 -18 644 -18 c 2
 602 -18 l 2
 577 -18 571 -35 563 -60 c 1
509 -16 m 1
 473 -16 441 -16 432 -16 c 0
 418 -16 410 -27 410 -41 c 2
 410 -108 l 2
 410 -134 421 -144 445 -137 c 1
 486 -122 519 -89 534 -48 c 0
 540 -29 531 -17 509 -16 c 1
411 113 m 0
 411 79 411 51 411 44 c 0
 411 25 420 14 438 14 c 2
 504 14 l 2
 529 14 541 26 533 48 c 0
 519 88 488 123 445 138 c 0
 423 146 411 137 411 113 c 0
712 -58 m 0
 689 -188 590 -290 461 -316 c 0
 432 -322 411 -329 411 -363 c 2
 411 -372 l 2
 411 -391 409 -396 397 -396 c 0
 385 -396 379 -393 379 -370 c 2
 379 -364 l 2
 379 -326 350 -321 321 -315 c 0
 195 -286 98 -184 77 -56 c 0
 73 -33 65 -17 41 -17 c 2
 37 -17 l 2
 1 -17 0 -14 0 -2 c 2
 0 0 l 2
 0 12 8 16 31 16 c 2
 37 16 l 2
 61 16 72 34 76 60 c 0
 98 206 200 296 331 318 c 0
 361 323 379 330 379 363 c 2
 379 376 l 2
 379 390 385 396 393 396 c 2
 396 396 l 2
 409 396 412 392 412 374 c 2
 412 362 l 2
 412 340 424 323 449 319 c 0
 589 299 685 199 710 69 c 0
 716 42 721 15 754 15 c 2
 768 15 l 2
 787 15 792 12 792 0 c 0
 792 -14 789 -18 766 -18 c 2
 754 -18 l 2
 726 -18 716 -33 712 -58 c 0
679 68 m 0
 653 176 567 266 449 287 c 0
 423 292 412 278 412 250 c 2
 412 211 l 2
 412 187 421 177 447 170 c 0
 508 153 551 108 566 49 c 0
 572 29 581 15 602 15 c 2
 635 15 l 2
 667 15 688 33 679 68 c 0
336 287 m 0
 221 265 131 182 108 60 c 0
 104 34 112 16 142 16 c 2
 191 16 l 2
 211 16 220 29 225 49 c 0
 240 113 284 155 342 170 c 0
 369 177 379 189 379 214 c 2
 379 245 l 2
 379 274 370 293 336 287 c 0
110 -62 m 0
 133 -171 219 -258 328 -284 c 0
 362 -292 379 -274 379 -244 c 2
 379 -203 l 2
 379 -183 365 -175 343 -169 c 0
 287 -152 243 -108 227 -51 c 0
 221 -31 211 -17 188 -17 c 2
 143 -17 l 2
 113 -17 104 -37 110 -62 c 0
EndSplineSet
EndChar

StartChar: ccircumflex
Encoding: 265 265 172
Width: 621
Flags: W
HStem: -19 21G<303 318>
VStem: 294 33<-18.9978 157.164 253.887 422.998>
LayerCount: 3
Back
SplineSet
327 408 m 6
 327 -3 l 6
 327 -17 326 -19 310 -19 c 4
 296 -19 294 -16 294 -2 c 6
 294 407 l 6
 294 421 296 423 311 423 c 4
 327 423 327 420 327 408 c 6
13 -16 m 0
 4 -16 -0 -10 -0 -2 c 0
 -0 1 0 3 1 6 c 0
 63 166 184 254 310 254 c 0
 437 254 558 166 619 6 c 0
 620 3 621 1 621 -2 c 0
 621 -10 616 -16 608 -16 c 0
 602 -16 596 -12 592 -4 c 0
 532 103 434 160 310 160 c 0
 187 160 89 103 29 -4 c 0
 24 -12 19 -16 13 -16 c 0
EndSplineSet
Fore
SplineSet
13 -16 m 0
 4 -16 -0 -10 -0 -2 c 0
 -0 1 0 3 1 6 c 0
 55 147 156 232 264 250 c 0
 287 254 294 260 294 282 c 2
 294 407 l 2
 294 421 296 423 311 423 c 0
 327 423 327 420 327 408 c 2
 327 285 l 2
 327 258 336 254 359 250 c 0
 468 230 566 145 619 6 c 0
 620 3 621 1 621 -2 c 0
 621 -10 616 -16 608 -16 c 0
 602 -16 596 -12 592 -4 c 0
 540 89 459 144 357 157 c 0
 334 160 327 153 327 133 c 2
 327 -3 l 2
 327 -17 326 -19 310 -19 c 0
 296 -19 294 -16 294 -2 c 2
 294 132 l 2
 294 155 283 160 260 157 c 0
 160 143 81 88 29 -4 c 0
 24 -12 19 -16 13 -16 c 0
EndSplineSet
EndChar

StartChar: ocircumflex
Encoding: 244 244 173
Width: 282
VWidth: 0
Flags: HW
HStem: -17 33<0.494076 88.5637>
VStem: 249 32<-265.961 -176.708 178.788 265.735>
LayerCount: 3
Fore
SplineSet
281 -242 m 0
 281 -261 279 -266 267 -266 c 0
 255 -266 249 -263 249 -240 c 2
 249 -203 l 2
 249 -183 235 -175 213 -169 c 0
 157 -152 113 -108 97 -51 c 0
 91 -31 81 -17 58 -17 c 2
 37 -17 l 2
 1 -17 0 -14 0 -2 c 2
 0 0 l 2
 0 12 8 16 31 16 c 2
 61 16 l 2
 81 16 90 29 95 49 c 0
 110 113 154 155 212 170 c 0
 239 177 249 189 249 214 c 0
 249 222 249 228 249 230 c 0
 249 266 255 266 263 266 c 2
 266 266 l 2
 279 266 282 262 282 244 c 0
 282 60.1739 281 -58.5027 281 -242 c 0
EndSplineSet
EndChar

StartChar: otilde
Encoding: 245 245 174
Width: 283
VWidth: 0
Flags: HW
HStem: -15 29<-339.592 -250.139 -217.351 -90.428 -61.016 67.279 98.586 190.978> 246 20G<-82 -68.5>
VStem: -91 30<-265.961 -173.331 -142.051 -15.1273 14.4375 142.531 173.256 265.501>
LayerCount: 3
Fore
SplineSet
184 -60 m 0
 165 -112 122 -153 69 -169 c 0
 69 -169 l 0
 42 -176 32 -188 32 -213 c 2
 32 -242 l 2
 32 -261 30 -266 18 -266 c 0
 6 -266 0 -263 0 -240 c 2
 0 230 l 2
 0 266 6 266 14 266 c 2
 17 266 l 2
 30 266 33 262 33 244 c 0
 33 240 33 228 33 211 c 0
 33 187 42 177 68 170 c 0
 129 153 172 108 187 49 c 0
 193 29 202 15 223 15 c 2
 259 15 l 2
 278 15 283 12 283 0 c 0
 283 -14 280 -18 257 -18 c 0
 249 -18 237 -18 223 -17 c 0
 198 -17 192 -35 184 -60 c 0
EndSplineSet
EndChar

StartChar: icircumflex
Encoding: 238 238 175
Width: 532
VWidth: 0
Flags: HW
HStem: -16 31<0.889893 87.6013 126.513 247.94 283.136 404.75 444.941 531.996>
VStem: 249 32<-265.961 -177.973 -138.51 -18.4324 16.5436 139.854 178.83 273.007>
LayerCount: 3
Back
SplineSet
313 -139 m 4
 357 -124 392 -89 406 -44 c 4
 415 -18 405 -15 382 -15 c 4
 344 -15 310 -15 300 -15 c 4
 282 -15 279 -18 279 -39 c 4
 279 -53 279 -84 279 -118 c 4
 279 -142 287 -148 313 -139 c 4
125 -41 m 4
 138 -87 173 -123 218 -139 c 4
 243 -148 251 -141 251 -119 c 4
 251 -81 251 -46 251 -37 c 4
 251 -10 240 -15 219 -15 c 6
 219 -15 183 -15 144 -15 c 4
 127 -15 118 -19 125 -41 c 4
218 140 m 4
 172 125 137 90 124 41 c 4
 117 15 129 14 148 14 c 6
 225 14 l 6
 248 14 251 17 251 36 c 4
 251 43 251 78 251 117 c 4
 251 142 245 148 218 140 c 4
309 170 m 4
 376 155 422 105 437 42 c 4
 442 17 438 14 468 14 c 4
 487 14 501 14 508 14 c 4
 527 14 532 13 532 1 c 4
 532 -13 529 -16 506 -16 c 4
 497 -16 482 -16 465 -16 c 4
 436 -16 441 -22 435 -45 c 4
 419 -107 369 -156 306 -171 c 4
 281 -176 280 -174 280 -204 c 4
 280 -222 280 -236 280 -242 c 4
 280 -261 279 -266 267 -266 c 4
 255 -266 250 -263 250 -240 c 4
 250 -232 250 -220 250 -205 c 4
 250 -168 242 -176 214 -167 c 4
 155 -149 110 -101 96 -41 c 4
 91 -19 88 -16 67 -16 c 4
 51 -16 40 -16 37 -16 c 4
 1 -16 0 -14 0 -2 c 6
 0 0 l 6
 0 12 8 14 31 14 c 6
 61 14 l 6
 82 14 90 16 95 43 c 4
 109 109 153 152 212 168 c 4
 241 176 250 167 250 206 c 4
 250 221 250 236 250 250 c 4
 250 305 208 257 187 257 c 4
 185 257 181 259 181 264 c 4
 181 274 191 283 225 342 c 4
 253 391 255 411 265 411 c 4
 279 411 277 392 305 341 c 4
 335 287 347 276 347 264 c 4
 347 258 341 257 339 257 c 4
 315 257 281 309 281 246 c 4
 281 233 281 220 281 207 c 4
 281 174 282 176 309 170 c 4
280 120 m 4
 280 82 280 49 280 42 c 4
 280 20 277 13 306 13 c 4
 319 13 347 13 379 13 c 4
 407 13 415 14 407 43 c 4
 393 88 357 127 308 141 c 4
 284 148 280 143 280 120 c 4
EndSplineSet
Fore
SplineSet
128 -46 m 0
 142 -89 176 -123 218 -138 c 0
 222 -139 226 -140 229 -140 c 0
 242 -140 249 -128 249 -109 c 0
 249 -77 250 -50 250 -42 c 0
 250 -25 238 -16 217 -16 c 0
 216 -16 188 -17 154 -17 c 0
 136 -17 126 -24 126 -36 c 0
 126 -39 127 -42 128 -46 c 0
149 16 m 0
 185 16 216 15 223 15 c 0
 240 15 250 26 250 38 c 2
 250 109 l 2
 250 129 243 140 228 140 c 0
 224 140 220 140 215 138 c 0
 172 123 139 89 126 44 c 0
 125 41 124 37 124 34 c 0
 124 23 132 16 149 16 c 0
433 -60 m 1
 414 -112 371 -153 318 -169 c 1
 291 -176 281 -188 281 -213 c 2
 281 -242 l 2
 281 -261 279 -266 267 -266 c 0
 255 -266 249 -263 249 -240 c 2
 249 -203 l 2
 249 -183 235 -175 213 -169 c 0
 157 -152 113 -108 97 -51 c 0
 91 -31 81 -17 58 -17 c 2
 37 -17 l 2
 1 -17 0 -14 0 -2 c 2
 0 0 l 2
 0 12 8 16 31 16 c 2
 61 16 l 2
 81 16 90 29 95 49 c 0
 110 113 154 155 212 170 c 0
 239 177 249 189 249 214 c 2
 249 244 l 2
 249 268 244 275 236 275 c 0
 224 275 205 257 187 257 c 0
 185 257 181 259 181 264 c 0
 181 274 191 283 225 342 c 0
 253 391 255 411 265 411 c 0
 279 411 277 392 305 341 c 0
 335 287 347 276 347 264 c 0
 347 258 341 257 339 257 c 0
 324 257 306 276 295 276 c 0
 287 276 282 267 282 240 c 2
 282 211 l 2
 282 187 291 177 317 170 c 0
 378 153 421 108 436 49 c 0
 442 29 451 15 472 15 c 2
 508 15 l 2
 527 15 532 12 532 0 c 0
 532 -14 529 -18 506 -18 c 0
 498 -18 486 -18 472 -17 c 1
 447 -17 441 -35 433 -60 c 1
379 -16 m 2
 302 -16 l 2
 288 -16 280 -27 280 -41 c 2
 280 -108 l 2
 280 -129 287 -139 302 -139 c 0
 306 -139 310 -138 315 -137 c 0
 356 -122 389 -89 404 -48 c 0
 405 -44 406 -41 406 -37 c 0
 406 -25 397 -17 379 -16 c 2
281 113 m 2
 281 44 l 2
 281 25 290 14 308 14 c 2
 374 14 l 2
 394 14 405 22 405 36 c 0
 405 39 405 43 403 48 c 0
 389 88 358 123 315 138 c 0
 310 140 305 141 301 141 c 0
 288 141 281 131 281 113 c 2
EndSplineSet
EndChar

StartChar: idieresis
Encoding: 239 239 176
Width: 532
VWidth: 0
Flags: HW
HStem: -15 31<444.399 531.11 284.06 405.487 127.25 248.864 0.00372314 87.059>
VStem: 251 32<177.973 265.961 18.4324 138.51 -139.854 -16.5436 -273.007 -178.83>
LayerCount: 3
Fore
SplineSet
404 46 m 0
 390 89 356 123 314 138 c 0
 310 139 306 140 303 140 c 0
 290 140 283 128 283 109 c 0
 283 77 282 50 282 42 c 0
 282 25 294 16 315 16 c 0
 316 16 344 17 378 17 c 0
 396 17 406 24 406 36 c 0
 406 39 405 42 404 46 c 0
383 -16 m 0
 347 -16 316 -15 309 -15 c 0
 292 -15 282 -26 282 -38 c 2
 282 -109 l 2
 282 -129 289 -140 304 -140 c 0
 308 -140 312 -140 317 -138 c 0
 360 -123 393 -89 406 -44 c 0
 407 -41 408 -37 408 -34 c 0
 408 -23 400 -16 383 -16 c 0
99 60 m 1
 118 112 161 153 214 169 c 1
 241 176 251 188 251 213 c 2
 251 242 l 2
 251 261 253 266 265 266 c 0
 277 266 283 263 283 240 c 2
 283 203 l 2
 283 183 297 175 319 169 c 0
 375 152 419 108 435 51 c 0
 441 31 451 17 474 17 c 2
 495 17 l 2
 531 17 532 14 532 2 c 2
 532 0 l 2
 532 -12 524 -16 501 -16 c 2
 471 -16 l 2
 451 -16 442 -29 437 -49 c 0
 422 -113 378 -155 320 -170 c 0
 293 -177 283 -189 283 -214 c 2
 283 -244 l 2
 283 -268 288 -275 296 -275 c 0
 308 -275 327 -257 345 -257 c 0
 347 -257 351 -259 351 -264 c 0
 351 -274 341 -283 307 -342 c 0
 279 -391 277 -411 267 -411 c 0
 253 -411 255 -392 227 -341 c 0
 197 -287 185 -276 185 -264 c 0
 185 -258 191 -257 193 -257 c 0
 208 -257 226 -276 237 -276 c 0
 245 -276 250 -267 250 -240 c 2
 250 -211 l 2
 250 -187 241 -177 215 -170 c 0
 154 -153 111 -108 96 -49 c 0
 90 -29 81 -15 60 -15 c 2
 24 -15 l 2
 5 -15 0 -12 0 0 c 0
 0 14 3 18 26 18 c 0
 34 18 46 18 60 17 c 1
 85 17 91 35 99 60 c 1
153 16 m 2
 230 16 l 2
 244 16 252 27 252 41 c 2
 252 108 l 2
 252 129 245 139 230 139 c 0
 226 139 222 138 217 137 c 0
 176 122 143 89 128 48 c 0
 127 44 126 41 126 37 c 0
 126 25 135 17 153 16 c 2
251 -113 m 2
 251 -44 l 2
 251 -25 242 -14 224 -14 c 2
 158 -14 l 2
 138 -14 127 -22 127 -36 c 0
 127 -39 127 -43 129 -48 c 0
 143 -88 174 -123 217 -138 c 0
 222 -140 227 -141 231 -141 c 0
 244 -141 251 -131 251 -113 c 2
EndSplineSet
EndChar

StartChar: eogonek
Encoding: 281 281 177
Width: 1000
VWidth: 0
Flags: H
LayerCount: 3
Back
SplineSet
16 355 m 21
 16 250 l 6
 16 150 47 0 164 0 c 7
 281 0 312 150 312 250 c 6
 312 355 l 1037
163 373 m 3
 176 373 180 361 198 314 c 0
 234 220 274 135 312 42 c 0
 322 20 326 8 326 1 c 3
 326 -9 313 -12 306 -12 c 3
 300 -12 291 -2 283 15 c 0
 272 38 186 234 186 234 c 2
 164 283 158 279 138 234 c 2
 138 234 55 39 43 15 c 0
 35 -2 26 -12 20 -12 c 3
 13 -12 0 -9 0 1 c 3
 0 8 4 20 14 42 c 0
 52 135 92 220 128 314 c 0
 146 361 150 373 163 373 c 3
EndSplineSet
EndChar

StartChar: uni0088
Encoding: 136 136 178
Width: 212
VWidth: 0
Flags: HW
HStem: -131 31<53.614 158.907> 100 31<53.0927 158.386>
VStem: -25 31<-52.9073 52.386> 206 31<-52.386 52.9073>
LayerCount: 3
Back
SplineSet
32 0 m 0
 32 -32 57 -60 92 -60 c 0
 124 -60 152 -35 152 0 c 0
 152 32 127 60 92 60 c 0
 60 60 32 35 32 0 c 0
0 0 m 0
 0 53 44 92 92 92 c 0
 145 92 184 48 184 0 c 0
 184 -53 140 -92 92 -92 c 0
 39 -92 0 -48 0 0 c 0
EndSplineSet
Fore
SplineSet
31 0 m 0
 31 -40 62 -75 106 -75 c 0
 146 -75 181 -44 181 0 c 0
 181 40 150 75 106 75 c 0
 66 75 31 44 31 0 c 0
0 0 m 0
 0 60 50 106 106 106 c 0
 166 106 212 56 212 0 c 0
 212 -60 162 -106 106 -106 c 0
 46 -106 0 -56 0 0 c 0
EndSplineSet
EndChar

StartChar: uni0089
Encoding: 137 137 179
Width: 262
VWidth: 0
Flags: W
HStem: -106 31<85.8845 176.275> 75 31<85.725 176.116> 161 21G<121 141> 276 32<0.00317383 114.998 147.056 261.994>
VStem: 25 31<-45.275 45.1155> 115 32<161.006 275.963 308.119 422.997> 206 31<-45.1155 45.275>
CounterMasks: 1 0e
LayerCount: 3
Back
SplineSet
115 380 m 4
 129 380 131 377 131 365 c 6
 131 304 l 6
 131 290.667 139 281 153 281 c 6
 217 281 l 6
 229 281 230 276.333 230 265 c 4
 230 252.667 228 249 215 249 c 6
 153 249 l 6
 138.333 249 131 242.667 131 228.667 c 6
 131 163 l 6
 131 151 125.667 150 115 150 c 4
 102.667 150 99 152 99 165 c 6
 99 226.333 l 6
 99 241.667 93.7949 249 72.333 249 c 6
 12 249 l 6
 1 249 0 252.667 0 265 c 4
 0 278.667 3 281 15 281 c 6
 75 281 l 6
 95.3926 281 99 287.667 99 303.667 c 6
 99 368 l 6
 99 379 103 380 115 380 c 4
55 0 m 0
 55 -32 80 -60 115 -60 c 0
 147 -60 175 -35 175 0 c 0
 175 32 150 60 115 60 c 0
 83 60 55 35 55 0 c 0
23 0 m 0
 23 53 67 92 115 92 c 0
 168 92 207 48 207 0 c 0
 207 -53 163 -92 115 -92 c 0
 62 -92 23 -48 23 0 c 0
EndSplineSet
Fore
SplineSet
115 260 m 2
 115 274 113 276 96 276 c 2
 11 276 l 2
 1 276 0 277 0 287 c 2
 0 299 l 2
 0 307 1 308 9 308 c 2
 94 308 l 2
 112 308 115 311 115 324 c 2
 115 412 l 2
 115 422 116 423 126 423 c 2
 138 423 l 2
 146 423 147 422 147 414 c 2
 147 327 l 2
 147 310 151 308 164 308 c 2
 248 308 l 2
 260 308 262 307 262 297 c 2
 262 287 l 2
 262 277 261 276 249 276 c 2
 165 276 l 2
 148 276 147 273 147 260 c 2
 147 175 l 2
 147 163 146 161 136 161 c 2
 126 161 l 2
 116 161 115 162 115 174 c 2
 115 260 l 2
56 0 m 0
 56 -40 87 -75 131 -75 c 0
 171 -75 206 -44 206 0 c 0
 206 40 175 75 131 75 c 0
 91 75 56 44 56 0 c 0
25 0 m 0
 25 60 75 106 131 106 c 0
 191 106 237 56 237 0 c 0
 237 -60 187 -106 131 -106 c 0
 71 -106 25 -56 25 0 c 0
EndSplineSet
EndChar

StartChar: uni008A
Encoding: 138 138 180
Width: 262
VWidth: 0
Flags: HW
HStem: -16 32<253 368 106 221> -131 20G<226 247>
VStem: 221 32<16 131 -131 -16>
CounterMasks: 1 1c
LayerCount: 3
Back
SplineSet
115 -380 m 0
 101 -380 99 -377 99 -365 c 2
 99 -304 l 2
 99 -290.667 91 -281 77 -281 c 2
 13 -281 l 2
 1 -281 0 -276.333 0 -265 c 0
 0 -252.667 2 -249 15 -249 c 2
 77 -249 l 2
 91.667 -249 99 -242.667 99 -228.667 c 2
 99 -163 l 2
 99 -151 104.333 -150 115 -150 c 0
 127.333 -150 131 -152 131 -165 c 2
 131 -226.333 l 2
 131 -241.667 136.205 -249 157.667 -249 c 2
 218 -249 l 2
 229 -249 230 -252.667 230 -265 c 0
 230 -278.667 227 -281 215 -281 c 2
 155 -281 l 2
 134.607 -281 131 -287.667 131 -303.667 c 2
 131 -368 l 2
 131 -379 127 -380 115 -380 c 0
175 0 m 0
 175 32 150 60 115 60 c 0
 83 60 55 35 55 0 c 0
 55 -32 80 -60 115 -60 c 0
 147 -60 175 -35 175 0 c 0
207 0 m 0
 207 -53 163 -92 115 -92 c 0
 62 -92 23 -48 23 0 c 0
 23 53 67 92 115 92 c 0
 168 92 207 48 207 0 c 0
EndSplineSet
Fore
SplineSet
147 -260 m 2
 147 -274 149 -276 166 -276 c 2
 251 -276 l 2
 261 -276 262 -277 262 -287 c 2
 262 -299 l 2
 262 -307 261 -308 253 -308 c 2
 168 -308 l 2
 150 -308 147 -311 147 -324 c 2
 147 -412 l 2
 147 -422 146 -423 136 -423 c 2
 124 -423 l 2
 116 -423 115 -422 115 -414 c 2
 115 -327 l 2
 115 -310 111 -308 98 -308 c 2
 14 -308 l 2
 2 -308 0 -307 0 -297 c 2
 0 -287 l 2
 0 -277 1 -276 13 -276 c 2
 97 -276 l 2
 114 -276 115 -273 115 -260 c 2
 115 -175 l 2
 115 -163 116 -161 126 -161 c 2
 136 -161 l 2
 146 -161 147 -162 147 -174 c 2
 147 -260 l 2
206 0 m 0
 206 40 175 75 131 75 c 0
 91 75 56 44 56 0 c 0
 56 -40 87 -75 131 -75 c 0
 171 -75 206 -44 206 0 c 0
237 0 m 0
 237 -60 187 -106 131 -106 c 0
 71 -106 25 -56 25 0 c 0
 25 60 75 106 131 106 c 0
 191 106 237 56 237 0 c 0
EndSplineSet
EndChar

StartChar: Eth
Encoding: 208 208 181
Width: 706
VWidth: 0
Flags: HW
HStem: -50 138<303.092 402.908> 241 142<240.808 465.192>
VStem: 0 29<-51 47.1094> 284 138<-30.9079 68.9079> 677 29<-51 47.1094>
LayerCount: 3
Fore
SplineSet
182 19 m 4
 182 55 212 85 248 85 c 4
 284 85 314 55 314 19 c 4
 314 -17 284 -47 248 -47 c 4
 212 -47 182 -17 182 19 c 4
677 -51 m 0
 677 89 603 241 353 241 c 0
 103 241 29 89 29 -51 c 0
 0 -51 l 0
 0 189 143 383 353 383 c 0
 563 383 706 189 706 -51 c 0
 677 -51 l 0
392 19 m 4
 392 55 422 85 458 85 c 4
 494 85 524 55 524 19 c 4
 524 -17 494 -47 458 -47 c 4
 422 -47 392 -17 392 19 c 4
EndSplineSet
EndChar

StartChar: Ntilde
Encoding: 209 209 182
Width: 706
VWidth: 0
Flags: HW
HStem: -88 138<303 403> -383 142<241 465>
VStem: 677 29<-47 51> 284 138<-69 31> 0 29<-47 51>
LayerCount: 3
Back
SplineSet
303 -19 m 0
 303 -47 281 -69 253 -69 c 0
 225 -69 203 -47 203 -19 c 0
 203 9 225 31 253 31 c 0
 281 31 303 9 303 -19 c 0
353 -280 m 0
 522 -280 649 -185 675 23 c 0
 677 42 685 52 692 52 c 0
 699 52 706 43 706 25 c 0
 706 22 705 19 705 15 c 0
 684 -177 556 -368 353 -368 c 3
 151 -368 22 -177 1 15 c 0
 1 19 0 22 0 25 c 0
 0 43 7 52 14 52 c 0
 21 52 29 42 31 23 c 0
 57 -185 185 -280 353 -280 c 0
503 -19 m 0
 503 -47 481 -69 453 -69 c 0
 425 -69 403 -47 403 -19 c 0
 403 9 425 31 453 31 c 0
 481 31 503 9 503 -19 c 0
EndSplineSet
Fore
SplineSet
524 -19 m 0
 524 -55 494 -85 458 -85 c 0
 422 -85 392 -55 392 -19 c 0
 392 17 422 47 458 47 c 0
 494 47 524 17 524 -19 c 0
29 51 m 0
 29 -89 103 -241 353 -241 c 0
 603 -241 677 -89 677 51 c 0
 706 51 l 0
 706 -189 563 -383 353 -383 c 0
 143 -383 0 -189 0 51 c 0
 29 51 l 0
314 -19 m 0
 314 -55 284 -85 248 -85 c 0
 212 -85 182 -55 182 -19 c 0
 182 17 212 47 248 47 c 0
 284 47 314 17 314 -19 c 0
EndSplineSet
EndChar

StartChar: Ograve
Encoding: 210 210 183
Width: 634
VWidth: 0
Flags: HW
HStem: -36 110<165.243 253.757> 211 103<-2.0653 422.474>
VStem: -36.5 34<-51.9968 210.247> 154.5 110<-25.257 63.257> 422.5 34<-52 210.736>
LayerCount: 3
Back
SplineSet
616 -52 m 7
 602 -52 598 -51 598 -38 c 4
 598 24 599 44 599 96 c 30
 599 197 l 6
 599 229 588 231 573 231 c 14
 73 231 l 6
 35 231 34 224 34 193 c 6
 34 84 l 22
 34 14 35 -17 35 -37 c 7
 35 -50 34 -52 16 -52 c 7
 0 -52 0 -49 0 -35 c 7
 0 32 2 74 2 141 c 7
 2 245 0 238 0 293 c 7
 0 318 7 319 25 319 c 14
 610 319 l 6
 630 319 633 304 633 289 c 31
 633 232 631 245 631 143 c 7
 631 76 633 31 633 -40 c 31
 633 -49 628 -52 616 -52 c 7
166 19 m 0
 166 47 188 69 216 69 c 0
 244 69 266 47 266 19 c 0
 266 -9 244 -31 216 -31 c 0
 188 -31 166 -9 166 19 c 0
366 19 m 0
 366 47 388 69 416 69 c 0
 444 69 466 47 466 19 c 0
 466 -9 444 -31 416 -31 c 0
 388 -31 366 -9 366 19 c 0
EndSplineSet
Fore
SplineSet
146 19 m 0
 146 55 176 85 212 85 c 0
 248 85 278 55 278 19 c 0
 278 -17 248 -47 212 -47 c 0
 176 -47 146 -17 146 19 c 0
356 19 m 0
 356 55 386 85 422 85 c 0
 458 85 488 55 488 19 c 0
 488 -17 458 -47 422 -47 c 0
 386 -47 356 -17 356 19 c 0
28 -51 m 1
 0 -51 l 1
 0 360 l 1
 634 360 l 1
 634 -51 l 1
 606 -51 l 1
 606 199 l 2
 606 208 595 215 590 215 c 2
 40 215 l 2
 36 215 28 208 28 202 c 2
 28 -51 l 1
EndSplineSet
EndChar

StartChar: Oacute
Encoding: 211 211 184
Width: 634
VWidth: 0
Flags: HW
HStem: -74 110<380 469> -314 103<212 636>
VStem: 636 34<-210 52> 370 110<-63 25> 178 34<-211 52>
LayerCount: 3
Back
SplineSet
17 52 m 7
 31 52 35 51 35 38 c 4
 35 -24 34 -44 34 -96 c 30
 34 -197 l 6
 34 -229 45 -231 60 -231 c 14
 560 -231 l 6
 598 -231 599 -224 599 -193 c 6
 599 -84 l 22
 599 -14 598 17 598 37 c 7
 598 50 599 52 617 52 c 7
 633 52 633 49 633 35 c 7
 633 -32 631 -74 631 -141 c 7
 631 -245 633 -238 633 -293 c 7
 633 -318 626 -319 608 -319 c 14
 23 -319 l 6
 3 -319 0 -304 0 -289 c 31
 0 -232 2 -245 2 -143 c 7
 2 -76 0 -31 0 40 c 31
 0 49 5 52 17 52 c 7
467 -19 m 0
 467 -47 445 -69 417 -69 c 0
 389 -69 367 -47 367 -19 c 0
 367 9 389 31 417 31 c 0
 445 31 467 9 467 -19 c 0
267 -19 m 0
 267 -47 245 -69 217 -69 c 0
 189 -69 167 -47 167 -19 c 0
 167 9 189 31 217 31 c 0
 245 31 267 9 267 -19 c 0
EndSplineSet
Fore
SplineSet
488 -19 m 0
 488 -55 458 -85 422 -85 c 0
 386 -85 356 -55 356 -19 c 0
 356 17 386 47 422 47 c 0
 458 47 488 17 488 -19 c 0
278 -19 m 0
 278 -55 248 -85 212 -85 c 0
 176 -85 146 -55 146 -19 c 0
 146 17 176 47 212 47 c 0
 248 47 278 17 278 -19 c 0
606 51 m 1
 634 51 l 1
 634 -360 l 1
 0 -360 l 1
 0 51 l 1
 28 51 l 1
 28 -199 l 2
 28 -208 39 -215 44 -215 c 2
 594 -215 l 2
 598 -215 606 -208 606 -202 c 2
 606 51 l 1
EndSplineSet
EndChar

StartChar: Ocircumflex
Encoding: 212 212 185
Width: 834
VWidth: 0
Flags: HW
HStem: -15 21G<313 349.5> 99 20G<313 349.5> 261 95<62.3185 599.87>
VStem: 16 46<-21.9414 260.293> 265 131<2.75665 101.243> 601 46<-21.9346 259.161>
LayerCount: 3
Back
SplineSet
441 19 m 0
 441 47 463 69 491 69 c 0
 519 69 541 47 541 19 c 0
 541 -9 519 -31 491 -31 c 0
 463 -31 441 -9 441 19 c 0
261 19 m 0
 261 47 283 69 311 69 c 0
 339 69 361 47 361 19 c 0
 361 -9 339 -31 311 -31 c 0
 283 -31 261 -9 261 19 c 0
13 -20 m 0
 6 -20 0 -14 0 -7 c 0
 0 2 6 7 17 17 c 2
 347 330 l 2
 373 354 387 366 401 366 c 0
 415 366 429 354 455 330 c 2
 788 15 l 2
 798 5 804 1 804 -7 c 0
 804 -15 798 -20 791 -20 c 0
 785 -20 778 -18 769 -11 c 2
 458 210 l 2
 425 234 418 239 402 239 c 0
 388 239 382 237 350 214 c 2
 35 -11 l 2
 26 -18 19 -20 13 -20 c 0
EndSplineSet
Fore
SplineSet
251 19 m 0
 251 55 281 85 317 85 c 0
 353 85 383 55 383 19 c 0
 383 -17 353 -47 317 -47 c 0
 281 -47 251 -17 251 19 c 0
451 19 m 0
 451 55 481 85 517 85 c 0
 553 85 583 55 583 19 c 0
 583 -17 553 -47 517 -47 c 0
 481 -47 451 -17 451 19 c 0
417 424 m 1
 0 15 l 17
 16 -6 l 9
 417 246 l 1
 818 -6 l 17
 834 15 l 9
 417 424 l 1
EndSplineSet
EndChar

StartChar: Otilde
Encoding: 213 213 186
Width: 834
VWidth: 0
Flags: HW
HStem: -6 21G<-350 -313> -119 20G<-350 -313> -356 95<-600 -62>
VStem: -62 46<-260 22> -396 131<-101 -3> -647 46<-259 22>
LayerCount: 3
Back
SplineSet
363 -19 m 0
 363 -47 341 -69 313 -69 c 0
 285 -69 263 -47 263 -19 c 0
 263 9 285 31 313 31 c 0
 341 31 363 9 363 -19 c 0
543 -19 m 0
 543 -47 521 -69 493 -69 c 0
 465 -69 443 -47 443 -19 c 0
 443 9 465 31 493 31 c 0
 521 31 543 9 543 -19 c 0
791 20 m 0
 798 20 804 14 804 7 c 0
 804 -2 798 -7 787 -17 c 2
 457 -330 l 2
 431 -354 417 -366 403 -366 c 0
 389 -366 375 -354 349 -330 c 2
 16 -15 l 2
 6 -5 0 -1 0 7 c 0
 0 15 6 20 13 20 c 0
 19 20 26 18 35 11 c 2
 346 -210 l 2
 379 -234 386 -239 402 -239 c 0
 416 -239 422 -237 454 -214 c 2
 769 11 l 2
 778 18 785 20 791 20 c 0
EndSplineSet
Fore
SplineSet
-251 -19 m 0
 -251 -55 -281 -85 -317 -85 c 0
 -353 -85 -383 -55 -383 -19 c 0
 -383 17 -353 47 -317 47 c 0
 -281 47 -251 17 -251 -19 c 0
-451 -19 m 0
 -451 -55 -481 -85 -517 -85 c 0
 -553 -85 -583 -55 -583 -19 c 0
 -583 17 -553 47 -517 47 c 0
 -481 47 -451 17 -451 -19 c 0
-417 -424 m 1
 0 -15 l 17
 -16 6 l 9
 -417 -246 l 1
 -818 6 l 17
 -834 -15 l 9
 -417 -424 l 1
EndSplineSet
EndChar

StartChar: aacute
Encoding: 225 225 187
Width: 448
VWidth: 0
Flags: HW
LayerCount: 3
Fore
SplineSet
151 0 m 1
 408 512 l 1
 448 512 l 1
 192 0 l 1
 151 0 l 1
0 0 m 1
 257 512 l 1
 298 512 l 1
 40 0 l 1
 0 0 l 1
EndSplineSet
EndChar

StartChar: uni0084
Encoding: 132 132 188
Width: 64
VWidth: 0
Flags: W
HStem: 224 20G<22 42>
VStem: 0 64<-6.74408 242.345>
LayerCount: 3
Fore
SplineSet
32 -41 m 3
 27 -41 18 7 16 21 c 0
 6 97 0 159 0 201 c 3
 0 228 12 244 32 244 c 3
 52 244 64 228 64 201 c 3
 64 158 58 96 47 20 c 0
 45 6 36 -41 32 -41 c 3
EndSplineSet
EndChar

StartChar: uni0085
Encoding: 133 133 189
Width: 64
VWidth: 0
Flags: HW
HStem: -244 20G<-42 -22>
VStem: -64 64<-242 7>
LayerCount: 3
Fore
SplineSet
-32 41 m 3
 -27 41 -18 -7 -16 -21 c 0
 -6 -97 0 -159 0 -201 c 3
 0 -228 -12 -244 -32 -244 c 3
 -52 -244 -64 -228 -64 -201 c 3
 -64 -158 -58 -96 -47 -20 c 0
 -45 -6 -36 41 -32 41 c 3
EndSplineSet
EndChar

StartChar: uni0095
Encoding: 149 149 190
Width: 395
VWidth: 0
Flags: HW
HStem: -131 31<342.614 447.907> 244 20G<385 406>
VStem: 264 31<-52.9073 51.9086> 379 32<-21.9939 92.3262 127.317 263.997> 495 31<-52.386 53.4852>
CounterMasks: 1 e0
LayerCount: 3
Back
SplineSet
216 -85 m 0
 261 -85 301 -49 301 0 c 0
 301 45 265 85 216 85 c 0
 185 85 157 68 142 41 c 0
 140 37 138 33 138 29 c 0
 138 21 145 16 160 16 c 2
 219 16 l 2
 231 16 231 14 231 0 c 0
 231 -14 229 -16 217 -16 c 2
 161 -16 l 2
 145 -16 139 -22 139 -30 c 0
 139 -35 141 -42 146 -49 c 0
 160 -70 186 -85 216 -85 c 0
0 0 m 0
 0 16 4 16 16 16 c 2
 73 16 l 2
 93 16 99 22 105 40 c 0
 122 86 166 118 216 118 c 0
 283 118 334 63 334 0 c 0
 334 -67 279 -118 216 -118 c 0
 165 -118 124 -86 107 -44 c 0
 98 -22 94 -16 72 -16 c 2
 12 -16 l 2
 2 -16 0 -14 0 0 c 0
EndSplineSet
Fore
SplineSet
264 -100 m 4
 317 -100 364 -58 364 0 c 4
 364 53 322 100 264 100 c 4
 223 100 185 75 171 36 c 4
 165 21 169 16 184 16 c 6
 272 16 l 6
 284 16 286 15 286 5 c 6
 286 -5 l 6
 286 -15 285 -16 273 -16 c 6
 183 -16 l 6
 168 -16 164 -19 170 -34 c 4
 184 -72 219 -100 264 -100 c 4
0 -5 m 6
 0 7 l 6
 0 15 1 16 9 16 c 6
 116 16 l 6
 132 16 134 18 136 29 c 4
 150 89 204 131 264 131 c 4
 338 131 395 70 395 0 c 4
 395 -74 334 -131 264 -131 c 4
 202 -131 152 -89 138 -34 c 4
 133 -18 132 -16 115 -16 c 6
 11 -16 l 6
 1 -16 0 -15 0 -5 c 6
EndSplineSet
EndChar

StartChar: uni0096
Encoding: 150 150 191
Width: 395
VWidth: 0
Flags: HW
HStem: -131 31<209.614 314.907> 244 20G<252 273>
VStem: 131 31<-52.9073 51.9086> 246 32<-21.9939 92.3262 127.317 263.997> 362 31<-52.386 53.4852>
CounterMasks: 1 e0
LayerCount: 3
Back
SplineSet
118 85 m 0
 73 85 33 49 33 0 c 0
 33 -45 69 -85 118 -85 c 0
 149 -85 177 -68 192 -41 c 0
 194 -37 196 -33 196 -29 c 0
 196 -21 189 -16 174 -16 c 2
 115 -16 l 2
 103 -16 103 -14 103 0 c 0
 103 14 105 16 117 16 c 2
 173 16 l 2
 189 16 195 22 195 30 c 0
 195 35 193 42 188 49 c 0
 174 70 148 85 118 85 c 0
334 0 m 0
 334 -16 330 -16 318 -16 c 2
 261 -16 l 2
 241 -16 235 -22 229 -40 c 0
 212 -86 168 -118 118 -118 c 0
 51 -118 0 -63 0 0 c 0
 0 67 55 118 118 118 c 0
 169 118 210 86 227 44 c 0
 236 22 240 16 262 16 c 2
 322 16 l 2
 332 16 334 14 334 0 c 0
EndSplineSet
Fore
SplineSet
131 100 m 0
 78 100 31 58 31 0 c 0
 31 -53 73 -100 131 -100 c 0
 172 -100 210 -75 224 -36 c 0
 230 -21 226 -16 211 -16 c 2
 123 -16 l 2
 111 -16 109 -15 109 -5 c 2
 109 5 l 2
 109 15 110 16 122 16 c 2
 212 16 l 2
 227 16 231 19 225 34 c 0
 211 72 176 100 131 100 c 0
395 5 m 2
 395 -7 l 2
 395 -15 394 -16 386 -16 c 2
 279 -16 l 2
 263 -16 261 -18 259 -29 c 0
 245 -89 191 -131 131 -131 c 0
 57 -131 0 -70 0 0 c 0
 0 74 61 131 131 131 c 0
 193 131 243 89 257 34 c 0
 262 18 263 16 280 16 c 2
 384 16 l 2
 394 16 395 15 395 5 c 2
EndSplineSet
EndChar

